<svg xmlns="http://www.w3.org/2000/svg" xmlns:xlink="http://www.w3.org/1999/xlink" viewBox="0 0 710 310"><defs><style>.a,.f,.g{fill:none;}.b{fill:#fff;}.c,.e{fill:#30adc9;}.c,.g{stroke:#f7f7f5;}.c,.e,.f,.g{stroke-linecap:round;stroke-linejoin:round;}.d{fill:#f7f7f5;}.e,.f{stroke:#30adc9;}.g{stroke-width:3px;}.h{fill:#333;}.i{clip-path:url(#a);}.j{clip-path:url(#b);}</style><clipPath id="a"><path class="a" d="M203.19,172.75L182.8,226.5H143v-117H378.8v74.39l-71-.59,0-9.21a2.94,2.94,0,0,0-2.92-2.93l-98.47-.61A3.42,3.42,0,0,0,203.19,172.75Z"/></clipPath><clipPath id="b"><path class="a" d="M191.9,160.87l-20.39,53.76h-39.8v-117h235.8V172l-71-.59,0-9.21a2.94,2.94,0,0,0-2.92-2.93l-98.47-.61A3.42,3.42,0,0,0,191.9,160.87Z"/></clipPath></defs><title>airbox</title><rect class="b" width="710" height="310"/><polygon class="c" points="548.79 150.28 535.04 140.55 551.52 137.05 565.27 146.78 548.79 150.28"/><polygon class="c" points="535.04 140.55 548.79 150.28 545.09 168.26 531.33 158.53 535.04 140.55"/><polygon class="c" points="565.27 146.78 548.79 150.28 545.09 168.26 561.57 164.76 565.27 146.78"/><polygon class="d" points="537.05 162.72 540.78 144.61 557.06 140.97 558.37 141.9 542.07 145.53 538.35 163.62 537.05 162.72"/><polygon class="d" points="554.77 166.37 558.5 148.27 544.98 138.49 543.41 138.82 556.94 148.6 553.22 166.69 554.77 166.37"/><path class="e" d="M592,111.3a8.36,8.36,0,1,0-16.28-3.84s0-.07,0-0.1a8.36,8.36,0,0,0-16.3-3.74,8.36,8.36,0,0,0-16.25-3.94l0,0.1a8.36,8.36,0,1,0-16.28-3.84A33.45,33.45,0,1,1,592,111.3Z"/><path class="f" d="M543.19,99.67c4.32-17.93,15-30.72,23.93-28.61s12.77,18.32,8.61,36.29"/><line class="g" x1="552.57" y1="132.5" x2="550.42" y2="141.65"/><line class="f" x1="552.57" y1="132.5" x2="550.42" y2="141.65"/><line class="f" x1="543.16" y1="99.77" x2="552.57" y2="132.5"/><line class="f" x1="559.44" y1="103.62" x2="552.57" y2="132.5"/><line class="f" x1="575.71" y1="107.46" x2="552.57" y2="132.5"/><line class="f" x1="591.99" y1="111.3" x2="552.57" y2="132.5"/><line class="f" x1="526.88" y1="95.93" x2="552.57" y2="132.5"/><path class="h" d="M221.91,211.6h-16l-2.22,7.52H189.32l17.13-45.57h15.36l17.12,45.57H224.19ZM219,201.75l-5-16.38-5,16.38h10Z"/><path class="h" d="M243,173.55h12.65v8.61H243v-8.61Zm0,12.56h12.65v33H243v-33Z"/><path class="h" d="M263.9,186.11h11.84v5.41a12.89,12.89,0,0,1,3.53-4.83,7.44,7.44,0,0,1,4.49-1.32,13.37,13.37,0,0,1,6.12,1.74l-3.92,9a9.94,9.94,0,0,0-3.54-.93,4.37,4.37,0,0,0-3.85,2.05q-2,2.89-2,10.82v11.07H263.9v-33Z"/><path class="h" d="M292.09,173.55h12.78v15.79a12.49,12.49,0,0,1,4.31-3,13.84,13.84,0,0,1,5.33-1,12.91,12.91,0,0,1,10,4.34q3.95,4.34,3.95,12.45a23.58,23.58,0,0,1-1.8,9.53,13.42,13.42,0,0,1-5,6.15,12.86,12.86,0,0,1-7.07,2,13.07,13.07,0,0,1-6.09-1.43,16,16,0,0,1-4.54-4.2v4.88H292.09V173.55Zm12.68,29q0,4.26,1.6,6.17a5.06,5.06,0,0,0,4.06,1.91,4.74,4.74,0,0,0,3.81-1.88q1.54-1.88,1.54-6.33,0-3.92-1.51-5.75a4.58,4.58,0,0,0-3.65-1.83,5.28,5.28,0,0,0-4.21,1.91Q304.77,198.64,304.77,202.53Z"/><path class="h" d="M332.93,202.71a16.51,16.51,0,0,1,5.1-12.45q5.1-4.9,13.77-4.9,9.92,0,15,5.75a18,18,0,0,1-1,23.89q-5.05,4.87-14,4.87-8,0-12.87-4A16.22,16.22,0,0,1,332.93,202.71Zm12.68,0q0,4.41,1.79,6.53a5.86,5.86,0,0,0,9,0q1.75-2.08,1.76-6.68,0-4.29-1.77-6.39a5.52,5.52,0,0,0-4.38-2.1,5.73,5.73,0,0,0-4.57,2.13Q345.62,198.33,345.62,202.68Z"/><path class="h" d="M371.88,186.11h15l5.24,9.2,6.11-9.2h14l-11.26,15.73L413,219.12H398.24l-6.11-10.63L385,219.12H371.26l12-17.28Z"/><path class="h" d="M425.14,179.51H438.7v3.81h-8.05v3.1h6.88V190h-6.88v7.25h-5.51V179.51Z"/><path class="h" d="M441.51,179.51h4.93v3.35h-4.93v-3.35Zm0,4.89h4.93v12.86h-4.93V184.4Z"/><path class="h" d="M449.76,179.51h4.94v17.75h-4.94V179.51Z"/><path class="h" d="M472.12,192.06h-9.88a3.19,3.19,0,0,0,.64,1.77,2.34,2.34,0,0,0,1.86.83,2.8,2.8,0,0,0,1.38-.36,3.25,3.25,0,0,0,.86-0.81l4.86,0.45a7,7,0,0,1-2.69,2.78,9.77,9.77,0,0,1-4.52.84,9.24,9.24,0,0,1-4-.72,5.91,5.91,0,0,1-2.43-2.29,6.9,6.9,0,0,1-1-3.69,6.48,6.48,0,0,1,1.93-4.88,7.36,7.36,0,0,1,5.33-1.86,9.48,9.48,0,0,1,4.36.84,5.64,5.64,0,0,1,2.43,2.42,8.86,8.86,0,0,1,.83,4.13v0.56Zm-5-2.36a3.3,3.3,0,0,0-.77-2,2.41,2.41,0,0,0-3.52.32,3.42,3.42,0,0,0-.57,1.73h4.86Z"/><path class="h" d="M482,191.39l5.22-.33a4,4,0,0,0,.69,1.94,2.9,2.9,0,0,0,2.42,1.08,2.68,2.68,0,0,0,1.81-.55,1.65,1.65,0,0,0,.64-1.28,1.63,1.63,0,0,0-.61-1.24,7,7,0,0,0-2.81-1,11.92,11.92,0,0,1-5.15-2.16,4.33,4.33,0,0,1-1.55-3.43,4.66,4.66,0,0,1,.79-2.59,5.27,5.27,0,0,1,2.39-1.91,11.14,11.14,0,0,1,4.37-.7,8.93,8.93,0,0,1,5.19,1.26,5.46,5.46,0,0,1,2.13,4l-5.17.3a2.41,2.41,0,0,0-2.69-2.29,2.2,2.2,0,0,0-1.44.41,1.24,1.24,0,0,0-.48,1,1,1,0,0,0,.4.76,4.5,4.5,0,0,0,1.84.65,23,23,0,0,1,5.15,1.57,5.41,5.41,0,0,1,2.26,2,5,5,0,0,1,.71,2.63,5.62,5.62,0,0,1-.95,3.15,5.9,5.9,0,0,1-2.64,2.19,10.66,10.66,0,0,1-4.27.75q-4.53,0-6.27-1.74A6.88,6.88,0,0,1,482,191.39Z"/><path class="h" d="M500.56,179.51h4.93v6.54a6.65,6.65,0,0,1,2-1.49,5.67,5.67,0,0,1,2.35-.45,4.15,4.15,0,0,1,3.17,1.22,5.3,5.3,0,0,1,1.16,3.75v8.17h-5v-7.07a2.57,2.57,0,0,0-.45-1.71,1.6,1.6,0,0,0-1.26-.5,1.79,1.79,0,0,0-1.45.68,3.94,3.94,0,0,0-.56,2.43v6.17h-4.93V179.51Z"/><path class="h" d="M521.59,188.57l-4.71-.5a5.29,5.29,0,0,1,.77-1.94,4.24,4.24,0,0,1,1.45-1.23,6,6,0,0,1,1.86-.58,15,15,0,0,1,2.57-.21,20.45,20.45,0,0,1,3.56.25,4.59,4.59,0,0,1,2.24,1,3.64,3.64,0,0,1,1,1.54,5.58,5.58,0,0,1,.36,1.91v5.68a6.82,6.82,0,0,0,.12,1.42,6.4,6.4,0,0,0,.5,1.31h-4.63a4.73,4.73,0,0,1-.36-0.76,5.79,5.79,0,0,1-.17-0.82,6.39,6.39,0,0,1-1.93,1.33,8,8,0,0,1-3,.53,5.08,5.08,0,0,1-3.49-1.07,3.38,3.38,0,0,1-1.19-2.63,3.44,3.44,0,0,1,.86-2.41,5.82,5.82,0,0,1,3.17-1.41q2.77-.56,3.6-0.78a16.84,16.84,0,0,0,1.74-.59,1.73,1.73,0,0,0-.38-1.27,1.88,1.88,0,0,0-1.32-.36,3.42,3.42,0,0,0-1.82.39A2.12,2.12,0,0,0,521.59,188.57Zm4.27,2.59q-1,.36-2.12.64a4.91,4.91,0,0,0-1.9.79,1.26,1.26,0,0,0,0,1.86,1.71,1.71,0,0,0,1.19.37,3.07,3.07,0,0,0,1.53-.4,2.42,2.42,0,0,0,1-1,3.27,3.27,0,0,0,.3-1.5v-0.79Z"/><path class="h" d="M533.69,184.4h4.61v2.11a5,5,0,0,1,1.37-1.88,2.9,2.9,0,0,1,1.75-.51,5.22,5.22,0,0,1,2.39.68l-1.53,3.51a3.88,3.88,0,0,0-1.38-.36,1.7,1.7,0,0,0-1.5.8,8.12,8.12,0,0,0-.76,4.21v4.31h-5V184.4Z"/><path class="h" d="M544.83,179.51h4.93v3.35h-4.93v-3.35Zm0,4.89h4.93v12.86h-4.93V184.4Z"/><path class="h" d="M552.91,184.4h4.59v2.09a6.84,6.84,0,0,1,2.08-1.83,5.48,5.48,0,0,1,2.57-.55,4.21,4.21,0,0,1,3.2,1.22,5.3,5.3,0,0,1,1.16,3.76v8.17h-5v-7.07a2.57,2.57,0,0,0-.45-1.71,1.6,1.6,0,0,0-1.26-.5,1.79,1.79,0,0,0-1.45.68,3.94,3.94,0,0,0-.56,2.43v6.17h-4.93V184.4Z"/><path class="h" d="M578.39,184.4H583v12.71a5.36,5.36,0,0,1-.51,2.31,4.85,4.85,0,0,1-1.37,1.77,5.39,5.39,0,0,1-2.17,1,13.51,13.51,0,0,1-3,.3q-3.88,0-5.32-1.16a3.79,3.79,0,0,1-1.45-3.11c0-.16,0-0.38,0-0.65L574,198.1a1.56,1.56,0,0,0,.56.92,2.36,2.36,0,0,0,1.37.38,2.07,2.07,0,0,0,1.59-.57,2.92,2.92,0,0,0,.53-2v-1.95a4.8,4.8,0,0,1-3.91,1.85,4.88,4.88,0,0,1-4.17-2.25,7.19,7.19,0,0,1-1.13-4.23,6.52,6.52,0,0,1,1.45-4.58,4.93,4.93,0,0,1,3.8-1.57,5.34,5.34,0,0,1,2.48.51,5.4,5.4,0,0,1,1.82,1.68v-1.9Zm-4.64,6.24a3,3,0,0,0,.59,2.06,2.1,2.1,0,0,0,3.11,0,3.07,3.07,0,0,0,.62-2.1,3.16,3.16,0,0,0-.65-2.15,2,2,0,0,0-1.6-.74,1.85,1.85,0,0,0-1.51.68A3.59,3.59,0,0,0,573.76,190.64Z"/><path class="h" d="M425.13,205.65H435.4a5.6,5.6,0,0,1,3.94,1.27,4.12,4.12,0,0,1,1.37,3.15,4,4,0,0,1-1,2.7,4.36,4.36,0,0,1-1.91,1.19,5,5,0,0,1,2.82,1.58,4.35,4.35,0,0,1,.9,2.82,4.84,4.84,0,0,1-.64,2.48,4.72,4.72,0,0,1-1.76,1.74,5.79,5.79,0,0,1-2.08.58,24.14,24.14,0,0,1-2.46.24h-9.47V205.65Zm5.53,7H433a2.74,2.74,0,0,0,1.79-.44,1.61,1.61,0,0,0,.5-1.28,1.52,1.52,0,0,0-.5-1.21,2.7,2.7,0,0,0-1.75-.44h-2.42v3.37Zm0,7h2.8a3.07,3.07,0,0,0,2-.5,1.69,1.69,0,0,0,.58-1.35,1.56,1.56,0,0,0-.58-1.26,3.21,3.21,0,0,0-2-.48h-2.79v3.6Z"/><path class="h" d="M442.66,210.54h5.2l2.65,8.56,2.46-8.56h4.86l-5.1,13.74a8.34,8.34,0,0,1-1.78,3.17,5.67,5.67,0,0,1-3.91,1.16,28.13,28.13,0,0,1-3.29-.29l-0.39-3.44a7.8,7.8,0,0,0,2.37.34,2.31,2.31,0,0,0,1.41-.4,3,3,0,0,0,.91-1.43Z"/><path class="h" d="M466.87,217.52l5.22-.33a4,4,0,0,0,.69,1.94,2.9,2.9,0,0,0,2.42,1.08,2.68,2.68,0,0,0,1.81-.55,1.65,1.65,0,0,0,.64-1.28,1.63,1.63,0,0,0-.61-1.24,7,7,0,0,0-2.81-1,11.92,11.92,0,0,1-5.15-2.16,4.33,4.33,0,0,1-1.55-3.43,4.66,4.66,0,0,1,.79-2.59,5.27,5.27,0,0,1,2.39-1.91,11.14,11.14,0,0,1,4.37-.7,8.93,8.93,0,0,1,5.19,1.26,5.46,5.46,0,0,1,2.13,4l-5.17.3a2.41,2.41,0,0,0-2.69-2.29,2.2,2.2,0,0,0-1.44.41,1.24,1.24,0,0,0-.48,1,1,1,0,0,0,.4.76,4.5,4.5,0,0,0,1.84.65A23,23,0,0,1,480,213a5.41,5.41,0,0,1,2.26,2,5,5,0,0,1,.71,2.63,5.62,5.62,0,0,1-.95,3.15,5.9,5.9,0,0,1-2.64,2.19,10.66,10.66,0,0,1-4.27.75q-4.53,0-6.27-1.74A6.88,6.88,0,0,1,466.87,217.52Z"/><path class="h" d="M484.8,217a6.43,6.43,0,0,1,2-4.85,8.61,8.61,0,0,1,11.2.33,7,7,0,0,1-.38,9.3,7.52,7.52,0,0,1-5.44,1.9,7.64,7.64,0,0,1-5-1.57A6.32,6.32,0,0,1,484.8,217Zm4.94,0a3.88,3.88,0,0,0,.7,2.54,2.28,2.28,0,0,0,3.5,0,4,4,0,0,0,.68-2.6,3.79,3.79,0,0,0-.69-2.49,2.15,2.15,0,0,0-1.71-.82,2.23,2.23,0,0,0-1.78.83A3.83,3.83,0,0,0,489.74,217Z"/><path class="h" d="M515.49,223.4h-4.6v-2.08a6.78,6.78,0,0,1-2.08,1.83,5.52,5.52,0,0,1-2.57.54,4.19,4.19,0,0,1-3.19-1.22,5.27,5.27,0,0,1-1.16-3.75v-8.18h5v7.07a2.6,2.6,0,0,0,.45,1.72,1.59,1.59,0,0,0,1.26.51,1.79,1.79,0,0,0,1.45-.68,3.91,3.91,0,0,0,.56-2.43v-6.19h4.93V223.4Z"/><path class="h" d="M518.48,210.54h4.59v2.09a6.84,6.84,0,0,1,2.08-1.83,5.48,5.48,0,0,1,2.57-.55,4.21,4.21,0,0,1,3.2,1.22,5.3,5.3,0,0,1,1.16,3.76v8.17h-5v-7.07a2.57,2.57,0,0,0-.45-1.71,1.6,1.6,0,0,0-1.26-.5,1.79,1.79,0,0,0-1.45.68,3.94,3.94,0,0,0-.56,2.43v6.17h-4.93V210.54Z"/><path class="h" d="M548.56,205.65V223.4h-4.61v-1.9a6.21,6.21,0,0,1-1.77,1.63,5.05,5.05,0,0,1-2.37.56,4.58,4.58,0,0,1-4-2,8.31,8.31,0,0,1-1.39-4.86,7.06,7.06,0,0,1,1.53-4.89,5,5,0,0,1,3.89-1.7,5.41,5.41,0,0,1,2.09.39,4.74,4.74,0,0,1,1.67,1.16v-6.15h5Zm-4.94,11.28a3.39,3.39,0,0,0-.64-2.26,2,2,0,0,0-1.62-.75,1.79,1.79,0,0,0-1.44.71,3.84,3.84,0,0,0-.58,2.4,3.62,3.62,0,0,0,.6,2.31,1.84,1.84,0,0,0,1.48.73,2,2,0,0,0,1.57-.74A3.7,3.7,0,0,0,543.62,216.93Z"/><g class="i"><path class="h" d="M160.77,205.06a44.66,44.66,0,0,1,42.63-44.61,34.94,34.94,0,0,1,69.78.18,35.27,35.27,0,0,1,4-.23,34.78,34.78,0,0,1,21.47,7.39,40,40,0,0,1,54.67-3.17,40.33,40.33,0,0,0-54.21-5.21,47.89,47.89,0,0,0-21.53-5.09h-0.29a40.33,40.33,0,0,0-79.77-2.26A48.1,48.1,0,0,0,166,226,44.45,44.45,0,0,1,160.77,205.06Z"/><path class="h" d="M298.65,222.89a34.91,34.91,0,0,1-49.85-7.18,44.52,44.52,0,0,1-9.55,18.5c0.4-.39.81-0.77,1.2-1.17a48.1,48.1,0,0,0,74.13.13A40,40,0,0,1,298.65,222.89Z"/></g><g class="j"><path class="h" d="M242.85,192.83l-0.29.07c0,0.1,0,.19,0,0.29a44.64,44.64,0,0,1-51,44.2,48.1,48.1,0,0,0,57-41.25A34.89,34.89,0,0,1,242.85,192.83Z"/><path class="h" d="M153.25,193.18A44.66,44.66,0,0,1,193,148.8a40.82,40.82,0,0,1,31.85-35.54,40.36,40.36,0,0,0-35.12,30.09A48.13,48.13,0,0,0,154.11,202,44.86,44.86,0,0,1,153.25,193.18Z"/></g><path class="h" d="M134.57,223.09c8.17-1.28,17-2.58,27.87-4l1.63,3.64H415.14s-40.09,5.45-144.93,5.45C152.31,228.21,134.57,223.09,134.57,223.09Z"/></svg>