<svg xmlns="http://www.w3.org/2000/svg" xmlns:xlink="http://www.w3.org/1999/xlink" viewBox="0 0 623.33 249.33"><defs><style>.a,.c,.d,.e,.f,.g,.h,.i{fill:none;}.b{fill:#666;}.c{stroke:#3fa9f5;}.c,.d,.e,.f,.g,.h,.i,.j,.l{stroke-miterlimit:10;}.d{stroke:#ff931e;}.e{stroke:#666;stroke-width:0.75px;}.f,.g,.i,.l{stroke:#000;}.f{stroke-linecap:square;}.h,.j{stroke:#c1272d;}.h{stroke-linecap:round;stroke-width:2px;}.i{stroke-dasharray:2 4;}.j{fill:#fff;}.k{clip-path:url(#a);}.l{fill:#e6e6e6;}</style><clipPath id="a"><rect class="a" x="33.07" y="329.09" width="299.96" height="179.93"/></clipPath></defs><title>figures</title><path d="M420.49,64.7a9.14,9.14,0,0,1-2-5.93,9.27,9.27,0,0,1,2-6h0.71a9.27,9.27,0,0,0-2,6,9.41,9.41,0,0,0,2,5.92h-0.71Z"/><path d="M426.13,57.87l0.09,0.54-1.58.58v4.13c0,0.76-.31.88-2,0.86a2.69,2.69,0,0,0-.22-0.61h0.87c0.73,0,.74,0,0.74-0.26v-3.9l-1.76.63a0.21,0.21,0,0,1-.14.19l-0.3-.75c0.6-.18,1.37-0.44,2.2-0.73V55.33H422V54.73H424V52l0.84,0.05a0.19,0.19,0,0,1-.22.16v2.49h1.54v0.61h-1.54v3Zm7.76,4.72v0.6h-6.18V64h-0.62V56a9.41,9.41,0,0,1-1.14,1.57,3.46,3.46,0,0,0-.42-0.47,13.17,13.17,0,0,0,2.6-5.13l0.8,0.25a0.25,0.25,0,0,1-.26.13,17.25,17.25,0,0,1-.87,2.28H430a19,19,0,0,0,1-2.6l0.79,0.28a0.23,0.23,0,0,1-.25.12c-0.23.63-.61,1.52-0.95,2.2h3.06v0.6h-3v2h2.66v0.57H430.7v2.07h2.66v0.58H430.7v2.1h3.19Zm-3.78-5.32v-2h-2.4v2h2.4Zm0,2.64V57.83h-2.4v2.07h2.4Zm-2.4.58v2.1h2.4v-2.1h-2.4Z"/><path d="M441.15,59.83v3.11a12.76,12.76,0,0,0,2.53.22c0.35,0,2.67,0,3.17,0a1.69,1.69,0,0,0-.26.63h-3c-2.93,0-5-.51-6.22-3A6.81,6.81,0,0,1,435.31,64a3.73,3.73,0,0,0-.47-0.41c1.42-1.08,2.23-3.08,2.55-5.56l0.84,0.14a0.23,0.23,0,0,1-.25.14,14,14,0,0,1-.31,1.57,4.28,4.28,0,0,0,2.84,2.84V56.69H437V56.09h7.86v0.61h-3.69v2.53h4.12v0.61h-4.12Zm-5.07-5.57v2h-0.62V53.65h5V52l0.88,0.06a0.22,0.22,0,0,1-.23.16v1.43h5.09v2.62h-0.63v-2h-9.52Z"/><path d="M449.49,64V56.28a15.53,15.53,0,0,1-1.63,2.37,6.47,6.47,0,0,0-.35-0.56,18,18,0,0,0,3.16-6l0.8,0.26a0.26,0.26,0,0,1-.27.13,24.73,24.73,0,0,1-1.1,2.64l0.25,0.06a0.24,0.24,0,0,1-.23.13V64h-0.62Zm10.38-1.31v0.58h-7.55V64H451.7V56L452.53,56a0.21,0.21,0,0,1-.22.16v6.5h7.55Zm-6.17-7.33h1.61c0.05-.39.12-0.85,0.17-1.33h-3.71V53.46h3.76c0.05-.51.1-1,0.13-1.44l0.85,0.06a0.21,0.21,0,0,1-.23.16c0,0.36-.08.78-0.12,1.22h3.59V54h-3.65c-0.05.48-.12,0.95-0.17,1.33h3v6.1H453.7v-6.1Zm4.6,1.85V55.92h-4v1.31h4Zm0,1.85V57.74h-4v1.33h4Zm0,1.87V59.6h-4v1.35h4Z"/><path d="M464.12,57.25a3.55,3.55,0,0,1,2.18-.89,1.66,1.66,0,0,1,1.61,1.72c1.13-.5,2.55-1.06,3.63-1.49l0.34,0.78H471.8a0.37,0.37,0,0,1-.21-0.08c-1,.34-2.47.91-3.59,1.41,0,0.31,0,.66,0,1.08s0,0.95,0,1.49l-0.71,0c0-.45.06-1.09,0.06-1.62,0-.26,0-0.51,0-0.7-1.61.78-3,1.72-3,2.6s1,1.23,2.88,1.23a28.92,28.92,0,0,0,3.26-.14v0.66c-0.8.08-2,.1-3.26,0.1-2.5,0-3.55-.61-3.55-1.84s1.57-2.24,3.55-3.24c-0.09-1-.51-1.37-1.08-1.37-1,0-2,.56-3.2,1.89a19.17,19.17,0,0,1-1.45,1.41l-0.45-.47a9.3,9.3,0,0,0,3.34-5h-3V54.22h3.19c0.14-.61.27-1.18,0.38-1.9l1,0.14a0.29,0.29,0,0,1-.31.22,14.79,14.79,0,0,1-.35,1.53,17.76,17.76,0,0,0,4.64-.78l0.13,0.66a19.49,19.49,0,0,1-4.95.74,9.24,9.24,0,0,1-1,2.42h0Z"/><path d="M481.09,62.36a22.35,22.35,0,0,0,2.67-.17l0,0.69C482.9,63,481.64,63,481.16,63h-3.35C476,63,475,62.19,475,60.41V52.82l1,0.08a0.32,0.32,0,0,1-.34.22v4.34a38.73,38.73,0,0,0,6.7-2.63l0.53,0.67a0.27,0.27,0,0,1-.16,0,0.4,0.4,0,0,1-.17,0,48.93,48.93,0,0,1-6.91,2.62v2.32c0,1.39.7,1.92,2.07,1.92h3.32Z"/><path d="M486.22,53.49a15.17,15.17,0,0,1,3.89,1.79l-0.36.57a16.1,16.1,0,0,0-3.82-1.8Zm0.09,9.06c4.66-1.45,7.75-4,9.33-7.64a2.69,2.69,0,0,0,.6.38A14.78,14.78,0,0,1,487,63a0.56,0.56,0,0,1-.17.28Z"/><path d="M505.3,59.13A51.39,51.39,0,0,0,500.58,57V63.6h-0.7V52.38l1,0.06a0.32,0.32,0,0,1-.32.25v3.85l0.14-.23a48,48,0,0,1,4.95,2.21Z"/><path d="M516.72,56.42h-0.1a0.46,0.46,0,0,1-.26-0.08c-3.83,1.17-7.51,3-7.51,4.82,0,1.35,1.53,1.79,3.77,1.79a36.14,36.14,0,0,0,4.52-.29l0.05,0.69a37,37,0,0,1-4.56.23c-2.59,0-4.46-.57-4.47-2.38,0-1.4,1.44-2.64,3.51-3.69-0.41-.73-0.6-2.27-0.58-5.23l1.11,0.1a0.38,0.38,0,0,1-.4.29c0,2.44.09,3.87,0.49,4.55a32.64,32.64,0,0,1,4.17-1.61Z"/><path d="M521.3,52.56a0.38,0.38,0,0,1-.4.27c-0.1,1.44-.23,5-0.23,6.92s1,3,2.72,3a6.36,6.36,0,0,0,4.83-2.58,2.54,2.54,0,0,0,.45.52,7,7,0,0,1-5.3,2.73c-2.19,0-3.41-1.3-3.41-3.71,0-1.59.12-5.7,0.22-7.31Z"/><path d="M529.43,53.82l1.22-.05c1-.09,7.92-0.58,9.41-0.57v0.71l-0.54,0a3.78,3.78,0,0,0-2.11.61c-2.11,1.24-4,3.43-4,5.17,0,1.93,1.26,3.08,4.59,3.55l-0.29.65c-3.69-.54-5-1.87-5-4.18,0-1.92,1.92-4.2,4.44-5.73-1.35.08-5.47,0.39-7.32,0.56a0.42,0.42,0,0,1-.27.19Z"/><path d="M547.3,52.48a0.18,0.18,0,0,1-.14.06h-0.09a11.13,11.13,0,0,1-2.2.8V56h2.67v0.61h-2.67V57.7c0.57,0.44,2.16,1.8,2.57,2.18l-0.39.51c-0.4-.43-1.48-1.41-2.18-2V64h-0.62V57.63A14.89,14.89,0,0,1,541.59,62a3.93,3.93,0,0,0-.37-0.57,14,14,0,0,0,2.86-4.84h-2.68V56h2.85V53.49c-0.89.22-1.84,0.4-2.72,0.54a1.53,1.53,0,0,0-.22-0.49A19.06,19.06,0,0,0,546.65,52Zm1.36,8.33V53.6l0.84,0.06a0.19,0.19,0,0,1-.22.14v7h-0.62ZM552,52.26l0.84,0.06a0.19,0.19,0,0,1-.22.14V63a0.75,0.75,0,0,1-.52.85,9.92,9.92,0,0,1-2.24.1,2.9,2.9,0,0,0-.25-0.62h1.11c1.22,0,1.27,0,1.27-.34V52.26Z"/><path d="M565.22,53V63a0.73,0.73,0,0,1-.54.87,10.75,10.75,0,0,1-2.41.1A2.45,2.45,0,0,0,562,63.3h1.2c0.48,0,.84,0,1,0a0.29,0.29,0,0,0,.35-0.35V59.84h-4V63.9h-0.62V59.84h-3.65a7.72,7.72,0,0,1-1.66,4.22,1.72,1.72,0,0,0-.48-0.44c1.46-1.66,1.61-4,1.61-5.86V53h9.47Zm-8.83,4.79c0,0.45,0,1-.05,1.46h3.6v-2.5h-3.55v1Zm3.55-4.18h-3.55v2.54h3.55V53.59Zm4.65,2.54V53.59h-4v2.54h4Zm-4,3.11h4v-2.5h-4v2.5Z"/><path d="M567.64,52.77a9.92,9.92,0,0,1,0,11.93h-0.71a10,10,0,0,0,0-11.93h0.71Z"/><path d="M576.61,143.42a0.93,0.93,0,0,1,0-.15l1.32-4.77h-1a0.6,0.6,0,0,1,0-.23,0.29,0.29,0,0,1,.14-0.1,5.62,5.62,0,0,0,1.08-.57,6.67,6.67,0,0,0,1-1.06l0.11-.13,0.05,0,0.06,0,0.1,0a0.31,0.31,0,0,1,0,.09,0.31,0.31,0,0,1,0,.08l-0.4,1.49h1.13l-0.08.47H579l-1.26,4.59a0.32,0.32,0,0,0,0,.24,0.19,0.19,0,0,0,.18.11,0.87,0.87,0,0,0,.5-0.36q0.19-.19.62-0.76l0.18,0.1-0.1.14a5.28,5.28,0,0,1-1,1.23,1.42,1.42,0,0,1-.85.35,0.63,0.63,0,0,1-.51-0.18,0.62,0.62,0,0,1-.16-0.42S576.61,143.47,576.61,143.42Z"/><path class="b" d="M58.64,137.69q0-.46,0-1a6.7,6.7,0,0,1,.16-1,5,5,0,0,1,.31-0.92,2.84,2.84,0,0,1,.51-0.77,2.31,2.31,0,0,1,.75-0.53,2.83,2.83,0,0,1,2.08,0,2.35,2.35,0,0,1,.75.53,2.91,2.91,0,0,1,.51.77,5.11,5.11,0,0,1,.31.92,6.83,6.83,0,0,1,.16,1q0,0.51,0,1c0,0.31,0,.64,0,1a6.83,6.83,0,0,1-.16,1,5.11,5.11,0,0,1-.31.92,2.9,2.9,0,0,1-.51.77,2.33,2.33,0,0,1-.75.53,2.83,2.83,0,0,1-2.08,0,2.29,2.29,0,0,1-.75-0.53,2.83,2.83,0,0,1-.51-0.77,5,5,0,0,1-.31-0.92,6.7,6.7,0,0,1-.16-1C58.66,138.32,58.64,138,58.64,137.69Zm0.79,0q0,0.34,0,.74a7.47,7.47,0,0,0,.1.82,5.15,5.15,0,0,0,.21.81,2.72,2.72,0,0,0,.36.7,1.72,1.72,0,0,0,.55.49,1.71,1.71,0,0,0,1.55,0,1.71,1.71,0,0,0,.55-0.49,2.72,2.72,0,0,0,.36-0.7,5.26,5.26,0,0,0,.21-0.81,7.23,7.23,0,0,0,.1-0.82c0-.27,0-0.51,0-0.74s0-.46,0-0.73a7.23,7.23,0,0,0-.1-0.82,5.26,5.26,0,0,0-.21-0.81,2.72,2.72,0,0,0-.36-0.7,1.73,1.73,0,0,0-.55-0.49,1.7,1.7,0,0,0-1.55,0,1.72,1.72,0,0,0-.55.49,2.72,2.72,0,0,0-.36.7,5.15,5.15,0,0,0-.21.81,7.46,7.46,0,0,0-.1.82Q59.43,137.37,59.43,137.69Z"/><path class="b" d="M65.55,141.43a0.57,0.57,0,1,1,.17.41A0.56,0.56,0,0,1,65.55,141.43Z"/><path class="b" d="M69,140.16a2.2,2.2,0,0,0,.65.94,1.78,1.78,0,0,0,1.13.33,2.21,2.21,0,0,0,.83-0.14,1.62,1.62,0,0,0,.59-0.4,1.69,1.69,0,0,0,.35-0.59,2.12,2.12,0,0,0,.12-0.72,1.55,1.55,0,0,0-.2-0.8,1.65,1.65,0,0,0-.52-0.55,2.24,2.24,0,0,0-.72-0.31,3.44,3.44,0,0,0-.81-0.1H70.09v-0.72h0.36a2.62,2.62,0,0,0,.68-0.09,1.85,1.85,0,0,0,.61-0.28,1.46,1.46,0,0,0,.44-0.5,1.52,1.52,0,0,0,.17-0.74,1.55,1.55,0,0,0-.43-1.12,1.53,1.53,0,0,0-1.15-.44,1.71,1.71,0,0,0-.95.27,1.88,1.88,0,0,0-.66.73l-0.68-.38a2.14,2.14,0,0,1,1-1,3.12,3.12,0,0,1,2.25-.16,2.21,2.21,0,0,1,.76.41,1.89,1.89,0,0,1,.51.68,2.3,2.3,0,0,1,.19,1,2.06,2.06,0,0,1-.38,1.23,2,2,0,0,1-1.13.74v0a2.14,2.14,0,0,1,.74.27,2.23,2.23,0,0,1,.57.49,2.19,2.19,0,0,1,.5,1.42,2.76,2.76,0,0,1-.16.95,2.08,2.08,0,0,1-.49.77,2.34,2.34,0,0,1-.82.52,3.16,3.16,0,0,1-1.15.19,3.1,3.1,0,0,1-1.63-.4,2.45,2.45,0,0,1-1-1.27Z"/><path class="b" d="M350,137.69q0-.46,0-1a6.83,6.83,0,0,1,.16-1,5,5,0,0,1,.31-0.92A2.89,2.89,0,0,1,351,134a2.33,2.33,0,0,1,.75-0.53,2.83,2.83,0,0,1,2.08,0,2.35,2.35,0,0,1,.75.53,2.89,2.89,0,0,1,.51.77,5,5,0,0,1,.31.92,6.83,6.83,0,0,1,.16,1q0,0.51,0,1c0,0.31,0,.64,0,1a6.83,6.83,0,0,1-.16,1,5,5,0,0,1-.31.92,2.87,2.87,0,0,1-.51.77,2.33,2.33,0,0,1-.75.53,2.83,2.83,0,0,1-2.08,0,2.31,2.31,0,0,1-.75-0.53,2.88,2.88,0,0,1-.51-0.77,5,5,0,0,1-.31-0.92,6.83,6.83,0,0,1-.16-1C350,138.32,350,138,350,137.69Zm0.79,0q0,0.34,0,.74a7.23,7.23,0,0,0,.1.82,5.15,5.15,0,0,0,.21.81,2.69,2.69,0,0,0,.36.7,1.72,1.72,0,0,0,.55.49,1.71,1.71,0,0,0,1.55,0,1.7,1.7,0,0,0,.55-0.49,2.69,2.69,0,0,0,.36-0.7,5.15,5.15,0,0,0,.21-0.81,7.23,7.23,0,0,0,.1-0.82q0-.4,0-0.74t0-.73a7.23,7.23,0,0,0-.1-0.82,5.15,5.15,0,0,0-.21-0.81,2.69,2.69,0,0,0-.36-0.7,1.72,1.72,0,0,0-.55-0.49,1.7,1.7,0,0,0-1.55,0,1.72,1.72,0,0,0-.55.49,2.69,2.69,0,0,0-.36.7,5.15,5.15,0,0,0-.21.81,7.23,7.23,0,0,0-.1.82Q350.77,137.37,350.77,137.69Z"/><path class="b" d="M356.89,141.43a0.57,0.57,0,1,1,.17.41A0.55,0.55,0,0,1,356.89,141.43Z"/><path class="b" d="M364.42,134.09h-3.5l0,2.7a1.9,1.9,0,0,1,.6-0.19,4.34,4.34,0,0,1,.64,0,2.64,2.64,0,0,1,1.1.22,2.47,2.47,0,0,1,.83.61,2.73,2.73,0,0,1,.53.89,3.14,3.14,0,0,1,.19,1.09,2.76,2.76,0,0,1-.25,1.2,2.52,2.52,0,0,1-.64.85,2.73,2.73,0,0,1-.88.5,2.85,2.85,0,0,1-.95.17,3,3,0,0,1-1.57-.38,2.62,2.62,0,0,1-1-1.06l0.74-.37a1.78,1.78,0,0,0,.29.45,2.26,2.26,0,0,0,.43.37,2.09,2.09,0,0,0,.52.25,1.82,1.82,0,0,0,.56.09,1.78,1.78,0,0,0,.62-0.13,2,2,0,0,0,.62-0.38,2.06,2.06,0,0,0,.48-0.64,2,2,0,0,0,.19-0.89,2.26,2.26,0,0,0-.16-0.86,2.17,2.17,0,0,0-.45-0.7,2.15,2.15,0,0,0-.68-0.47,2.06,2.06,0,0,0-.85-0.17,2.52,2.52,0,0,0-.89.16,3.54,3.54,0,0,0-.79.41l0.07-4.33h4.19v0.65Z"/><line class="c" x1="65.67" y1="128.33" x2="65.67" y2="76.02"/><line class="c" x1="98.14" y1="128.33" x2="98.14" y2="81.73"/><line class="c" x1="130.62" y1="128.33" x2="130.62" y2="118.93"/><line class="c" x1="163.09" y1="128.33" x2="163.09" y2="111.85"/><line class="d" x1="195.56" y1="128.33" x2="195.56" y2="146.76"/><line class="c" x1="350.7" y1="128.33" x2="350.7" y2="76.02"/><line class="c" x1="375.06" y1="128.33" x2="375.06" y2="78.94"/><line class="c" x1="399.41" y1="128.33" x2="399.41" y2="90.1"/><line class="d" x1="422.6" y1="128.33" x2="422.6" y2="146.76"/><line class="e" x1="197.85" y1="105.03" x2="189.61" y2="119.35"/><path class="b" d="M187.35,123.27a22.67,22.67,0,0,0,.11-7.34l2.45,2.9,3.73,0.66A22.65,22.65,0,0,0,187.35,123.27Z"/><path class="b" d="M198.3,94.5v0.44h-1.38v2.5h-0.46v-2.5h-1.7a3.28,3.28,0,0,1-1,2.44,2,2,0,0,0-.37-0.26,2.55,2.55,0,0,0,.36-0.38h-1.89v0.73h-0.45V96.74h-2.15V96.37h2.15V95.89h-1.63V93.71h1.63V93.24h-2V92.86h2V92.18L192,92.23a0.17,0.17,0,0,1-.17.12v0.51h2v0.38h-2v0.47h1.64v2.18h-1.64v0.48h2v0.2a3.67,3.67,0,0,0,.5-2V92.88l0.55,0a14.61,14.61,0,0,0,2.7-.66L198,92.67a0.2,0.2,0,0,1-.09,0l-0.07,0a19.7,19.7,0,0,1-3,.66V94.5h3.53ZM190.15,94v0.57h1.21V94h-1.21Zm0,1.5h1.21V95h-1.21v0.59Zm0.49,5.89V97.71h6.22v3.69h-0.49V101h-5.25v0.39h-0.48Zm5.73-3.3h-5.25v1h5.25v-1Zm-5.25,2.49h5.25V99.56h-5.25v1.06ZM193,94h-1.21v0.57H193V94Zm0,1.5V95h-1.21v0.59H193Z"/><path class="b" d="M204,98.21v2.4a9.82,9.82,0,0,0,1.95.17h2.45a1.31,1.31,0,0,0-.2.49H205.9c-2.26,0-3.87-.39-4.8-2.33a5.25,5.25,0,0,1-1.63,2.53,2.9,2.9,0,0,0-.36-0.32,6.25,6.25,0,0,0,2-4.29L201.73,97a0.18,0.18,0,0,1-.19.11,11,11,0,0,1-.24,1.21,3.3,3.3,0,0,0,2.19,2.19V95.8h-2.73V95.33h6.07V95.8H204v1.95h3.18v0.47H204Zm-3.91-4.3v1.55h-0.48v-2h3.89V92.18l0.68,0.05a0.16,0.16,0,0,1-.18.12v1.1h3.93v2h-0.49V93.92h-7.35Z"/><path class="b" d="M210.41,101.44v-6a12,12,0,0,1-1.26,1.83,5,5,0,0,0-.27-0.43,13.87,13.87,0,0,0,2.44-4.62l0.62,0.2a0.2,0.2,0,0,1-.21.1,18.94,18.94,0,0,1-.85,2l0.19,0a0.19,0.19,0,0,1-.18.1v6.7h-0.48Zm8-1v0.45h-5.83v0.53h-0.47V95.25l0.64,0.05a0.16,0.16,0,0,1-.17.12v5h5.83Zm-4.76-5.66h1.24c0-.3.09-0.66,0.13-1h-2.86V93.3h2.9c0-.39.08-0.77,0.1-1.11l0.66,0a0.16,0.16,0,0,1-.18.12c0,0.28-.06.6-0.09,0.94h2.77v0.45h-2.82c0,0.37-.09.73-0.13,1h2.3v4.71h-4V94.78Zm3.55,1.43v-1h-3.08v1h3.08Zm0,1.43v-1h-3.08v1h3.08Zm0,1.44V98h-3.08v1h3.08Z"/><line class="e" x1="479.35" y1="105.03" x2="471.11" y2="119.35"/><path class="b" d="M468.85,123.27a22.67,22.67,0,0,0,.11-7.34l2.45,2.9,3.73,0.66A22.65,22.65,0,0,0,468.85,123.27Z"/><path class="b" d="M467.3,94.5v0.44h-1.38v2.5h-0.46v-2.5h-1.7a3.28,3.28,0,0,1-1,2.44,2,2,0,0,0-.37-0.26,2.55,2.55,0,0,0,.36-0.38h-1.89v0.73h-0.45V96.74h-2.15V96.37h2.15V95.89h-1.63V93.71h1.63V93.24h-2V92.86h2V92.18L461,92.23a0.17,0.17,0,0,1-.17.12v0.51h2v0.38h-2v0.47h1.64v2.18h-1.64v0.48h2v0.2a3.67,3.67,0,0,0,.5-2V92.88l0.55,0a14.61,14.61,0,0,0,2.7-.66L467,92.67a0.2,0.2,0,0,1-.09,0l-0.07,0a19.7,19.7,0,0,1-3,.66V94.5h3.53ZM459.15,94v0.57h1.21V94h-1.21Zm0,1.5h1.21V95h-1.21v0.59Zm0.49,5.89V97.71h6.22v3.69h-0.49V101h-5.25v0.39h-0.48Zm5.73-3.3h-5.25v1h5.25v-1Zm-5.25,2.49h5.25V99.56h-5.25v1.06ZM462,94h-1.21v0.57H462V94Zm0,1.5V95h-1.21v0.59H462Z"/><path class="b" d="M473,98.21v2.4a9.82,9.82,0,0,0,1.95.17h2.45a1.31,1.31,0,0,0-.2.49H474.9c-2.26,0-3.87-.39-4.8-2.33a5.25,5.25,0,0,1-1.63,2.53,2.9,2.9,0,0,0-.36-0.32,6.25,6.25,0,0,0,2-4.29L470.73,97a0.18,0.18,0,0,1-.19.11,11,11,0,0,1-.24,1.21,3.3,3.3,0,0,0,2.19,2.19V95.8h-2.73V95.33h6.07V95.8H473v1.95h3.18v0.47H473Zm-3.91-4.3v1.55h-0.48v-2h3.89V92.18l0.68,0.05a0.16,0.16,0,0,1-.18.12v1.1h3.93v2h-0.49V93.92h-7.35Z"/><path class="b" d="M479.41,101.44v-6a12,12,0,0,1-1.26,1.83,5,5,0,0,0-.27-0.43,13.87,13.87,0,0,0,2.44-4.62l0.62,0.2a0.2,0.2,0,0,1-.21.1,18.94,18.94,0,0,1-.85,2l0.19,0a0.19,0.19,0,0,1-.18.1v6.7h-0.48Zm8-1v0.45h-5.83v0.53h-0.47V95.25l0.64,0.05a0.16,0.16,0,0,1-.17.12v5h5.83Zm-4.76-5.66h1.24c0-.3.09-0.66,0.13-1h-2.86V93.3h2.9c0-.39.08-0.77,0.1-1.11l0.66,0a0.16,0.16,0,0,1-.18.12c0,0.28-.06.6-0.09,0.94h2.77v0.45h-2.82c0,0.37-.09.73-0.13,1h2.3v4.71h-4V94.78Zm3.55,1.43v-1h-3.08v1h3.08Zm0,1.43v-1h-3.08v1h3.08Zm0,1.44V98h-3.08v1h3.08Z"/><path class="b" d="M488.28,93.58l0.94,0c0.79-.07,6.11-0.45,7.26-0.44v0.55l-0.42,0a2.93,2.93,0,0,0-1.63.47c-1.63,1-3.11,2.65-3.11,4,0,1.49,1,2.38,3.54,2.74l-0.22.5c-2.85-.42-3.88-1.44-3.88-3.23,0-1.48,1.48-3.24,3.43-4.42-1,.07-4.22.3-5.65,0.43a0.32,0.32,0,0,1-.21.15Zm6.41,1.83a7.77,7.77,0,0,1,1.4,1.4l-0.3.25a7.28,7.28,0,0,0-1.37-1.4Zm1-.87a6.81,6.81,0,0,1,1.4,1.39l-0.3.25a7.12,7.12,0,0,0-1.37-1.39Z"/><path class="b" d="M501,97.19l-1.23.39v3.2c0,0.59-.23.68-1.52,0.66a2.43,2.43,0,0,0-.17-0.46h0.66c0.55,0,.56,0,0.56-0.2V97.72l-1.15.36a0.15,0.15,0,0,1-.11.14l-0.22-.58c0.41-.1.92-0.24,1.48-0.41V94.8h-1.4V94.33h1.4V92.2l0.64,0a0.15,0.15,0,0,1-.17.12v2H501V94.8h-1.29v2.31l1.17-.35Zm6,0.69h-2.44a7.22,7.22,0,0,0,2.68,2.62,2.12,2.12,0,0,0-.35.38A8.29,8.29,0,0,1,504.11,98v3.44h-0.48V98a7.14,7.14,0,0,1-2.79,2.87,2,2,0,0,0-.34-0.38,6.38,6.38,0,0,0,2.72-2.66H501V97.41h2.61V96.25l0.65,0a0.15,0.15,0,0,1-.17.12v1H507v0.46Zm-3.48-4.33a0.16,0.16,0,0,1-.17.12c-0.14,1.44-.54,2.41-2.09,2.94a1.69,1.69,0,0,0-.28-0.36c1.44-.45,1.81-1.32,1.92-2.75Zm-1.76-.42v1.23h-0.45V92.68h5.54v1.74h-0.46V93.13h-4.63Zm2.76,0.3,0.63,0a0.15,0.15,0,0,1-.17.12v2c0,0.2,0,.23.35,0.23h1c0.24,0,.29-0.1.31-0.88a1.16,1.16,0,0,0,.41.18c0,0.9-.18,1.12-0.66,1.12h-1.13c-0.62,0-.77-0.12-0.77-0.65V93.43Z"/><path class="b" d="M511,99.52a0.22,0.22,0,0,1-.21.06,11.35,11.35,0,0,1-2.57,1.71,3.1,3.1,0,0,0-.38-0.33,9,9,0,0,0,2.58-1.7Zm3-2.39a16.16,16.16,0,0,1,2.7,1.88l-0.35.32c-0.18-.17-0.41-0.37-0.68-0.58-1,0-2.06.07-3.06,0.09v2.62h-0.49v-2.6l-3.79.08a0.16,0.16,0,0,1-.15.13l-0.19-.6,2.23,0c0.27-.16.57-0.34,0.87-0.54a13.44,13.44,0,0,0-2-1.26l0.33-.29,0.59,0.31a13.25,13.25,0,0,0,1.58-1.38h-3v1.43h-0.47V94.86h4V93.6h-4V93.15h4v-1l0.66,0a0.17,0.17,0,0,1-.18.12v0.81h4V93.6h-4v1.26h4.11v1.87h-0.49V95.3H512l0.31,0.16a0.26,0.26,0,0,1-.21.07,15.87,15.87,0,0,1-1.66,1.37,10.53,10.53,0,0,1,1.11.75,23.77,23.77,0,0,0,2.37-1.82l0.56,0.31a0.31,0.31,0,0,1-.21.06,33.45,33.45,0,0,1-3.17,2.25c1.28,0,2.7,0,4.1-.08-0.48-.34-1-0.68-1.47-1Zm0.2,2.17a12.06,12.06,0,0,1,2.61,1.65l-0.41.32a12,12,0,0,0-2.58-1.7Z"/><path class="b" d="M520.2,94.5a5.67,5.67,0,0,0-.46-1h-0.62a6,6,0,0,1-.93,1.14,2.17,2.17,0,0,0-.37-0.27,6.09,6.09,0,0,0,1.46-2.17l0.59,0.2a0.18,0.18,0,0,1-.2.07,5.3,5.3,0,0,1-.29.59h2.95v0.44h-2.1a5.76,5.76,0,0,1,.42.91Zm0.31,4.67v0.72h2.19v0.42h-2.19v1.13h-0.45V100.3h-2.21V99.88h2.21V99.16h-1.7V96.38h1.7V95.7h-2V95.29h2V94.57l0.62,0a0.17,0.17,0,0,1-.17.12v0.56h2.13V95.7h-2.13v0.68h1.73v2.79h-1.73Zm-1.72-2.4v0.81h1.27V96.77h-1.27Zm0,2h1.27V98h-1.27v0.83Zm3-2h-1.28v0.81h1.28V96.77Zm0,2V98h-1.28v0.83h1.28Zm2.89-4.24a5.07,5.07,0,0,0-.73-1.09h-1a5.36,5.36,0,0,1-1,1.07,2.13,2.13,0,0,0-.38-0.26,5.1,5.1,0,0,0,1.62-2.11l0.61,0.18a0.18,0.18,0,0,1-.2.09,4.66,4.66,0,0,1-.31.59h3.77v0.44h-2.55a4.49,4.49,0,0,1,.6.92Zm-1.19,5.76c0,0.38.1,0.47,0.63,0.47h2c0.46,0,.54-0.24.58-1.43a1.24,1.24,0,0,0,.44.2c-0.07,1.3-.22,1.68-1,1.68h-2c-0.82,0-1.07-.17-1.07-0.91V95h3.57V98.1a0.47,0.47,0,0,1-.31.54,6,6,0,0,1-1.45.09,2.21,2.21,0,0,0-.18-0.47h0.83c0.64,0,.64,0,0.64-0.18V95.44h-2.64v4.87Z"/><path class="b" d="M528.29,92.7h8.33v8.75h-0.49v-0.51h-7.37v0.51h-0.48V92.7Zm0.48,7.79h7.37V93.16h-7.37v7.33Zm6.78-3.23V97.7H534v2.23H533.5V97.7h-2.06a3.28,3.28,0,0,1-1.53,2.32,1.73,1.73,0,0,0-.33-0.33,3,3,0,0,0,1.4-2h-1.54V97.25h1.61a8.68,8.68,0,0,0,0-.88V95.59h-1.51V95.16h1.51V93.71l0.61,0a0.15,0.15,0,0,1-.17.11v1.29h2V93.71l0.62,0a0.16,0.16,0,0,1-.17.12v1.28h1.58v0.43H534v1.67h1.6Zm-4-.87q0,0.45,0,.87h2V95.59h-2v0.8Z"/><path class="b" d="M540.4,96.23a2.75,2.75,0,0,1,1.68-.69,1.28,1.28,0,0,1,1.24,1.33c0.87-.39,2-0.82,2.8-1.15l0.26,0.6h0a0.28,0.28,0,0,1-.16-0.06c-0.77.26-1.91,0.7-2.77,1.09,0,0.24,0,.51,0,0.83s0,0.73,0,1.15l-0.55,0c0-.35,0-0.84,0-1.25,0-.2,0-0.39,0-0.54-1.24.6-2.29,1.33-2.29,2s0.74,0.95,2.22.95a22.51,22.51,0,0,0,2.52-.11v0.51c-0.62.06-1.53,0.08-2.52,0.08-1.93,0-2.74-.47-2.74-1.42s1.21-1.73,2.74-2.5A0.93,0.93,0,0,0,542,96a3.5,3.5,0,0,0-2.47,1.46,14.88,14.88,0,0,1-1.12,1.09L538,98.21a7.17,7.17,0,0,0,2.58-3.85H538.3V93.89h2.46c0.11-.47.21-0.91,0.29-1.47l0.78,0.11a0.22,0.22,0,0,1-.24.17,11.64,11.64,0,0,1-.27,1.18,13.67,13.67,0,0,0,3.58-.6l0.1,0.51a15,15,0,0,1-3.82.57,7.14,7.14,0,0,1-.79,1.87h0Z"/><path class="b" d="M550.17,95.41a9.1,9.1,0,0,1,1.17,2l-0.41.21a4.43,4.43,0,0,0-.27-0.62l-1.07.05v4.35h-0.45V97.11l-1.55.06a0.16,0.16,0,0,1-.13.13l-0.16-.59H548c0.24-.29.51-0.64,0.77-1a9.71,9.71,0,0,0-1.34-1.51l0.27-.3c0.12,0.1.24,0.22,0.36,0.33a15.16,15.16,0,0,0,1-2l0.57,0.25a0.19,0.19,0,0,1-.19.07,16.37,16.37,0,0,1-1.11,2,7.44,7.44,0,0,1,.68.81c0.46-.68.89-1.4,1.2-2l0.56,0.27a0.29,0.29,0,0,1-.21.08,28.47,28.47,0,0,1-2.08,3l2,0a10.47,10.47,0,0,0-.67-1.07Zm-1.56,2.65a0.16,0.16,0,0,1-.19.1,9,9,0,0,1-.71,2.4,3.36,3.36,0,0,0-.38-0.19,8.69,8.69,0,0,0,.69-2.46Zm2.22,1.94a8.75,8.75,0,0,0-.68-2l0.39-.12a8.88,8.88,0,0,1,.72,2Zm1.78-3.59a8.2,8.2,0,0,0,1.17,2.41A7.45,7.45,0,0,0,555,96.36l0.62,0.16a0.18,0.18,0,0,1-.21.09,7.85,7.85,0,0,1-1.34,2.59,5.91,5.91,0,0,0,2.65,1.85,1.83,1.83,0,0,0-.32.41,6.45,6.45,0,0,1-2.64-1.91,7.6,7.6,0,0,1-2.8,1.9,2.2,2.2,0,0,0-.33-0.35,7.11,7.11,0,0,0,2.84-1.92,8.69,8.69,0,0,1-1.29-2.65Zm4.07-2.7v0.46h-5.63V93.71h2.49V92.18l0.67,0.05a0.17,0.17,0,0,1-.18.12v1.36h2.65Zm-3.53,1.1a0.18,0.18,0,0,1-.2.08,8,8,0,0,1-1.5,2,3.63,3.63,0,0,0-.37-0.29,6.77,6.77,0,0,0,1.47-2Zm3.13,2a10.77,10.77,0,0,0-1.67-1.95l0.37-.24a11,11,0,0,1,1.7,1.9Z"/><path class="b" d="M560,96.65a6.48,6.48,0,0,1,2.68-.64,2.31,2.31,0,0,1,2.6,2.36c0,1.81-1.6,2.81-3.54,2.81-1.31,0-2.19-.5-2.19-1.34a1.45,1.45,0,0,1,1.6-1.29,2.14,2.14,0,0,1,2,1.89,2.15,2.15,0,0,0,1.57-2.06,1.9,1.9,0,0,0-2.17-1.9,5.93,5.93,0,0,0-3.74,1.34,13.61,13.61,0,0,0-1,1l-0.38-.38c1-1,3.94-3.88,5.3-5.16-0.6.09-2.7,0.16-4,.21a0.29,0.29,0,0,1-.19.15L558.52,93c1.38,0,3.88-.1,4.63-0.21l0.14-.07,0.45,0.51a0.54,0.54,0,0,1-.23.1c-0.77.64-2.78,2.55-3.55,3.29h0Zm1.69,4.06a4.08,4.08,0,0,0,1-.13A1.7,1.7,0,0,0,561.07,99a1,1,0,0,0-1.11.83C560,100.48,560.88,100.7,561.65,100.7Z"/><path class="b" d="M573.38,95.59H573.3a0.36,0.36,0,0,1-.2-0.06c-3,.9-5.8,2.28-5.8,3.72,0,1,1.18,1.38,2.91,1.38a28,28,0,0,0,3.49-.22l0,0.53a28.57,28.57,0,0,1-3.52.18c-2,0-3.44-.44-3.45-1.84,0-1.08,1.11-2,2.71-2.85-0.32-.56-0.46-1.75-0.45-4l0.86,0.08a0.3,0.3,0,0,1-.31.22c0,1.88.07,3,.38,3.51A25,25,0,0,1,573.18,95Z"/><path class="b" d="M576.68,96.81a0.56,0.56,0,1,1-.56-0.56A0.54,0.54,0,0,1,576.68,96.81Zm3.33,0a0.56,0.56,0,1,1-.56-0.56A0.54,0.54,0,0,1,580,96.81Zm3.33,0a0.56,0.56,0,1,1-.56-0.56A0.54,0.54,0,0,1,583.34,96.81Z"/><line class="f" x1="55" y1="128.33" x2="289.96" y2="128.33"/><path d="M296,128.33a30.22,30.22,0,0,0-8.55,4.76l1.72-4.76-1.72-4.75A30.2,30.2,0,0,0,296,128.33Z"/><line class="f" x1="55" y1="208.44" x2="55" y2="49.87"/><path d="M55,43.83a30.22,30.22,0,0,0,4.76,8.55L55,50.66l-4.75,1.72A30.2,30.2,0,0,0,55,43.83Z"/><path d="M561.53,143.42a0.93,0.93,0,0,1,0-.15l1.32-4.77h-1a0.6,0.6,0,0,1,0-.23,0.29,0.29,0,0,1,.14-0.1,5.62,5.62,0,0,0,1.08-.57,6.67,6.67,0,0,0,1-1.06l0.11-.13,0.05,0,0.06,0,0.1,0a0.31,0.31,0,0,1,0,.09,0.31,0.31,0,0,1,0,.08l-0.4,1.49h1.13l-0.08.47h-1.18l-1.26,4.59a0.32,0.32,0,0,0,0,.24,0.19,0.19,0,0,0,.18.11,0.87,0.87,0,0,0,.5-0.36q0.19-.19.62-0.76l0.18,0.1-0.1.14a5.28,5.28,0,0,1-1,1.23,1.42,1.42,0,0,1-.85.35,0.63,0.63,0,0,1-.51-0.18,0.62,0.62,0,0,1-.16-0.42S561.52,143.47,561.53,143.42Z"/><path d="M76.94,52.39a0.5,0.5,0,0,1-.42.19,0.52,0.52,0,0,1-.38-0.15A0.47,0.47,0,0,1,76,52.09a1.58,1.58,0,0,1,.13-0.47A0.2,0.2,0,0,0,76,51.46a0.29,0.29,0,0,0-.19-0.06A1.23,1.23,0,0,0,75,52.5a18,18,0,0,0-.43,2.14h1.52L76,55.1H74.43l-1.31,4.47A9.24,9.24,0,0,1,72,62.43a2.07,2.07,0,0,1-1.79,1.09,1.23,1.23,0,0,1-.82-0.27,0.77,0.77,0,0,1-.32-0.59,0.62,0.62,0,0,1,.13-0.38,0.47,0.47,0,0,1,.4-0.18,0.55,0.55,0,0,1,.39.15,0.51,0.51,0,0,1,.16.38,0.49,0.49,0,0,1-.07.25,0.48,0.48,0,0,0-.07.17,0.12,0.12,0,0,0,.08.1,0.43,0.43,0,0,0,.2,0,1.21,1.21,0,0,0,1-.92A6.86,6.86,0,0,0,71.68,61l1.63-5.87H72l0.1-.46h1.32a8.49,8.49,0,0,1,.84-2.36A2,2,0,0,1,76,51.11a1.14,1.14,0,0,1,.77.27,0.79,0.79,0,0,1,.31.61A0.65,0.65,0,0,1,76.94,52.39Z"/><path d="M75.37,64.93a0.46,0.46,0,0,1,0-.08l0.77-2.78H75.55a0.33,0.33,0,0,1,0-.13,0.16,0.16,0,0,1,.08-0.06,3.3,3.3,0,0,0,.63-0.33,3.85,3.85,0,0,0,.61-0.62l0.06-.08,0,0h0l0.06,0v0a0.25,0.25,0,0,1,0,0l-0.24.87H77.5l0,0.27H76.76L76,64.74a0.19,0.19,0,0,0,0,.14,0.11,0.11,0,0,0,.11.07,0.51,0.51,0,0,0,.29-0.21q0.11-.11.36-0.44l0.1,0.06-0.06.08a3.08,3.08,0,0,1-.6.72,0.83,0.83,0,0,1-.5.2A0.34,0.34,0,0,1,75.36,65,0.71,0.71,0,0,1,75.37,64.93Z"/><path d="M81.43,52.91a7,7,0,0,1,2.06-1.77l0.13,0.23a6.24,6.24,0,0,0-1.57,1.7,7.7,7.7,0,0,0-.83,3.84,11.4,11.4,0,0,0,.31,2.93,5.06,5.06,0,0,0,2.08,3l-0.18.23a5.83,5.83,0,0,1-1.82-1.58A6.74,6.74,0,0,1,80,57.09,6.54,6.54,0,0,1,81.43,52.91Z"/><path d="M84.56,60a0.93,0.93,0,0,1,0-.15l1.32-4.77h-1a0.6,0.6,0,0,1,0-.23,0.29,0.29,0,0,1,.14-0.1,5.62,5.62,0,0,0,1.08-.57,6.67,6.67,0,0,0,1-1.06L87.26,53l0.05,0,0.06,0,0.1,0a0.31,0.31,0,0,1,0,.09,0.31,0.31,0,0,1,0,.08l-0.4,1.49h1.13l-0.08.47H87L85.69,59.7a0.32,0.32,0,0,0,0,.24,0.19,0.19,0,0,0,.18.11,0.87,0.87,0,0,0,.5-0.36q0.19-.19.62-0.76L87.2,59l-0.1.14a5.28,5.28,0,0,1-1,1.23,1.42,1.42,0,0,1-.85.35,0.63,0.63,0,0,1-.51-0.18,0.62,0.62,0,0,1-.16-0.42S84.55,60.07,84.56,60Z"/><path d="M91.64,59.09a6.65,6.65,0,0,1-2.22,3.32,5.46,5.46,0,0,1-1,.69l-0.13-.23a5.78,5.78,0,0,0,1.54-1.63,7.7,7.7,0,0,0,.86-3.9,10.77,10.77,0,0,0-.4-3.21,5.14,5.14,0,0,0-2-2.76l0.18-.23a6.65,6.65,0,0,1,2,1.82,6.75,6.75,0,0,1,1.43,4.2A6.82,6.82,0,0,1,91.64,59.09Z"/><path class="g" d="M55,76c19.83,0,71.18-1.57,77.33,52.3,4.67,40.86,10,5.2,17-16.47,8.47-26.2,58.5,66.17,90,66.17h32"/><path class="g" d="M239.33,178h32"/><path class="h" d="M163.09,111.85c8.26,7.08,26.43,27.7,32.76,34.65"/><line class="e" x1="410.82" y1="164.58" x2="418.12" y2="152.69"/><path class="b" d="M420.49,148.83a22.67,22.67,0,0,0-.32,7.33l-2.36-3-3.71-.77A22.65,22.65,0,0,0,420.49,148.83Z"/><path class="b" d="M387.22,174v0.44h-9V174h9Zm-5.48,1a0.36,0.36,0,0,1-.2.07,13.28,13.28,0,0,1-2.95,1.26c-0.08-.1-0.24-0.26-0.34-0.36a12.09,12.09,0,0,0,3-1.25Zm0.7-5.74v-0.82h-3.93V168h3.93v-0.93l0.67,0.05a0.15,0.15,0,0,1-.17.12V168h4v0.45h-4v0.82h2.91v4h-6.08v-4h2.67Zm2.92,1.19v-0.81h-5.11v0.81h5.11Zm0,1.19v-0.81h-5.11v0.81h5.11Zm0,1.22V172h-5.11v0.84h5.11Zm1.48,3.48a26.21,26.21,0,0,0-3-1.29l0.32-.32a29.59,29.59,0,0,1,3.13,1.26Z"/><path class="b" d="M389.37,176.34v-6a12,12,0,0,1-1.26,1.83,5,5,0,0,0-.27-0.43,13.87,13.87,0,0,0,2.44-4.62l0.62,0.2a0.2,0.2,0,0,1-.21.1,18.94,18.94,0,0,1-.85,2l0.19,0a0.19,0.19,0,0,1-.18.1v6.7h-0.48Zm8-1v0.45h-5.83v0.53h-0.47v-6.17l0.64,0.05a0.16,0.16,0,0,1-.17.12v5h5.83Zm-4.76-5.66h1.24c0-.3.09-0.66,0.13-1h-2.86V168.2H394c0-.39.08-0.77,0.1-1.11l0.66,0a0.16,0.16,0,0,1-.18.12c0,0.28-.06.6-0.09,0.94h2.77v0.45h-2.82c0,0.37-.09.73-0.13,1h2.3v4.71h-4v-4.71Zm3.55,1.43v-1h-3.08v1h3.08Zm0,1.43v-1h-3.08v1h3.08Zm0,1.44v-1h-3.08v1h3.08Z"/><path class="b" d="M401.84,167.56a0.27,0.27,0,0,1-.33.18c-0.12.59-.3,1.59-0.43,2.19,0.94-.09,1-0.1,1.26-0.1,1.44,0,1.95,1,1.95,2.41a7.71,7.71,0,0,1-.37,2.34A1.78,1.78,0,0,1,402.2,176a2.94,2.94,0,0,1-1.82-.9,1.93,1.93,0,0,0,.21-0.43,2.77,2.77,0,0,0,1.61.8,1.27,1.27,0,0,0,1.23-1,7.88,7.88,0,0,0,.35-2.19c0-1.17-.4-1.91-1.46-1.91a11.23,11.23,0,0,0-1.35.1,18.54,18.54,0,0,1-2.13,5.47l-0.48-.23a16.21,16.21,0,0,0,2.08-5.18c-0.56.07-1.3,0.15-1.87,0.24l0-.51c0.51-.07,1.34-0.16,2-0.23,0.16-.73.33-1.66,0.45-2.56Zm2.44-.29a6.83,6.83,0,0,1,1.4,1.4l-0.31.24a7,7,0,0,0-1.37-1.4Zm2.37,5.82a6.41,6.41,0,0,0-2.17-3.45l0.41-.29a6.54,6.54,0,0,1,2.28,3.54Zm-0.87-6.22a7.12,7.12,0,0,1,1.4,1.41l-0.31.23a7.56,7.56,0,0,0-1.37-1.4Z"/><path class="b" d="M411.73,173.36a0.2,0.2,0,0,1-.19.12c-0.27,1.44-.9,2.39-3.17,2.87a1.43,1.43,0,0,0-.28-0.43c2.12-.4,2.75-1.22,3-2.63Zm2.23,2.09c0,0.27.1,0.34,0.59,0.34h1.77c0.45,0,.53-0.2.57-1.49a1.15,1.15,0,0,0,.46.21c-0.07,1.41-.22,1.75-1,1.75h-1.82c-0.83,0-1.06-.15-1.06-0.81V173h-3.9v-5.53h6.29V173H414v2.45ZM410,167.92v1.25h5.33v-1.25H410Zm0,1.68v1.26h5.33v-1.26H410Zm0,1.68v1.29h5.33v-1.29H410Z"/><path class="b" d="M418.39,169.92c0.21,0,.55-0.14,1-0.29a16.31,16.31,0,0,1,4.48-1,2.73,2.73,0,0,1,3,2.9c0,2.45-2.52,3.37-5.8,3.72a3.12,3.12,0,0,0-.18-0.5c3-.29,5.42-1.15,5.42-3.2a2.28,2.28,0,0,0-2.54-2.41,18,18,0,0,0-5,1.25,0.27,0.27,0,0,1-.16.21Z"/><path class="b" d="M431.84,167.56a0.27,0.27,0,0,1-.33.18c-0.12.59-.3,1.59-0.43,2.19,0.94-.09,1-0.1,1.26-0.1,1.44,0,1.95,1,1.95,2.41a7.71,7.71,0,0,1-.37,2.34A1.78,1.78,0,0,1,432.2,176a2.94,2.94,0,0,1-1.82-.9,1.93,1.93,0,0,0,.21-0.43,2.77,2.77,0,0,0,1.61.8,1.27,1.27,0,0,0,1.23-1,7.88,7.88,0,0,0,.35-2.19c0-1.17-.4-1.91-1.46-1.91a11.23,11.23,0,0,0-1.35.1,18.54,18.54,0,0,1-2.13,5.47l-0.48-.23a16.21,16.21,0,0,0,2.08-5.18c-0.56.07-1.3,0.15-1.87,0.24l0-.51c0.51-.07,1.34-0.16,2-0.23,0.16-.73.33-1.66,0.45-2.56Zm4.9,4.78a6.15,6.15,0,0,0-2.34-3.47l0.38-.32a6.29,6.29,0,0,1,2.47,3.58Z"/><path class="b" d="M440.62,171.54a6.49,6.49,0,0,1,2.68-.64,2.31,2.31,0,0,1,2.6,2.36c0,1.81-1.6,2.81-3.54,2.81-1.31,0-2.19-.5-2.19-1.34a1.45,1.45,0,0,1,1.6-1.29,2.14,2.14,0,0,1,2,1.89,2.15,2.15,0,0,0,1.57-2.06,1.9,1.9,0,0,0-2.17-1.9,5.93,5.93,0,0,0-3.74,1.34,13.63,13.63,0,0,0-1,1l-0.38-.38c1-1,3.94-3.88,5.3-5.16-0.6.09-2.7,0.16-4,.21a0.3,0.3,0,0,1-.19.15l-0.08-.67c1.38,0,3.88-.1,4.63-0.21l0.14-.07,0.45,0.51a0.55,0.55,0,0,1-.23.1c-0.77.64-2.78,2.55-3.55,3.29h0Zm1.69,4.06a4.08,4.08,0,0,0,1-.13,1.7,1.7,0,0,0-1.58-1.58,1,1,0,0,0-1.11.83C440.62,175.38,441.54,175.6,442.31,175.6Z"/><path class="b" d="M384.92,180.21a19.48,19.48,0,0,1-.56,2.54h2V187h-2v0.82h-0.44V184a6.93,6.93,0,0,1-.72,1.33,2.62,2.62,0,0,0-.27-0.41,12,12,0,0,0,1.5-4.69h-1.3v-0.46h3.66v0.46h-1.88Zm1,3h-1.58v3.37h1.58v-3.37Zm6.39,4.24v0.44H388.1v0.52h-0.47v-4.71a6.52,6.52,0,0,1-.84.89,2.33,2.33,0,0,0-.31-0.38,8.4,8.4,0,0,0,2.23-3.44h-1.39v1.35h-0.45v-1.8h2c0.13-.4.26-0.81,0.36-1.23l0.64,0.16a0.18,0.18,0,0,1-.21.1c-0.09.33-.18,0.65-0.29,1h2.78v1.8H391.7v-1.35h-2.48a11.74,11.74,0,0,1-.88,1.89h1.36a12.23,12.23,0,0,0,.55-1.43l0.6,0.2a0.23,0.23,0,0,1-.19.09c-0.12.31-.31,0.76-0.49,1.14h1.89v0.44h-1.94v1.17h1.72v0.42h-1.72v1.17h1.72v0.42h-1.72v1.17h2.22Zm-2.69-3.18v-1.17H388.1v1.17h1.55Zm0,1.59v-1.17H388.1v1.17h1.55Zm-1.55.42v1.17h1.55v-1.17H388.1Z"/><path class="b" d="M393.2,184.53c0.65-.26,1.61-0.68,2.56-1.1l0.1,0.39c-0.83.39-1.69,0.8-2.25,1a0.18,0.18,0,0,1-.08.16Zm9,1.15v0.46h-4.3v2.23h-0.5v-2.23H393.2v-0.46h4.23v-0.87l0.67,0a0.16,0.16,0,0,1-.17.12v0.7h4.3Zm-6-1.38c0.31-.3.65-0.65,1-1a11.12,11.12,0,0,0-1.53-1.16l0.27-.29,0.29,0.18a11,11,0,0,0,.9-1.23h-3.68v-0.46h3.94v-1.24l0.67,0a0.16,0.16,0,0,1-.17.11v1.08h4v0.46h-4.53l0.35,0.16a0.19,0.19,0,0,1-.19.08,12.11,12.11,0,0,1-1,1.2,10.73,10.73,0,0,1,.94.73c0.44-.51.85-1,1.16-1.45l0.5,0.28a0.23,0.23,0,0,1-.19.07,25.85,25.85,0,0,1-2.22,2.44l2.29,0a11.85,11.85,0,0,0-.83-1l0.37-.19A8.76,8.76,0,0,1,400,184.9l-0.39.22c-0.08-.15-0.18-0.32-0.3-0.5l-3.42.13a0.16,0.16,0,0,1-.13.13l-0.22-.57h0.69Zm-2.33-3a8.72,8.72,0,0,1,1.66,1.11l-0.34.33a9.24,9.24,0,0,0-1.65-1.16Zm5.83,2a15,15,0,0,1,2.44,1.43l-0.37.33a14.94,14.94,0,0,0-2.43-1.47Zm2-1.82a0.18,0.18,0,0,1-.18,0,14.51,14.51,0,0,1-1.68,1.17l-0.35-.25a13.2,13.2,0,0,0,1.7-1.29Z"/><path class="b" d="M406.84,179.56a0.27,0.27,0,0,1-.33.18c-0.12.59-.3,1.59-0.43,2.19,0.94-.09,1-0.1,1.26-0.1,1.44,0,1.95,1,1.95,2.41a7.71,7.71,0,0,1-.37,2.34A1.78,1.78,0,0,1,407.2,188a2.94,2.94,0,0,1-1.82-.9,1.93,1.93,0,0,0,.21-0.43,2.77,2.77,0,0,0,1.61.8,1.27,1.27,0,0,0,1.23-1,7.88,7.88,0,0,0,.35-2.19c0-1.17-.4-1.91-1.46-1.91a11.23,11.23,0,0,0-1.35.1,18.54,18.54,0,0,1-2.13,5.47l-0.48-.23a16.21,16.21,0,0,0,2.08-5.18c-0.56.07-1.3,0.15-1.87,0.24l0-.51c0.51-.07,1.34-0.16,2-0.23,0.16-.73.33-1.66,0.45-2.56Zm2.44-.29a6.83,6.83,0,0,1,1.4,1.4l-0.31.24a7,7,0,0,0-1.37-1.4Zm2.37,5.82a6.41,6.41,0,0,0-2.17-3.45l0.41-.29a6.54,6.54,0,0,1,2.28,3.54Zm-0.87-6.22a7.12,7.12,0,0,1,1.4,1.41l-0.31.23a7.56,7.56,0,0,0-1.37-1.4Z"/><path class="b" d="M417.62,187.36h4.62v0.49h-9v-0.49h3.92v-8.11l0.68,0a0.15,0.15,0,0,1-.17.12v3.1h3.92V183h-3.92v4.36Z"/><path class="b" d="M426.84,179.56a0.27,0.27,0,0,1-.33.18c-0.12.59-.3,1.59-0.43,2.19,0.94-.09,1-0.1,1.26-0.1,1.44,0,1.95,1,1.95,2.41a7.71,7.71,0,0,1-.37,2.34A1.78,1.78,0,0,1,427.2,188a2.94,2.94,0,0,1-1.82-.9,1.93,1.93,0,0,0,.21-0.43,2.77,2.77,0,0,0,1.61.8,1.27,1.27,0,0,0,1.23-1,7.88,7.88,0,0,0,.35-2.19c0-1.17-.4-1.91-1.46-1.91a11.23,11.23,0,0,0-1.35.1,18.54,18.54,0,0,1-2.13,5.47l-0.48-.23a16.21,16.21,0,0,0,2.08-5.18c-0.56.07-1.3,0.15-1.87,0.24l0-.51c0.51-.07,1.34-0.16,2-0.23,0.16-.73.33-1.66,0.45-2.56Zm2.44-.29a6.83,6.83,0,0,1,1.4,1.4l-0.31.24a7,7,0,0,0-1.37-1.4Zm2.37,5.82a6.41,6.41,0,0,0-2.17-3.45l0.41-.29a6.54,6.54,0,0,1,2.28,3.54Zm-0.87-6.22a7.12,7.12,0,0,1,1.4,1.41l-0.31.23a7.56,7.56,0,0,0-1.37-1.4Z"/><path class="b" d="M435.62,183.54a6.49,6.49,0,0,1,2.68-.64,2.31,2.31,0,0,1,2.6,2.36c0,1.81-1.6,2.81-3.54,2.81-1.31,0-2.19-.5-2.19-1.34a1.45,1.45,0,0,1,1.6-1.29,2.14,2.14,0,0,1,2,1.89,2.15,2.15,0,0,0,1.57-2.06,1.9,1.9,0,0,0-2.17-1.9,5.93,5.93,0,0,0-3.74,1.34,13.63,13.63,0,0,0-1,1l-0.38-.38c1-1,3.94-3.88,5.3-5.16-0.6.09-2.7,0.16-4,.21a0.3,0.3,0,0,1-.19.15l-0.08-.67c1.38,0,3.88-.1,4.63-0.21l0.14-.07,0.45,0.51a0.55,0.55,0,0,1-.23.1c-0.77.64-2.78,2.55-3.55,3.29h0Zm1.69,4.06a4.08,4.08,0,0,0,1-.13,1.7,1.7,0,0,0-1.58-1.58,1,1,0,0,0-1.11.83C435.62,187.38,436.54,187.6,437.31,187.6Z"/><line class="f" x1="341" y1="128.33" x2="575.96" y2="128.33"/><path d="M582,128.33a30.22,30.22,0,0,0-8.55,4.76l1.72-4.76-1.72-4.75A30.2,30.2,0,0,0,582,128.33Z"/><line class="f" x1="341" y1="208.44" x2="341" y2="49.87"/><path d="M341,43.83a30.22,30.22,0,0,0,4.76,8.55L341,50.66l-4.75,1.72A30.2,30.2,0,0,0,341,43.83Z"/><path d="M362.94,52.39a0.5,0.5,0,0,1-.42.19,0.52,0.52,0,0,1-.38-0.15,0.47,0.47,0,0,1-.15-0.35,1.58,1.58,0,0,1,.13-0.47,0.2,0.2,0,0,0-.09-0.16,0.29,0.29,0,0,0-.19-0.06,1.23,1.23,0,0,0-.86,1.1,18,18,0,0,0-.43,2.14h1.52l-0.1.46h-1.56l-1.31,4.47A9.24,9.24,0,0,1,358,62.43a2.07,2.07,0,0,1-1.79,1.09,1.23,1.23,0,0,1-.82-0.27,0.77,0.77,0,0,1-.32-0.59,0.62,0.62,0,0,1,.13-0.38,0.47,0.47,0,0,1,.4-0.18,0.55,0.55,0,0,1,.39.15,0.51,0.51,0,0,1,.16.38,0.49,0.49,0,0,1-.07.25,0.48,0.48,0,0,0-.07.17,0.12,0.12,0,0,0,.08.1,0.43,0.43,0,0,0,.2,0,1.21,1.21,0,0,0,1-.92,6.86,6.86,0,0,0,.39-1.32l1.63-5.87H358l0.1-.46h1.32a8.49,8.49,0,0,1,.84-2.36A2,2,0,0,1,362,51.11a1.14,1.14,0,0,1,.77.27,0.79,0.79,0,0,1,.31.61A0.65,0.65,0,0,1,362.94,52.39Z"/><path d="M361.37,64.93a0.46,0.46,0,0,1,0-.08l0.77-2.78h-0.61a0.33,0.33,0,0,1,0-.13,0.16,0.16,0,0,1,.08-0.06,3.3,3.3,0,0,0,.63-0.33,3.85,3.85,0,0,0,.61-0.62l0.06-.08,0,0h0l0.06,0v0a0.25,0.25,0,0,1,0,0l-0.24.87h0.66l0,0.27h-0.69L362,64.74a0.19,0.19,0,0,0,0,.14,0.11,0.11,0,0,0,.11.07,0.51,0.51,0,0,0,.29-0.21q0.11-.11.36-0.44l0.1,0.06-0.06.08a3.08,3.08,0,0,1-.6.72,0.83,0.83,0,0,1-.5.2,0.34,0.34,0,0,1-.39-0.35A0.71,0.71,0,0,1,361.37,64.93Z"/><path d="M367.43,52.91a7,7,0,0,1,2.06-1.77l0.13,0.23a6.24,6.24,0,0,0-1.57,1.7,7.7,7.7,0,0,0-.83,3.84,11.4,11.4,0,0,0,.31,2.93,5.06,5.06,0,0,0,2.08,3l-0.18.23a5.83,5.83,0,0,1-1.82-1.58A6.74,6.74,0,0,1,366,57.09,6.54,6.54,0,0,1,367.43,52.91Z"/><path d="M370.56,60a0.93,0.93,0,0,1,0-.15l1.32-4.77h-1a0.6,0.6,0,0,1,0-.23,0.29,0.29,0,0,1,.14-0.1,5.62,5.62,0,0,0,1.08-.57,6.67,6.67,0,0,0,1-1.06l0.11-.13,0.05,0,0.06,0,0.1,0a0.31,0.31,0,0,1,0,.09,0.31,0.31,0,0,1,0,.08l-0.4,1.49h1.13l-0.08.47H373l-1.26,4.59a0.32,0.32,0,0,0,0,.24,0.19,0.19,0,0,0,.18.11,0.87,0.87,0,0,0,.5-0.36q0.19-.19.62-0.76L373.2,59l-0.1.14a5.28,5.28,0,0,1-1,1.23,1.42,1.42,0,0,1-.85.35,0.63,0.63,0,0,1-.51-0.18,0.62,0.62,0,0,1-.16-0.42S370.55,60.07,370.56,60Z"/><path d="M377.64,59.09a6.65,6.65,0,0,1-2.22,3.32,5.46,5.46,0,0,1-1,.69l-0.13-.23a5.78,5.78,0,0,0,1.54-1.63,7.7,7.7,0,0,0,.86-3.9,10.77,10.77,0,0,0-.4-3.21,5.14,5.14,0,0,0-2-2.76l0.18-.23a6.65,6.65,0,0,1,2,1.82,6.75,6.75,0,0,1,1.43,4.2A6.82,6.82,0,0,1,377.64,59.09Z"/><path class="i" d="M465.68,128.33c18.69,20.88,42.06,49.7,59.66,49.7h32"/><path class="g" d="M341,76c19.83,0,71.18-1.57,77.33,52.3,4.67,40.86,10,5.2,17-16.47,3.74-11.57,15.57,0,30.34,16.47"/><path class="g" d="M435.33,111.86c3.74-11.57,15.57,0,30.34,16.47"/><path class="h" d="M399.28,90.27c9.58,7.74,17,19.67,19.05,38.06C419.5,138.55,420.71,144,422,146"/><circle class="j" cx="179.27" cy="128.33" r="3.29"/><circle class="j" cx="417.94" cy="128.33" r="3.29"/><g class="k"><circle class="l" cx="328.61" cy="366.68" r="158.77"/></g></svg>