<svg xmlns="http://www.w3.org/2000/svg" viewBox="0 0 623.33 249.33"><defs><style>.a{fill:#666;}.b,.c,.d,.e,.f,.g{fill:none;stroke-miterlimit:10;}.b{stroke:#3fa9f5;}.c{stroke:#ff931e;}.d{stroke:#666;stroke-width:0.75px;}.e,.f{stroke:#000;}.e{stroke-linecap:square;}.g{stroke:#c1272d;stroke-linecap:round;stroke-width:2px;}</style></defs><title>figures</title><path class="a" d="M58.64,137.69q0-.46,0-1a6.83,6.83,0,0,1,.16-1,5,5,0,0,1,.31-0.92,2.88,2.88,0,0,1,.51-0.77,2.33,2.33,0,0,1,.75-0.53,2.83,2.83,0,0,1,2.08,0,2.34,2.34,0,0,1,.75.53,2.88,2.88,0,0,1,.51.77,5,5,0,0,1,.31.92,6.83,6.83,0,0,1,.16,1q0,0.51,0,1c0,0.31,0,.64,0,1a6.83,6.83,0,0,1-.16,1,5,5,0,0,1-.31.92,2.86,2.86,0,0,1-.51.77,2.32,2.32,0,0,1-.75.53,2.83,2.83,0,0,1-2.08,0,2.31,2.31,0,0,1-.75-0.53,2.86,2.86,0,0,1-.51-0.77,5,5,0,0,1-.31-0.92,6.83,6.83,0,0,1-.16-1C58.66,138.32,58.64,138,58.64,137.69Zm0.79,0q0,0.34,0,.74a7.23,7.23,0,0,0,.1.82,5.09,5.09,0,0,0,.21.81,2.7,2.7,0,0,0,.36.7,1.72,1.72,0,0,0,.55.49,1.71,1.71,0,0,0,1.55,0,1.7,1.7,0,0,0,.55-0.49,2.72,2.72,0,0,0,.36-0.7,5.2,5.2,0,0,0,.21-0.81,7.35,7.35,0,0,0,.1-0.82q0-.4,0-0.74t0-.73a7.34,7.34,0,0,0-.1-0.82,5.2,5.2,0,0,0-.21-0.81,2.72,2.72,0,0,0-.36-0.7,1.72,1.72,0,0,0-.55-0.49,1.7,1.7,0,0,0-1.55,0,1.72,1.72,0,0,0-.55.49,2.7,2.7,0,0,0-.36.7,5.09,5.09,0,0,0-.21.81,7.23,7.23,0,0,0-.1.82Q59.43,137.36,59.43,137.69Z"/><path class="a" d="M65.55,141.43a0.57,0.57,0,1,1,.17.41A0.56,0.56,0,0,1,65.55,141.43Z"/><path class="a" d="M69,140.16a2.2,2.2,0,0,0,.65.94,1.77,1.77,0,0,0,1.13.33,2.2,2.2,0,0,0,.83-0.14,1.61,1.61,0,0,0,.59-0.4,1.69,1.69,0,0,0,.35-0.59,2.12,2.12,0,0,0,.12-0.72,1.56,1.56,0,0,0-.2-0.8,1.65,1.65,0,0,0-.52-0.55,2.24,2.24,0,0,0-.72-0.31,3.45,3.45,0,0,0-.81-0.1H70.09v-0.72h0.36a2.63,2.63,0,0,0,.68-0.09,1.85,1.85,0,0,0,.61-0.28,1.46,1.46,0,0,0,.44-0.5,1.51,1.51,0,0,0,.17-0.74,1.54,1.54,0,0,0-.43-1.12,1.53,1.53,0,0,0-1.15-.44,1.71,1.71,0,0,0-.95.27,1.89,1.89,0,0,0-.66.73l-0.68-.38a2.15,2.15,0,0,1,1-1,3.12,3.12,0,0,1,2.25-.16,2.21,2.21,0,0,1,.76.41,1.9,1.9,0,0,1,.51.68,2.3,2.3,0,0,1,.19,1,2.06,2.06,0,0,1-.38,1.23,2,2,0,0,1-1.13.74v0a2.14,2.14,0,0,1,.74.27,2.24,2.24,0,0,1,.57.49,2.19,2.19,0,0,1,.5,1.42,2.75,2.75,0,0,1-.16.95,2.1,2.1,0,0,1-.49.77,2.35,2.35,0,0,1-.82.52,3.16,3.16,0,0,1-1.15.19,3.1,3.1,0,0,1-1.63-.4,2.45,2.45,0,0,1-1-1.27Z"/><path class="a" d="M350,137.69q0-.46,0-1a6.83,6.83,0,0,1,.16-1,5,5,0,0,1,.31-0.92A2.89,2.89,0,0,1,351,134a2.33,2.33,0,0,1,.75-0.53,2.83,2.83,0,0,1,2.08,0,2.35,2.35,0,0,1,.75.53,2.89,2.89,0,0,1,.51.77,5,5,0,0,1,.31.92,6.83,6.83,0,0,1,.16,1q0,0.51,0,1c0,0.31,0,.64,0,1a6.83,6.83,0,0,1-.16,1,5,5,0,0,1-.31.92,2.87,2.87,0,0,1-.51.77,2.33,2.33,0,0,1-.75.53,2.83,2.83,0,0,1-2.08,0,2.31,2.31,0,0,1-.75-0.53,2.88,2.88,0,0,1-.51-0.77,5,5,0,0,1-.31-0.92,6.83,6.83,0,0,1-.16-1C350,138.32,350,138,350,137.69Zm0.79,0q0,0.34,0,.74a7.23,7.23,0,0,0,.1.82,5.15,5.15,0,0,0,.21.81,2.69,2.69,0,0,0,.36.7,1.72,1.72,0,0,0,.55.49,1.71,1.71,0,0,0,1.55,0,1.7,1.7,0,0,0,.55-0.49,2.69,2.69,0,0,0,.36-0.7,5.15,5.15,0,0,0,.21-0.81,7.23,7.23,0,0,0,.1-0.82q0-.4,0-0.74t0-.73a7.23,7.23,0,0,0-.1-0.82,5.15,5.15,0,0,0-.21-0.81,2.69,2.69,0,0,0-.36-0.7,1.72,1.72,0,0,0-.55-0.49,1.7,1.7,0,0,0-1.55,0,1.72,1.72,0,0,0-.55.49,2.69,2.69,0,0,0-.36.7,5.15,5.15,0,0,0-.21.81,7.23,7.23,0,0,0-.1.82Q350.77,137.36,350.77,137.69Z"/><path class="a" d="M356.89,141.43a0.57,0.57,0,1,1,.17.41A0.55,0.55,0,0,1,356.89,141.43Z"/><path class="a" d="M364.42,134.09h-3.5l0,2.7a1.9,1.9,0,0,1,.6-0.19,4.34,4.34,0,0,1,.64,0,2.64,2.64,0,0,1,1.1.22,2.47,2.47,0,0,1,.83.61,2.73,2.73,0,0,1,.53.89,3.14,3.14,0,0,1,.19,1.09,2.76,2.76,0,0,1-.25,1.2,2.52,2.52,0,0,1-.64.85,2.73,2.73,0,0,1-.88.5,2.85,2.85,0,0,1-.95.17,3,3,0,0,1-1.57-.38,2.62,2.62,0,0,1-1-1.06l0.74-.37a1.78,1.78,0,0,0,.29.45,2.26,2.26,0,0,0,.43.37,2.09,2.09,0,0,0,.52.25,1.82,1.82,0,0,0,.56.09,1.78,1.78,0,0,0,.62-0.13,2,2,0,0,0,.62-0.38,2.06,2.06,0,0,0,.48-0.64,2,2,0,0,0,.19-0.89,2.26,2.26,0,0,0-.16-0.86,2.17,2.17,0,0,0-.45-0.7,2.15,2.15,0,0,0-.68-0.47,2.06,2.06,0,0,0-.85-0.17,2.52,2.52,0,0,0-.89.16,3.54,3.54,0,0,0-.79.41l0.07-4.33h4.19v0.65Z"/><path d="M416.32,66.37a9.15,9.15,0,0,1-2-5.93,9.27,9.27,0,0,1,2-6H417a9.27,9.27,0,0,0-2,6,9.41,9.41,0,0,0,2,5.92h-0.71Z"/><path d="M429.35,57.78h-2.81v1a6.48,6.48,0,0,1-4.18,6.52,5.69,5.69,0,0,0-.48-0.49,5.93,5.93,0,0,0,4-6v-1h-4.48v3.34h-0.66V57.78h-2.64V57.14h2.64V54.26l1,0.07a0.29,0.29,0,0,1-.3.23v2.58h4.48v-3l1,0.06a0.29,0.29,0,0,1-.29.22v2.76h2.81v0.65Z"/><path d="M431.5,55.17A15.16,15.16,0,0,1,435.39,57l-0.36.57a16.12,16.12,0,0,0-3.82-1.8Zm0.09,9.06c4.66-1.45,7.75-4,9.33-7.64a2.71,2.71,0,0,0,.6.38,14.78,14.78,0,0,1-9.22,7.76,0.55,0.55,0,0,1-.17.28Z"/><path d="M443.27,55.63h8.36l0.69,0.54a0.21,0.21,0,0,1-.13.1c-1,4.86-3.28,7.48-7.25,9a5.63,5.63,0,0,0-.41-0.56c3.85-1.41,6-3.86,6.92-8.37h-8.16V55.63Zm9.85-2.36a1.43,1.43,0,1,1-1.42,1.42A1.41,1.41,0,0,1,453.12,53.28Zm1,1.42a1,1,0,1,0-1,1A1,1,0,0,0,454.13,54.7Z"/><path d="M456.45,61.17V54.92l1,0.06a0.29,0.29,0,0,1-.29.21v6h-0.67Zm7.06-6.75a0.26,0.26,0,0,1-.29.22v4.15c0,2.69-.95,5.16-4.7,6.57a2.79,2.79,0,0,0-.47-0.51c3.65-1.35,4.48-3.59,4.48-6.08V54.35Z"/><path d="M466.5,55.17A15.16,15.16,0,0,1,470.39,57l-0.36.57a16.12,16.12,0,0,0-3.82-1.8Zm0.09,9.06c4.66-1.45,7.75-4,9.33-7.64a2.71,2.71,0,0,0,.6.38,14.78,14.78,0,0,1-9.22,7.76,0.55,0.55,0,0,1-.17.28Z"/><path d="M486.94,56.53a0.52,0.52,0,0,1-.17.17c-1.32,4.22-3.47,6.92-7.06,8.73a2.37,2.37,0,0,0-.45-0.5,12.58,12.58,0,0,0,6.7-8h-4.88a13,13,0,0,1-2.93,3.28,3.12,3.12,0,0,0-.53-0.44,13.11,13.11,0,0,0,4.16-5.69l0.92,0.3a0.31,0.31,0,0,1-.35.14c-0.27.61-.57,1.23-0.88,1.78h4.83l0.13-.05Zm-1.49-2.88a9.45,9.45,0,0,1,1.74,1.89l-0.4.32a10.07,10.07,0,0,0-1.7-1.89Zm1.83-.39A9.73,9.73,0,0,1,489,55.15l-0.4.31a9.47,9.47,0,0,0-1.68-1.88Z"/><path d="M492,62.89a6.63,6.63,0,0,1-1.93,2.81l-0.54-.3a6,6,0,0,0,1.9-2.68Zm7.8-5.25v4.17h-8.63V57.64h3.87v-4l0.85,0.07a0.21,0.21,0,0,1-.22.16v1.36h5.16v0.6h-5.16v1.79h4.12Zm-0.62,3.58v-3h-7.4v3h7.4Zm-5.33,4.3a13.37,13.37,0,0,0-.28-2.51l0.61,0a13.53,13.53,0,0,1,.32,2.46Zm3.36,0a12.41,12.41,0,0,0-.95-2.5l0.58-.13a12,12,0,0,1,1,2.47ZM501,65.65a12.76,12.76,0,0,0-2.08-2.76l0.54-.27a13,13,0,0,1,2.12,2.72Z"/><path d="M509.1,55.81a0.28,0.28,0,0,1-.3.19c-0.44,3.9-1.81,7.73-3.92,7.73-1,0-2-1.06-2-3a5.66,5.66,0,0,1,5.8-5.7c3.77,0,5.29,2.45,5.29,4.87,0,3.1-1.85,4.55-4.94,5.23-0.08-.14-0.26-0.42-0.39-0.6,3-.57,4.64-2,4.64-4.61,0-2.15-1.33-4.28-4.6-4.28h-0.3Zm-1-.16a5,5,0,0,0-4.57,5c0,1.49.67,2.4,1.32,2.4C506.56,63.08,507.78,59.39,508.15,55.66Z"/><path d="M525.59,58.25a0.33,0.33,0,0,1-.14.09c-1,3.91-3.26,5.82-7.12,6.87a3.46,3.46,0,0,0-.38-0.56c3.6-.91,5.82-2.75,6.7-6h-8.82V58h9.11l0.1-.06Zm-1.14-2.94h-7.37V54.67h7.37v0.63Z"/><path d="M527.94,55.17A15.16,15.16,0,0,1,531.83,57l-0.36.57a16.12,16.12,0,0,0-3.82-1.8ZM528,64.22c4.66-1.45,7.75-4,9.33-7.64a2.71,2.71,0,0,0,.6.38,14.78,14.78,0,0,1-9.22,7.76,0.55,0.55,0,0,1-.17.28Z"/><path d="M548.38,56.23a0.22,0.22,0,0,1-.14.12,16.63,16.63,0,0,1-1.93,4.38,18.92,18.92,0,0,1,1.83,1.11l-0.4.6a19.3,19.3,0,0,0-1.8-1.14,11.84,11.84,0,0,1-4.75,4,2,2,0,0,0-.5-0.49A11.62,11.62,0,0,0,545.33,61a21.74,21.74,0,0,0-3.12-1.45l0.36-.53a21.66,21.66,0,0,1,3.15,1.44,13.75,13.75,0,0,0,1.7-3.77h-4.53a13.22,13.22,0,0,1-3,3.67,4.5,4.5,0,0,0-.52-0.44,13.49,13.49,0,0,0,4-5.83l0.91,0.29a0.28,0.28,0,0,1-.32.14c-0.19.5-.45,1-0.71,1.54h4.46l0.12-.05Zm-1.09-2.47a9.19,9.19,0,0,1,1.79,1.84l-0.39.32a9.72,9.72,0,0,0-1.77-1.81Zm1.59-.53A10.11,10.11,0,0,1,550.71,55l-0.4.31a9.28,9.28,0,0,0-1.79-1.78Z"/><path d="M562.25,64.92a14.13,14.13,0,0,0-.71-1.37c-2.64.27-7.36,0.53-9.38,0.65a0.32,0.32,0,0,1-.23.25l-0.27-.91,1.37,0c0.87-2.53,2.16-6.46,2.9-9.09l1,0.26a0.33,0.33,0,0,1-.35.18c-0.74,2.44-1.9,6-2.81,8.62,2.36-.1,5.63-0.32,7.47-0.5a24.42,24.42,0,0,0-2.49-3.37l0.56-.34a25.31,25.31,0,0,1,3.64,5.39Z"/><path d="M566,65.67V57.89a16.94,16.94,0,0,1-1.9,2.49,5.41,5.41,0,0,0-.37-0.57,17.81,17.81,0,0,0,3.64-6l0.8,0.27a0.22,0.22,0,0,1-.27.12A21.79,21.79,0,0,1,566.54,57l0.32,0.09a0.2,0.2,0,0,1-.22.14v8.43H566ZM570.44,64c0,0.7.17,0.88,1,.88h3c0.79,0,.89-0.5,1-2.46a1.86,1.86,0,0,0,.61.28c-0.13,2.09-.32,2.79-1.61,2.79h-3c-1.22,0-1.59-.31-1.59-1.52V54L570.66,54a0.2,0.2,0,0,1-.22.16v5a23.47,23.47,0,0,0,4.33-3l0.53,0.62-0.12,0h-0.1a28.18,28.18,0,0,1-4.64,3V64Z"/><path d="M577.34,54.44a9.92,9.92,0,0,1,0,11.93h-0.71a10,10,0,0,0,0-11.93h0.71Z"/><line class="b" x1="65.67" y1="128.33" x2="65.67" y2="76.02"/><line class="b" x1="81.9" y1="128.33" x2="81.9" y2="77.62"/><line class="b" x1="98.14" y1="128.33" x2="98.14" y2="81.73"/><line class="b" x1="114.38" y1="128.33" x2="114.38" y2="91.53"/><line class="b" x1="130.62" y1="128.33" x2="130.62" y2="118.93"/><line class="b" x1="146.85" y1="128.33" x2="146.85" y2="121.36"/><line class="b" x1="163.09" y1="128.33" x2="163.09" y2="111.85"/><line class="b" x1="175.08" y1="128.33" x2="175.08" y2="123.27"/><line class="c" x1="195.56" y1="128.33" x2="195.56" y2="146.76"/><line class="d" x1="124.82" y1="164.58" x2="132.12" y2="152.69"/><path class="a" d="M134.49,148.83a22.67,22.67,0,0,0-.32,7.33l-2.36-3-3.71-.77A22.65,22.65,0,0,0,134.49,148.83Z"/><path class="a" d="M96.77,169.66v6.06a0.47,0.47,0,0,1-.3.53,5.47,5.47,0,0,1-1.38.08,1.56,1.56,0,0,0-.17-0.43h1.21c0.16,0,.2-0.05.2-0.2v-2.08h-2.6a6.09,6.09,0,0,1-.78,2.73,1.79,1.79,0,0,0-.37-0.23,7.25,7.25,0,0,0,.76-3.76v-2.24a4.65,4.65,0,0,1-.41.53,3.61,3.61,0,0,0-.37-0.28,8.57,8.57,0,0,0,1.64-3.3l0.61,0.17a0.19,0.19,0,0,1-.2.1c-0.06.21-.13,0.42-0.2,0.63h1.41l0.08,0,0.35,0.24-0.11.06a11.3,11.3,0,0,1-.69,1.4h1.32Zm-1.8,0a7.59,7.59,0,0,0,.59-1.25H94.24a9.06,9.06,0,0,1-.6,1.25H95Zm-1.19,2.17v0.55c0,0.26,0,.54,0,0.83h1.08v-1.38H93.78Zm0-1.75v1.33h1.06v-1.33H93.78Zm1.46,0v1.33h1.09v-1.33H95.24Zm0,3.13h1.09v-1.38H95.24v1.38Zm6.39-5.58s0,0.11,0,.17c-0.1,1.72-.19,2.33-0.4,2.56a0.86,0.86,0,0,1-.73.2l-0.86,0a1.33,1.33,0,0,0-.13-0.43c0.46,0,.89,0,1,0a0.36,0.36,0,0,0,.3-0.08,4.71,4.71,0,0,0,.3-2h-1.9a3.53,3.53,0,0,1-2,2.86,1.37,1.37,0,0,0-.31-0.33A3.16,3.16,0,0,0,98.77,168H97.24v-0.44h4.13Zm0.26,6.3v0.45H99.74v1.95H99.27v-1.95H97.05v-0.45h2.22v-1.46H98a4.38,4.38,0,0,1-.54,1,3.34,3.34,0,0,0-.37-0.24,6.16,6.16,0,0,0,.89-2.34l0.59,0.16a0.16,0.16,0,0,1-.18.08c-0.06.28-.14,0.57-0.23,0.85h1.11v-1.28l0.64,0.05a0.17,0.17,0,0,1-.17.12V172h1.76v0.45H99.74v1.46h2.15Z"/><path class="a" d="M105.2,171.12a2.75,2.75,0,0,1,1.68-.69,1.28,1.28,0,0,1,1.24,1.33c0.87-.39,2-0.82,2.8-1.15l0.26,0.6h0a0.28,0.28,0,0,1-.16-0.06c-0.77.26-1.91,0.7-2.77,1.09,0,0.24,0,.51,0,0.83s0,0.73,0,1.15l-0.55,0c0-.35.05-0.84,0.05-1.25,0-.2,0-0.39,0-0.54-1.24.6-2.29,1.33-2.29,2s0.74,0.95,2.22.95a22.5,22.5,0,0,0,2.52-.11v0.51c-0.62.06-1.53,0.08-2.52,0.08-1.93,0-2.74-.47-2.74-1.42s1.21-1.73,2.74-2.5a0.93,0.93,0,0,0-.83-1.06,3.5,3.5,0,0,0-2.47,1.46,14.9,14.9,0,0,1-1.12,1.09l-0.35-.36a7.17,7.17,0,0,0,2.58-3.85H103.1v-0.49h2.46c0.11-.47.21-0.91,0.29-1.47l0.78,0.11a0.22,0.22,0,0,1-.24.17,11.51,11.51,0,0,1-.27,1.18,13.67,13.67,0,0,0,3.58-.6l0.1,0.51a15,15,0,0,1-3.82.57,7.17,7.17,0,0,1-.79,1.87h0Z"/><path class="a" d="M115.87,173.36a0.2,0.2,0,0,1-.19.12c-0.27,1.44-.9,2.39-3.17,2.87a1.44,1.44,0,0,0-.28-0.43c2.12-.4,2.75-1.22,3-2.63Zm2.23,2.09c0,0.27.1,0.34,0.59,0.34h1.77c0.45,0,.53-0.2.57-1.49a1.14,1.14,0,0,0,.46.21c-0.07,1.41-.22,1.75-1,1.75h-1.82c-0.83,0-1.06-.15-1.06-0.81V173h-3.9v-5.53H120V173h-1.9v2.45Zm-3.92-7.54v1.25h5.33v-1.25h-5.33Zm0,1.68v1.26h5.33v-1.26h-5.33Zm0,1.68v1.29h5.33v-1.29h-5.33Z"/><path class="a" d="M124.14,171.12v3.31c0.84,1.25,2.47,1.25,4.27,1.25,1.08,0,2.33,0,3.07-.07a1.49,1.49,0,0,0-.16.49c-0.66,0-1.75,0-2.74,0-2.12,0-3.63,0-4.65-1.27-0.47.46-1,.93-1.36,1.28a0.14,0.14,0,0,1-.07.15l-0.31-.52a18.71,18.71,0,0,0,1.48-1.31v-2.88h-1.4v-0.47h1.87Zm-1.35-3.78a7.23,7.23,0,0,1,1.68,1.69l-0.4.31a7,7,0,0,0-1.65-1.74Zm4.07-.25,0.62,0a0.16,0.16,0,0,1-.17.12v3.19c0,1.79-.24,3.34-2.18,4.47a1.59,1.59,0,0,0-.33-0.35,3.66,3.66,0,0,0,2-2.86c-0.68.44-1.36,0.86-1.82,1.13a0.2,0.2,0,0,1-.08.17l-0.32-.49c0.57-.3,1.43-0.8,2.28-1.3,0-.25,0-0.51,0-0.77V167.1Zm-1.61,1a6.13,6.13,0,0,1,1.08,2l-0.42.18a6.37,6.37,0,0,0-1.07-2Zm5.38,6.1c0.26,0,.3-0.16.33-0.89a1.29,1.29,0,0,0,.43.19c0,0.87-.18,1.15-0.74,1.15h-1.39c-0.66,0-.84-0.16-0.84-0.84V167.1l0.62,0a0.15,0.15,0,0,1-.17.12v6.53c0,0.32.07,0.38,0.42,0.38h1.34Zm-1.4-3.13a8.87,8.87,0,0,1,2,1.46l-0.33.33a9.08,9.08,0,0,0-2-1.5Zm1.85-2.76a0.17,0.17,0,0,1-.19.07,17.47,17.47,0,0,1-1.29,2l-0.36-.19a13.14,13.14,0,0,0,1.27-2.15Z"/><path class="a" d="M134.31,167.5a0.29,0.29,0,0,1-.31.21c-0.08,1.11-.18,3.86-0.18,5.34s0.77,2.33,2.1,2.33a4.91,4.91,0,0,0,3.73-2,2,2,0,0,0,.35.4,5.38,5.38,0,0,1-4.09,2.11c-1.69,0-2.63-1-2.63-2.86,0-1.23.09-4.4,0.17-5.64Z"/><path class="a" d="M140.58,168.47l0.94,0c0.79-.07,6.11-0.45,7.26-0.44v0.55l-0.42,0a2.93,2.93,0,0,0-1.63.47c-1.63,1-3.11,2.65-3.11,4,0,1.49,1,2.38,3.54,2.74l-0.22.5c-2.85-.42-3.88-1.44-3.88-3.23,0-1.48,1.48-3.24,3.43-4.42-1,.06-4.22.3-5.65,0.43a0.32,0.32,0,0,1-.21.15Z"/><path class="a" d="M151.81,167.5a0.29,0.29,0,0,1-.31.21c-0.08,1.11-.18,3.86-0.18,5.34s0.77,2.33,2.1,2.33a4.91,4.91,0,0,0,3.73-2,2,2,0,0,0,.35.4,5.38,5.38,0,0,1-4.09,2.11c-1.69,0-2.63-1-2.63-2.86,0-1.23.09-4.4,0.17-5.64Z"/><path class="a" d="M158.61,168.69c0.62,0,1.41,0,2.07,0,0.5,0,1.07,0,1.53,0,0-.49,0-1.08,0-1.44l0.81,0c0,0.12-.09.17-0.27,0.2,0,0.32,0,.8,0,1.17a18.65,18.65,0,0,0,3.42-.41l0.08,0.49a19.55,19.55,0,0,1-3.51.4c0,0.66,0,1.33.05,2a17.38,17.38,0,0,0,2.92-.4l0.07,0.48a18.19,18.19,0,0,1-3,.37l0.08,1.81a11.35,11.35,0,0,1,3,1.61l-0.32.45a10.27,10.27,0,0,0-2.68-1.55c0,0.19,0,.39,0,0.54a1.44,1.44,0,0,1-1.68,1.55c-1.26,0-2.19-.49-2.19-1.42s1.09-1.44,2.17-1.44a4.41,4.41,0,0,1,1.16.13c0-.47,0-1,0-1.65h-1c-1.45,0-2.19-.13-2.19-0.8a1.46,1.46,0,0,1,.89-1.06l0.36,0.27a1.14,1.14,0,0,0-.73.73c0,0.33.56,0.4,1.67,0.41l1,0-0.06-2c-0.81,0-1.19,0-2.22,0-0.48,0-1,0-1.4,0v-0.49Zm3.79,5.07a4.4,4.4,0,0,0-1.2-.16c-0.8,0-1.68.33-1.68,1s0.77,1,1.71,1a1,1,0,0,0,1.18-1.17v-0.64Z"/><path class="a" d="M167.29,171.07l0.86-.24a14.2,14.2,0,0,1,3.6-.74,2.28,2.28,0,0,1,2.56,2.34c0,2.16-2.23,3-4.81,3.18,0-.11-0.1-0.35-0.14-0.45,2.33-.17,4.44-0.87,4.44-2.71a1.85,1.85,0,0,0-2.07-1.91,13.26,13.26,0,0,0-3.44.75c-0.25.07-.5,0.17-0.65,0.22a0.24,0.24,0,0,1-.14.16Z"/><path class="a" d="M175.68,168.47l0.94,0c0.79-.07,6.11-0.45,7.26-0.44v0.55l-0.42,0a2.93,2.93,0,0,0-1.63.47c-1.63,1-3.11,2.65-3.11,4,0,1.49,1,2.38,3.54,2.74l-0.22.5c-2.85-.42-3.88-1.44-3.88-3.23,0-1.48,1.48-3.24,3.43-4.42-1,.06-4.22.3-5.65,0.43a0.32,0.32,0,0,1-.21.15Z"/><path class="a" d="M190.37,172.43c-0.65.07-1.61,0.13-2.49,0.13-0.05.49-.07,0.84-0.07,1,0,1.67,1,1.89,2.13,1.89,1.49,0,2.48-.4,2.48-1.45a3.26,3.26,0,0,0-.85-1.9,2.44,2.44,0,0,0,.46-0.21,3.61,3.61,0,0,1,.93,2.17c0,1.63-1.8,1.89-3,1.89-0.85,0-2.65,0-2.65-2.4l0.07-1a8.16,8.16,0,0,1-1.34-.13,1,1,0,0,1-.88-0.91,1.6,1.6,0,0,1,.87-1.25l0.37,0.26a1.33,1.33,0,0,0-.73.92c0,0.59.93,0.61,1.75,0.63,0.08-.72.18-1.58,0.28-2.41a7.2,7.2,0,0,1-2.16-.56l0.16-.48a6.59,6.59,0,0,0,2.06.56c0.08-.65.16-1.32,0.23-1.85l0.82,0.1a0.29,0.29,0,0,1-.31.18c-0.07.45-.15,1-0.22,1.62,0.33,0,.67,0,1,0s0.76,0,1.12,0l0,0.49c-0.32,0-.68,0-1,0s-0.79,0-1.16,0c-0.1.8-.2,1.64-0.28,2.37a19.92,19.92,0,0,0,2.43-.14Z"/><path class="a" d="M195.88,171.7a0.56,0.56,0,1,1-.56-0.56A0.54,0.54,0,0,1,195.88,171.7Zm3.33,0a0.56,0.56,0,1,1-.56-0.56A0.54,0.54,0,0,1,199.21,171.7Zm3.33,0a0.56,0.56,0,1,1-.56-0.56A0.54,0.54,0,0,1,202.54,171.7Z"/><line class="e" x1="55" y1="128.33" x2="289.96" y2="128.33"/><path d="M296,128.33a30.22,30.22,0,0,0-8.55,4.76l1.72-4.76-1.72-4.75A30.2,30.2,0,0,0,296,128.33Z"/><line class="e" x1="55" y1="208.44" x2="55" y2="49.87"/><path d="M55,43.83a30.22,30.22,0,0,0,4.76,8.55L55,50.66l-4.75,1.72A30.2,30.2,0,0,0,55,43.83Z"/><path d="M561.53,143.42a0.93,0.93,0,0,1,0-.15l1.32-4.77h-1a0.6,0.6,0,0,1,0-.23,0.29,0.29,0,0,1,.14-0.1,5.62,5.62,0,0,0,1.08-.57,6.67,6.67,0,0,0,1-1.06l0.11-.13,0.05,0,0.06,0,0.1,0a0.31,0.31,0,0,1,0,.09,0.31,0.31,0,0,1,0,.08l-0.4,1.49h1.13l-0.08.47h-1.18l-1.26,4.59a0.32,0.32,0,0,0,0,.24,0.19,0.19,0,0,0,.18.11,0.87,0.87,0,0,0,.5-0.36q0.19-.19.62-0.76l0.18,0.1-0.1.14a5.28,5.28,0,0,1-1,1.23,1.42,1.42,0,0,1-.85.35,0.63,0.63,0,0,1-.51-0.18,0.62,0.62,0,0,1-.16-0.42S561.52,143.47,561.53,143.42Z"/><path d="M76.94,52.39a0.5,0.5,0,0,1-.42.19,0.52,0.52,0,0,1-.38-0.15A0.47,0.47,0,0,1,76,52.09a1.58,1.58,0,0,1,.13-0.47A0.2,0.2,0,0,0,76,51.46a0.29,0.29,0,0,0-.19-0.06A1.23,1.23,0,0,0,75,52.5a18,18,0,0,0-.43,2.14h1.52L76,55.1H74.43l-1.31,4.47A9.24,9.24,0,0,1,72,62.43a2.07,2.07,0,0,1-1.79,1.09,1.23,1.23,0,0,1-.82-0.27,0.77,0.77,0,0,1-.32-0.59,0.62,0.62,0,0,1,.13-0.38,0.47,0.47,0,0,1,.4-0.18,0.55,0.55,0,0,1,.39.15,0.51,0.51,0,0,1,.16.38,0.49,0.49,0,0,1-.07.25,0.48,0.48,0,0,0-.07.17,0.12,0.12,0,0,0,.08.1,0.43,0.43,0,0,0,.2,0,1.21,1.21,0,0,0,1-.92A6.86,6.86,0,0,0,71.68,61l1.63-5.87H72l0.1-.46h1.32a8.49,8.49,0,0,1,.84-2.36A2,2,0,0,1,76,51.11a1.14,1.14,0,0,1,.77.27,0.79,0.79,0,0,1,.31.61A0.65,0.65,0,0,1,76.94,52.39Z"/><path d="M75.37,64.93a0.46,0.46,0,0,1,0-.08l0.77-2.78H75.54a0.33,0.33,0,0,1,0-.13,0.16,0.16,0,0,1,.08-0.06,3.3,3.3,0,0,0,.63-0.33,3.85,3.85,0,0,0,.61-0.62l0.06-.08,0,0h0l0.06,0v0a0.25,0.25,0,0,1,0,0l-0.24.87H77.5l0,0.27H76.76L76,64.74a0.19,0.19,0,0,0,0,.14,0.11,0.11,0,0,0,.11.07,0.51,0.51,0,0,0,.29-0.21q0.11-.11.36-0.44l0.1,0.06-0.06.08a3.08,3.08,0,0,1-.6.72,0.83,0.83,0,0,1-.5.2A0.34,0.34,0,0,1,75.36,65,0.71,0.71,0,0,1,75.37,64.93Z"/><path d="M81.43,52.91a7,7,0,0,1,2.06-1.77l0.13,0.23a6.24,6.24,0,0,0-1.57,1.7,7.7,7.7,0,0,0-.83,3.84,11.4,11.4,0,0,0,.31,2.93,5.06,5.06,0,0,0,2.08,3l-0.18.23a5.83,5.83,0,0,1-1.82-1.58A6.74,6.74,0,0,1,80,57.09,6.54,6.54,0,0,1,81.43,52.91Z"/><path d="M84.56,60a0.93,0.93,0,0,1,0-.15l1.32-4.77h-1a0.6,0.6,0,0,1,0-.23,0.29,0.29,0,0,1,.14-0.1,5.62,5.62,0,0,0,1.08-.57,6.67,6.67,0,0,0,1-1.06L87.26,53l0.05,0,0.06,0,0.1,0a0.31,0.31,0,0,1,0,.09,0.31,0.31,0,0,1,0,.08l-0.4,1.49h1.13l-0.08.47H87L85.69,59.7a0.32,0.32,0,0,0,0,.24,0.19,0.19,0,0,0,.18.11,0.87,0.87,0,0,0,.5-0.36q0.19-.19.62-0.76L87.2,59l-0.1.14a5.28,5.28,0,0,1-1,1.23,1.42,1.42,0,0,1-.85.35,0.63,0.63,0,0,1-.51-0.18,0.62,0.62,0,0,1-.16-0.42S84.55,60.07,84.56,60Z"/><path d="M91.64,59.09a6.65,6.65,0,0,1-2.22,3.32,5.46,5.46,0,0,1-1,.69l-0.13-.23a5.78,5.78,0,0,0,1.54-1.63,7.7,7.7,0,0,0,.86-3.9,10.77,10.77,0,0,0-.4-3.21,5.14,5.14,0,0,0-2-2.76l0.18-.23a6.65,6.65,0,0,1,2,1.82,6.75,6.75,0,0,1,1.43,4.2A6.82,6.82,0,0,1,91.64,59.09Z"/><path class="f" d="M55,76c19.83,0,71.18-1.57,77.33,52.3,4.67,40.86,10,5.2,17-16.47,8.47-26.2,58.5,66.17,90,66.17h32"/><path class="f" d="M239.33,178h32"/><path class="g" d="M175.08,123.27c5.67,6.27,14.43,16.27,20.77,23.22"/><line class="b" x1="357.17" y1="128.33" x2="357.17" y2="76.02"/><line class="b" x1="373.4" y1="128.33" x2="373.4" y2="78.62"/><line class="b" x1="389.64" y1="128.33" x2="389.64" y2="84.13"/><line class="b" x1="405.88" y1="128.33" x2="405.88" y2="96.75"/><line class="c" x1="422.12" y1="128.33" x2="422.12" y2="146.76"/><line class="d" x1="410.82" y1="164.58" x2="418.12" y2="152.69"/><path class="a" d="M420.49,148.83a22.67,22.67,0,0,0-.32,7.33l-2.36-3-3.71-.77A22.65,22.65,0,0,0,420.49,148.83Z"/><path class="a" d="M384,170.24h-2.17V171a5,5,0,0,1-3.23,5,4.23,4.23,0,0,0-.37-0.38,4.57,4.57,0,0,0,3.08-4.63v-0.79H377.9v2.58h-0.51v-2.58h-2v-0.5h2v-2.22l0.74,0a0.22,0.22,0,0,1-.23.18v2h3.46V167.4l0.74,0a0.22,0.22,0,0,1-.22.17v2.13H384v0.5Z"/><path class="a" d="M385.71,168.22a11.68,11.68,0,0,1,3,1.38l-0.28.44a12.46,12.46,0,0,0-2.95-1.39Zm0.07,7c3.6-1.12,6-3.12,7.2-5.9a2.11,2.11,0,0,0,.46.29,11.4,11.4,0,0,1-7.12,6,0.43,0.43,0,0,1-.13.22Z"/><path class="a" d="M394.79,168.59h6.45l0.53,0.42a0.16,0.16,0,0,1-.1.08c-0.78,3.75-2.53,5.77-5.6,6.91a4.45,4.45,0,0,0-.32-0.43c3-1.09,4.66-3,5.34-6.46h-6.3v-0.51Zm7.6-1.82a1.1,1.1,0,1,1-1.1,1.1A1.09,1.09,0,0,1,402.39,166.77Zm0.78,1.1a0.78,0.78,0,1,0-.78.79A0.79,0.79,0,0,0,403.17,167.87Z"/><path class="a" d="M405,172.85V168l0.74,0a0.23,0.23,0,0,1-.22.16v4.61H405Zm5.45-5.21a0.21,0.21,0,0,1-.22.17V171a4.93,4.93,0,0,1-3.63,5.07,2.14,2.14,0,0,0-.36-0.39c2.82-1,3.46-2.77,3.46-4.69V167.6Z"/><path class="a" d="M412.71,168.22a11.71,11.71,0,0,1,3,1.38l-0.28.44a12.46,12.46,0,0,0-2.95-1.39Zm0.07,7c3.6-1.12,6-3.12,7.2-5.9a2.07,2.07,0,0,0,.46.29,11.41,11.41,0,0,1-7.12,6,0.43,0.43,0,0,1-.13.22Z"/><path class="a" d="M428.48,169.27a0.41,0.41,0,0,1-.13.13,10.36,10.36,0,0,1-5.45,6.74,1.81,1.81,0,0,0-.35-0.39,9.71,9.71,0,0,0,5.17-6.18h-3.77a10,10,0,0,1-2.26,2.53,2.46,2.46,0,0,0-.41-0.34,10.1,10.1,0,0,0,3.21-4.39l0.71,0.23a0.24,0.24,0,0,1-.27.11c-0.21.47-.44,1-0.68,1.37H428l0.1,0Zm-1.15-2.22a7.32,7.32,0,0,1,1.34,1.46l-0.31.25a7.77,7.77,0,0,0-1.31-1.46Zm1.41-.3a7.53,7.53,0,0,1,1.33,1.46l-0.31.24a7.28,7.28,0,0,0-1.3-1.45Z"/><path class="a" d="M432.42,174.18a5.13,5.13,0,0,1-1.49,2.17l-0.42-.23a4.66,4.66,0,0,0,1.47-2.07Zm6-4v3.22h-6.66v-3.22h3v-3.06l0.66,0.05a0.16,0.16,0,0,1-.17.12v1h4v0.46h-4v1.38h3.18ZM438,172.89V170.6h-5.71v2.29H438Zm-4.11,3.32a10.23,10.23,0,0,0-.22-1.94l0.47,0a10.4,10.4,0,0,1,.25,1.9Zm2.59,0a9.56,9.56,0,0,0-.73-1.93l0.45-.1a9.21,9.21,0,0,1,.75,1.91Zm2.91,0.1a9.84,9.84,0,0,0-1.61-2.13l0.42-.21a10.07,10.07,0,0,1,1.64,2.1Z"/><path class="a" d="M443.06,171.12a2.75,2.75,0,0,1,1.68-.69,1.28,1.28,0,0,1,1.24,1.33c0.87-.39,2-0.82,2.8-1.15l0.26,0.6h0a0.28,0.28,0,0,1-.16-0.06c-0.77.26-1.91,0.7-2.77,1.09,0,0.24,0,.51,0,0.83s0,0.73,0,1.15l-0.55,0c0-.35,0-0.84,0-1.25,0-.2,0-0.39,0-0.54-1.24.6-2.29,1.33-2.29,2s0.74,0.95,2.22.95a22.51,22.51,0,0,0,2.52-.11v0.51c-0.62.06-1.53,0.08-2.52,0.08-1.93,0-2.74-.47-2.74-1.42s1.21-1.73,2.74-2.5a0.93,0.93,0,0,0-.83-1.06,3.5,3.5,0,0,0-2.47,1.46,14.88,14.88,0,0,1-1.12,1.09l-0.35-.36a7.17,7.17,0,0,0,2.58-3.85H441v-0.49h2.46c0.11-.47.21-0.91,0.29-1.47l0.78,0.11a0.22,0.22,0,0,1-.24.17,11.64,11.64,0,0,1-.27,1.18,13.67,13.67,0,0,0,3.58-.6l0.1,0.51a15,15,0,0,1-3.82.57,7.14,7.14,0,0,1-.79,1.87h0Z"/><path class="a" d="M369.16,179.35l0.81,0a0.25,0.25,0,0,1-.26.2c0,0.31,0,.92,0,1.42l3.29-.07v0.5c-0.9,0-2.1,0-3.28,0,0,0.19.05,1.86,0.09,2.2a4.91,4.91,0,0,1,.14,1.12,3.89,3.89,0,0,1-3,3.64,3.39,3.39,0,0,0-.35-0.41,3.68,3.68,0,0,0,2.75-2.54h0a1.39,1.39,0,0,1-1.2.63,1.65,1.65,0,0,1-1.64-1.71,1.76,1.76,0,0,1,1.77-1.86,1.41,1.41,0,0,1,1,.4s0-.12,0-0.15c0-.22,0-0.76,0-1.3-1.55,0-3.1.09-4.65,0.16v-0.5c0.66,0,3.91-.12,4.64-0.13Zm0.24,5.11c0-.14,0-0.21,0-0.58a1.14,1.14,0,0,0-1.11-.88A1.29,1.29,0,0,0,367,184.4a1.24,1.24,0,0,0,1.19,1.27A1.18,1.18,0,0,0,369.4,184.45Zm2.59-3.7a7.25,7.25,0,0,0-1.22-1.48l0.31-.22a7.16,7.16,0,0,1,1.24,1.47Zm1.44-.29a7.21,7.21,0,0,0-1.22-1.46l0.3-.23a7.86,7.86,0,0,1,1.24,1.45Z"/><path class="a" d="M376,181.19a0.3,0.3,0,0,1-.27.17,13.22,13.22,0,0,1-.4,3.12h0a7.09,7.09,0,0,1,3.81-1.3c1.56,0,2.49.77,2.47,2.14,0,1.83-1.58,2.61-5.4,2.76a4.81,4.81,0,0,0-.18-0.48c3.54-.16,5-0.76,5-2.26,0-1.06-.71-1.67-2-1.67a5.63,5.63,0,0,0-4,1.63l-0.51-.26a11.09,11.09,0,0,0,.56-3.95Zm0.3-1.89a16.67,16.67,0,0,1,3.88.91l-0.18.5a16.86,16.86,0,0,0-3.85-.93Z"/><path class="a" d="M389.73,179.45c0,0.1-.06.14-0.22,0.18,0,0.74.08,1.57,0.1,2.36l2.21-.35,0,0.51c-0.63.07-1.42,0.18-2.25,0.32,0,0.21,0,.42,0,0.62,0,1.35,0,2.56-1.15,2.56a3.78,3.78,0,0,1-1.57-.45c0-.13.09-0.3,0.12-0.45a3.37,3.37,0,0,0,1.38.42,0.63,0.63,0,0,0,.62-0.53,13.26,13.26,0,0,0,.08-2.09l-3.49.59c0,1,0,1.89.09,2.49,0.11,1.58.86,1.73,2.32,1.73a25.47,25.47,0,0,0,2.71-.15l0,0.52c-0.75.07-1.88,0.11-2.77,0.11-1.43,0-2.64-.11-2.8-2.17,0-.59-0.07-1.48-0.09-2.45l-2,.38-0.08-.5,2.08-.35,0-2.6,0.79,0.08a0.23,0.23,0,0,1-.25.18c0,0.65,0,1.46,0,2.25l3.48-.59c0-.86-0.07-1.82-0.13-2.68Z"/><path class="a" d="M393.83,187.77a9.74,9.74,0,0,1-.45-3.42,25.3,25.3,0,0,1,.56-4.72l0.76,0.16a0.24,0.24,0,0,1-.26.17,20.09,20.09,0,0,0-.56,4.39,10.51,10.51,0,0,0,.11,2c0.24-.68.68-1.69,0.9-2.19l0.38,0.27a13.94,13.94,0,0,0-1.07,2.77,1.33,1.33,0,0,0,.12.49Zm3.77-5.72c0.31,0,.75,0,1.06,0,0-.89-0.07-1.73-0.09-2.47l0.8,0a0.26,0.26,0,0,1-.26.21c0,0.64,0,1.39.06,2.19a8.26,8.26,0,0,0,2-.42l0.09,0.52a9.27,9.27,0,0,1-2.1.39c0,1.18.1,2.36,0.12,3a7.52,7.52,0,0,1,2.1,1.31l-0.3.46a6.11,6.11,0,0,0-1.78-1.21c0,0.91-.09,1.91-1.58,1.91-1.15,0-1.94-.52-1.94-1.39s1-1.41,1.93-1.41a4,4,0,0,1,1.07.16c0-.67-0.09-1.73-0.14-2.8-0.32,0-.77,0-1.07,0H396v-0.48h1.57Zm1.26,3.74a3.38,3.38,0,0,0-1.09-.2c-0.65,0-1.47.23-1.47,0.94s0.66,0.93,1.47.93,1.1-.38,1.1-1.3v-0.37Zm2-4.46a5.38,5.38,0,0,0-1.16-1.53l0.29-.22a6,6,0,0,1,1.2,1.54Zm1.11-.71a5.89,5.89,0,0,0-1.16-1.5l0.3-.23a6.17,6.17,0,0,1,1.18,1.53Z"/><path class="a" d="M406.43,185.36a0.2,0.2,0,0,1-.19.12c-0.27,1.44-.9,2.39-3.17,2.87a1.44,1.44,0,0,0-.28-0.43c2.12-.4,2.75-1.22,3-2.63Zm2.23,2.09c0,0.27.1,0.34,0.59,0.34H411c0.45,0,.53-0.2.57-1.49a1.13,1.13,0,0,0,.46.21c-0.07,1.41-.22,1.75-1,1.75h-1.82c-0.83,0-1.06-.15-1.06-0.81V185h-3.9v-5.53h6.29V185h-1.9v2.45Zm-3.92-7.54v1.25h5.33v-1.25h-5.33Zm0,1.68v1.26h5.33v-1.26h-5.33Zm0,1.68v1.29h5.33v-1.29h-5.33Z"/><path class="a" d="M413.09,181.92c0.21,0,.55-0.14,1-0.29a16.3,16.3,0,0,1,4.48-1,2.73,2.73,0,0,1,3,2.9c0,2.45-2.52,3.37-5.8,3.72a2.94,2.94,0,0,0-.18-0.5c3-.29,5.42-1.15,5.42-3.2a2.28,2.28,0,0,0-2.54-2.41,18,18,0,0,0-5,1.25,0.27,0.27,0,0,1-.16.21Z"/><path class="a" d="M426.54,179.56a0.27,0.27,0,0,1-.33.18c-0.12.59-.3,1.59-0.43,2.19,0.94-.09,1-0.1,1.26-0.1,1.44,0,1.95,1,1.95,2.41a7.71,7.71,0,0,1-.37,2.34A1.78,1.78,0,0,1,426.9,188a2.94,2.94,0,0,1-1.82-.9,1.89,1.89,0,0,0,.21-0.43,2.77,2.77,0,0,0,1.61.8,1.27,1.27,0,0,0,1.23-1,7.91,7.91,0,0,0,.35-2.19c0-1.17-.4-1.91-1.46-1.91a11.24,11.24,0,0,0-1.35.1,18.49,18.49,0,0,1-2.13,5.47l-0.48-.23a16.23,16.23,0,0,0,2.08-5.18c-0.56.07-1.3,0.15-1.87,0.24l0-.51c0.51-.07,1.34-0.16,2-0.23,0.16-.73.33-1.66,0.45-2.56Zm4.9,4.78a6.15,6.15,0,0,0-2.34-3.47l0.38-.32a6.29,6.29,0,0,1,2.47,3.58Z"/><path class="a" d="M435.32,183.54a6.48,6.48,0,0,1,2.68-.64,2.31,2.31,0,0,1,2.6,2.36c0,1.81-1.6,2.81-3.54,2.81-1.31,0-2.19-.5-2.19-1.34a1.45,1.45,0,0,1,1.6-1.29,2.14,2.14,0,0,1,2,1.89,2.15,2.15,0,0,0,1.57-2.06,1.9,1.9,0,0,0-2.17-1.9,5.93,5.93,0,0,0-3.74,1.34,13.61,13.61,0,0,0-1,1l-0.38-.38c1-1,3.94-3.88,5.3-5.16-0.6.09-2.7,0.16-4,.21a0.29,0.29,0,0,1-.19.15l-0.08-.67c1.38,0,3.88-.1,4.63-0.21l0.14-.07,0.45,0.51a0.54,0.54,0,0,1-.23.1c-0.77.64-2.78,2.55-3.55,3.29h0ZM437,187.6a4.08,4.08,0,0,0,1-.13,1.7,1.7,0,0,0-1.58-1.58,1,1,0,0,0-1.11.83C435.32,187.38,436.24,187.6,437,187.6Z"/><path class="a" d="M445.54,179.56a0.27,0.27,0,0,1-.33.18c-0.12.59-.3,1.59-0.43,2.19,0.94-.09,1-0.1,1.26-0.1,1.44,0,1.95,1,1.95,2.41a7.71,7.71,0,0,1-.37,2.34A1.78,1.78,0,0,1,445.9,188a2.94,2.94,0,0,1-1.82-.9,1.89,1.89,0,0,0,.21-0.43,2.77,2.77,0,0,0,1.61.8,1.27,1.27,0,0,0,1.23-1,7.91,7.91,0,0,0,.35-2.19c0-1.17-.4-1.91-1.46-1.91a11.24,11.24,0,0,0-1.35.1,18.49,18.49,0,0,1-2.13,5.47l-0.48-.23a16.23,16.23,0,0,0,2.08-5.18c-0.56.07-1.3,0.15-1.87,0.24l0-.51c0.51-.07,1.34-0.16,2-0.23,0.16-.73.33-1.66,0.45-2.56Zm4.9,4.78a6.15,6.15,0,0,0-2.34-3.47l0.38-.32a6.29,6.29,0,0,1,2.47,3.58Z"/><path class="a" d="M457.33,184.43c-0.65.07-1.61,0.13-2.49,0.13,0,0.49-.07.84-0.07,1,0,1.67,1,1.89,2.13,1.89,1.49,0,2.48-.4,2.48-1.45a3.26,3.26,0,0,0-.85-1.9,2.42,2.42,0,0,0,.46-0.21,3.6,3.6,0,0,1,.93,2.17c0,1.63-1.8,1.89-3,1.89-0.85,0-2.65,0-2.65-2.4l0.07-1a8.15,8.15,0,0,1-1.34-.13,1,1,0,0,1-.88-0.91,1.6,1.6,0,0,1,.87-1.25l0.37,0.26a1.33,1.33,0,0,0-.73.92c0,0.59.93,0.61,1.75,0.63,0.08-.72.18-1.58,0.28-2.41a7.2,7.2,0,0,1-2.16-.56l0.16-.48a6.59,6.59,0,0,0,2.06.56c0.08-.65.16-1.32,0.23-1.85l0.82,0.1a0.29,0.29,0,0,1-.31.18c-0.07.45-.15,1-0.22,1.62,0.33,0,.67,0,1,0s0.76,0,1.12,0l0,0.49c-0.32,0-.68,0-1,0s-0.79,0-1.16,0c-0.1.8-.2,1.64-0.28,2.37a19.91,19.91,0,0,0,2.43-.14Z"/><line class="e" x1="341" y1="128.33" x2="575.96" y2="128.33"/><path d="M582,128.33a30.22,30.22,0,0,0-8.55,4.76l1.72-4.76-1.72-4.75A30.2,30.2,0,0,0,582,128.33Z"/><line class="e" x1="341" y1="208.44" x2="341" y2="49.87"/><path d="M341,43.83a30.22,30.22,0,0,0,4.76,8.55L341,50.66l-4.75,1.72A30.2,30.2,0,0,0,341,43.83Z"/><path d="M362.94,52.39a0.5,0.5,0,0,1-.42.19,0.52,0.52,0,0,1-.38-0.15,0.47,0.47,0,0,1-.15-0.35,1.58,1.58,0,0,1,.13-0.47,0.2,0.2,0,0,0-.09-0.16,0.29,0.29,0,0,0-.19-0.06,1.23,1.23,0,0,0-.86,1.1,18,18,0,0,0-.43,2.14h1.52l-0.1.46h-1.56l-1.31,4.47A9.24,9.24,0,0,1,358,62.43a2.07,2.07,0,0,1-1.79,1.09,1.23,1.23,0,0,1-.82-0.27,0.77,0.77,0,0,1-.32-0.59,0.62,0.62,0,0,1,.13-0.38,0.47,0.47,0,0,1,.4-0.18,0.55,0.55,0,0,1,.39.15,0.51,0.51,0,0,1,.16.38,0.49,0.49,0,0,1-.07.25,0.48,0.48,0,0,0-.07.17,0.12,0.12,0,0,0,.08.1,0.43,0.43,0,0,0,.2,0,1.21,1.21,0,0,0,1-.92,6.86,6.86,0,0,0,.39-1.32l1.63-5.87H358l0.1-.46h1.32a8.49,8.49,0,0,1,.84-2.36A2,2,0,0,1,362,51.11a1.14,1.14,0,0,1,.77.27,0.79,0.79,0,0,1,.31.61A0.65,0.65,0,0,1,362.94,52.39Z"/><path d="M361.36,64.93a0.46,0.46,0,0,1,0-.08l0.77-2.78h-0.61a0.33,0.33,0,0,1,0-.13,0.16,0.16,0,0,1,.08-0.06,3.3,3.3,0,0,0,.63-0.33,3.85,3.85,0,0,0,.61-0.62l0.06-.08,0,0h0l0.06,0v0a0.25,0.25,0,0,1,0,0l-0.24.87h0.66l0,0.27h-0.69L362,64.74a0.19,0.19,0,0,0,0,.14,0.11,0.11,0,0,0,.11.07,0.51,0.51,0,0,0,.29-0.21q0.11-.11.36-0.44l0.1,0.06-0.06.08a3.08,3.08,0,0,1-.6.72,0.83,0.83,0,0,1-.5.2,0.34,0.34,0,0,1-.39-0.35A0.71,0.71,0,0,1,361.36,64.93Z"/><path d="M367.43,52.91a7,7,0,0,1,2.06-1.77l0.13,0.23a6.24,6.24,0,0,0-1.57,1.7,7.7,7.7,0,0,0-.83,3.84,11.4,11.4,0,0,0,.31,2.93,5.06,5.06,0,0,0,2.08,3l-0.18.23a5.83,5.83,0,0,1-1.82-1.58A6.74,6.74,0,0,1,366,57.09,6.54,6.54,0,0,1,367.43,52.91Z"/><path d="M370.56,60a0.93,0.93,0,0,1,0-.15l1.32-4.77h-1a0.6,0.6,0,0,1,0-.23,0.29,0.29,0,0,1,.14-0.1,5.62,5.62,0,0,0,1.08-.57,6.67,6.67,0,0,0,1-1.06l0.11-.13,0.05,0,0.06,0,0.1,0a0.31,0.31,0,0,1,0,.09,0.31,0.31,0,0,1,0,.08l-0.4,1.49h1.13l-0.08.47H373l-1.26,4.59a0.32,0.32,0,0,0,0,.24,0.19,0.19,0,0,0,.18.11,0.87,0.87,0,0,0,.5-0.36q0.19-.19.62-0.76L373.2,59l-0.1.14a5.28,5.28,0,0,1-1,1.23,1.42,1.42,0,0,1-.85.35,0.63,0.63,0,0,1-.51-0.18,0.62,0.62,0,0,1-.16-0.42S370.55,60.07,370.56,60Z"/><path d="M377.64,59.09a6.65,6.65,0,0,1-2.22,3.32,5.46,5.46,0,0,1-1,.69l-0.13-.23a5.78,5.78,0,0,0,1.54-1.63,7.7,7.7,0,0,0,.86-3.9,10.77,10.77,0,0,0-.4-3.21,5.14,5.14,0,0,0-2-2.76l0.18-.23a6.65,6.65,0,0,1,2,1.82,6.75,6.75,0,0,1,1.43,4.2A6.82,6.82,0,0,1,377.64,59.09Z"/><path class="f" d="M341,76c19.83,0,71.18-1.57,77.33,52.3,4.67,40.86,10,5.2,17-16.47,8.47-26.2,58.5,66.17,90,66.17h32"/><path class="g" d="M405.88,96.74c6.28,7.5,10.87,17.7,12.46,31.59C419.5,138.55,420.71,144,422,146"/><path class="f" d="M525.33,178h32"/></svg>