<svg xmlns="http://www.w3.org/2000/svg" viewBox="0 0 623.33 249.33"><defs><style>.a{fill:#bddef5;}.b{fill:#f5d7bd;}.c{fill:#999;}.d,.k{fill:#fff;}.d,.e,.f,.i{stroke:#000;}.d,.e,.f,.g,.i,.j,.k{stroke-miterlimit:10;}.e,.f,.g,.i,.j{fill:none;}.f{stroke-dasharray:1 2;}.g{stroke:#666;stroke-width:0.75px;}.h{fill:#666;}.i{stroke-linecap:square;}.j,.k{stroke:#c1272d;}.l{fill:#c1272d;}</style></defs><title>figures</title><path class="a" d="M541.4,128.34a416.28,416.28,0,0,0,40.6-53v53H541.4"/><path class="a" d="M398,128.34a424.52,424.52,0,0,1-41.32-53v53H398Z"/><path class="b" d="M398,128.34H541.4c-21.11,23.1-47.45,45-71.4,45s-50.59-21.9-72-45"/><ellipse class="c" cx="187.38" cy="194.44" rx="84" ry="14"/><circle class="d" cx="187.38" cy="115.53" r="84"/><line class="e" x1="180.88" y1="130.74" x2="281.67" y2="168.13"/><path d="M287.33,170.22a30.22,30.22,0,0,0-9.67,1.49l3.27-3.86,0-5.06A30.2,30.2,0,0,0,287.33,170.22Z"/><line class="f" x1="103.63" y1="102.08" x2="180.88" y2="130.74"/><line class="e" x1="63.74" y1="87.29" x2="103.63" y2="102.08"/><path class="c" d="M73.34,106.1l-36-16.38a7.32,7.32,0,0,1-3.9-6.16V58.48c0-2.42,1.75-3.59,3.9-2.61l36,16.38a7.32,7.32,0,0,1,3.9,6.16v25.07C77.24,105.9,75.49,107.07,73.34,106.1Z"/><path class="c" d="M53,52.38c0-6.28-4.52-13.42-10.1-16s-10.1.5-10.1,6.77,4.52,13.42,10.1,16S53,58.66,53,52.38Z"/><path class="c" d="M79.93,60.46c0-8.59-6.18-18.36-13.81-21.83s-13.81.68-13.81,9.27,6.18,18.36,13.81,21.83S79.93,69,79.93,60.46Z"/><polygon class="c" points="64.56 85.18 89.44 80.33 89.44 112.66 64.56 85.18"/><line class="g" x1="76" y1="116.41" x2="83.3" y2="104.52"/><path class="h" d="M85.67,100.67a22.67,22.67,0,0,0-.32,7.33L83,105l-3.71-.77A22.65,22.65,0,0,0,85.67,100.67Z"/><path class="h" d="M63.67,126.44H62.09V130a0.78,0.78,0,0,0,.2.58,0.76,0.76,0,0,0,.56.2,1.7,1.7,0,0,0,.41-0.05,2.6,2.6,0,0,0,.4-0.14l0.06,0.65-0.47.13a2.14,2.14,0,0,1-.47.06,1.74,1.74,0,0,1-.66-0.11,1.16,1.16,0,0,1-.44-0.31,1.21,1.21,0,0,1-.25-0.45,1.93,1.93,0,0,1-.08-0.56v-3.61h-1.2v-0.65h1.2v-1.6h0.72v1.6h1.58v0.65Z"/><path class="h" d="M68.05,126.55h6.12v0.58H68.05v-0.58Zm0,1.73h6.12v0.58H68.05v-0.58Z"/><path class="h" d="M78.54,127.09q0-.46,0-1a6.83,6.83,0,0,1,.16-1A5,5,0,0,1,79,124.2a2.88,2.88,0,0,1,.51-0.77,2.33,2.33,0,0,1,.75-0.53,2.83,2.83,0,0,1,2.08,0,2.34,2.34,0,0,1,.75.53,2.88,2.88,0,0,1,.51.77,5,5,0,0,1,.31.92,6.83,6.83,0,0,1,.16,1q0,0.51,0,1c0,0.31,0,.64,0,1a6.83,6.83,0,0,1-.16,1,5,5,0,0,1-.31.92,2.86,2.86,0,0,1-.51.77,2.32,2.32,0,0,1-.75.53,2.83,2.83,0,0,1-2.08,0,2.31,2.31,0,0,1-.75-0.53A2.86,2.86,0,0,1,79,130a5,5,0,0,1-.31-0.92,6.83,6.83,0,0,1-.16-1C78.55,127.72,78.54,127.4,78.54,127.09Zm0.79,0q0,0.34,0,.74a7.23,7.23,0,0,0,.1.82,5.09,5.09,0,0,0,.21.81,2.7,2.7,0,0,0,.36.7,1.72,1.72,0,0,0,.55.49,1.71,1.71,0,0,0,1.55,0,1.7,1.7,0,0,0,.55-0.49,2.72,2.72,0,0,0,.36-0.7,5.2,5.2,0,0,0,.21-0.81,7.35,7.35,0,0,0,.1-0.82q0-.4,0-0.74t0-.73a7.34,7.34,0,0,0-.1-0.82,5.2,5.2,0,0,0-.21-0.81,2.72,2.72,0,0,0-.36-0.7,1.72,1.72,0,0,0-.55-0.49,1.7,1.7,0,0,0-1.55,0A1.72,1.72,0,0,0,80,124a2.7,2.7,0,0,0-.36.7,5.09,5.09,0,0,0-.21.81,7.23,7.23,0,0,0-.1.82Q79.33,126.76,79.33,127.09Z"/><line class="g" x1="388.32" y1="151.24" x2="395.62" y2="139.36"/><path class="h" d="M398,135.5a22.67,22.67,0,0,0-.32,7.33l-2.36-3-3.71-.77A22.65,22.65,0,0,0,398,135.5Z"/><path class="h" d="M377.92,161.93a17.93,17.93,0,0,1-3.07.24A9.81,9.81,0,0,1,373,162a1.86,1.86,0,0,1-1.69-1.86,3.23,3.23,0,0,1,1-2.14l0.42,0.24a2.89,2.89,0,0,0-.93,1.9,1.45,1.45,0,0,0,1.33,1.38,8.45,8.45,0,0,0,1.66.12,17,17,0,0,0,3.11-.27Zm-4.36-5a12.88,12.88,0,0,1,1.95-1.26h0c-0.85.1-2.71,0.13-3.9,0.13v-0.51c1.1,0,3.08,0,4-.1a11.06,11.06,0,0,0,1.66-.23l0.09,0.53a8.82,8.82,0,0,0-3.4,1.75Z"/><path class="h" d="M381.52,154.07l0.82,0.08a0.24,0.24,0,0,1-.27.19c0,0.45-.09,1.12-0.09,1.49l0.26,0.1a4.19,4.19,0,0,0-.34,1.49,6,6,0,0,1,3.28-1.87c0.91,0,1.34.64,1.34,1.77,0,0.13,0,.27,0,0.41-0.07.9-.18,2.22-0.18,3.07,0,0.63.09,1,.55,1a2.73,2.73,0,0,0,1.36-.67,3.34,3.34,0,0,0,.13.54,3,3,0,0,1-1.56.66c-0.76,0-1-.46-1-1.43,0-.54.18-3.29,0.18-3.41,0-.95-0.32-1.39-0.86-1.39-0.81,0-2.17.89-3.23,2v4.67h-0.51c0-.62,0-3.65,0-4.34a11.7,11.7,0,0,1-1.91,2.6l-0.29-.44a10.25,10.25,0,0,0,2.21-3.15c0-.33,0-0.6,0-1a10.05,10.05,0,0,1-1.88.17v-0.52a8.56,8.56,0,0,0,1.91-.17c0-.43,0-0.74,0-1Z"/><path class="h" d="M392.85,154.22a0.27,0.27,0,0,1-.33.18c-0.12.59-.3,1.59-0.43,2.19,0.94-.09,1-0.1,1.26-0.1,1.44,0,1.95,1,1.95,2.41a7.71,7.71,0,0,1-.37,2.34,1.78,1.78,0,0,1-1.72,1.41,2.94,2.94,0,0,1-1.82-.9,1.93,1.93,0,0,0,.21-0.43,2.77,2.77,0,0,0,1.61.8,1.27,1.27,0,0,0,1.23-1,7.88,7.88,0,0,0,.35-2.19c0-1.17-.4-1.91-1.46-1.91a11.23,11.23,0,0,0-1.35.1,18.54,18.54,0,0,1-2.13,5.47l-0.48-.23a16.21,16.21,0,0,0,2.08-5.18c-0.56.07-1.3,0.15-1.87,0.24l0-.51c0.51-.07,1.34-0.16,2-0.23,0.16-.73.33-1.66,0.45-2.56Zm2.44-.29a6.83,6.83,0,0,1,1.4,1.4l-0.31.24a7,7,0,0,0-1.37-1.4Zm2.37,5.82a6.41,6.41,0,0,0-2.17-3.45l0.41-.29a6.54,6.54,0,0,1,2.28,3.54Zm-0.87-6.22a7.12,7.12,0,0,1,1.4,1.41l-0.31.23a7.56,7.56,0,0,0-1.37-1.4Z"/><path class="h" d="M370.69,173.56c0.86-.45,2.19-1.2,3.45-1.92l0.15,0.43c-1.15.68-2.38,1.4-3.16,1.83a0.19,0.19,0,0,1-.08.18Zm4.86-5.52a9.8,9.8,0,0,0,1.19,2.71,16.58,16.58,0,0,0,2.06-2.16l0.52,0.38a0.23,0.23,0,0,1-.2,0,22.54,22.54,0,0,1-2.15,2.09,7.12,7.12,0,0,0,3,2.69,2.86,2.86,0,0,0-.35.41,8.88,8.88,0,0,1-4.12-4.89v4.91a0.58,0.58,0,0,1-.42.69,7.91,7.91,0,0,1-1.77.1,2.4,2.4,0,0,0-.19-0.52H374c1,0,1,0,1-.27V168h-4.12v-0.48h4.12v-1.78l0.67,0.05c0,0.07-.06.1-0.18,0.12v1.61h4.19V168h-4.19Zm-3.6.76a9.16,9.16,0,0,1,1.72,1.9l-0.39.28a9.1,9.1,0,0,0-1.7-1.94Zm5-3a13.93,13.93,0,0,1,1.88,1.19l-0.31.36a11.88,11.88,0,0,0-1.87-1.24Z"/><path class="h" d="M387.47,166.13a0.27,0.27,0,0,1-.27.16,17.38,17.38,0,0,1-.4,2,3.11,3.11,0,0,1,2.83,3.13c0,1.77-1.39,2.91-3.95,3.26a4.81,4.81,0,0,0-.22-0.45c2.33-.3,3.64-1.29,3.64-2.8a2.66,2.66,0,0,0-2.45-2.66,10.06,10.06,0,0,1-1.9,3.76,4.38,4.38,0,0,0,.5.55l-0.38.35a4.73,4.73,0,0,1-.46-0.53,3,3,0,0,1-2,1c-0.82,0-1.34-.72-1.34-1.81a3.62,3.62,0,0,1,1.79-3c-0.19-.76-0.35-1.61-0.5-2.53l0.77,0a0.24,0.24,0,0,1-.21.22c0.11,0.74.23,1.44,0.38,2.1a5.79,5.79,0,0,1,2.56-.61h0.46a20.11,20.11,0,0,0,.42-2.21Zm-3.34,6.34a11.18,11.18,0,0,1-1.19-3,3.08,3.08,0,0,0-1.43,2.49c0,0.78.29,1.35,0.87,1.35A2.56,2.56,0,0,0,384.14,172.47Zm0.33-.4a9,9,0,0,0,1.68-3.41h-0.34a5.08,5.08,0,0,0-2.43.6A10.44,10.44,0,0,0,384.47,172.07Z"/><path class="h" d="M394.3,166a0.32,0.32,0,0,1-.3.19c-0.07.47-.16,1-0.26,1.67a11.54,11.54,0,0,0,3-.58l0.14,0.5a12.62,12.62,0,0,1-3.2.6,24.72,24.72,0,0,1-1.86,6.32l-0.51-.2a22.09,22.09,0,0,0,1.83-6.1H391.2v-0.51h2c0.1-.66.2-1.37,0.28-2Zm5.2,8.54-0.86,0a10,10,0,0,1-2.48-.24,1.34,1.34,0,0,1-1-1.32,2.32,2.32,0,0,1,.62-1.45l0.42,0.22a2,2,0,0,0-.54,1.19c0,0.82.77,1.1,2.78,1.1,0.36,0,.72,0,1.09,0v0.52Zm-0.28-4.76a11,11,0,0,0-3.52.47l-0.14-.45a12.2,12.2,0,0,1,3.66-.52v0.5Z"/><path class="h" d="M402.19,167.08a0.28,0.28,0,0,1-.28.17,16.24,16.24,0,0,0-.16,2.36c0,0.42,0,.83,0,1.19,0.13,1.82.89,2.89,1.72,2.89,0.42,0,1-1,1.38-2.25a2.44,2.44,0,0,0,.44.29c-0.49,1.36-1.07,2.49-1.83,2.5-1.17,0-2.08-1.39-2.23-3.39,0-.4,0-0.86,0-1.34a24.22,24.22,0,0,1,.14-2.58Zm7,4.59a5.07,5.07,0,0,0-2.57-3.81l0.31-.4a5.47,5.47,0,0,1,2.8,4.06Z"/><path class="h" d="M414.84,168.33v6.06a0.47,0.47,0,0,1-.3.53,5.47,5.47,0,0,1-1.38.08,1.53,1.53,0,0,0-.17-0.43h1.21c0.16,0,.2-0.05.2-0.2V172.3h-2.6A6.08,6.08,0,0,1,411,175a1.78,1.78,0,0,0-.37-0.23,7.24,7.24,0,0,0,.76-3.76V168.8a4.65,4.65,0,0,1-.41.53,3.57,3.57,0,0,0-.37-0.28,8.56,8.56,0,0,0,1.64-3.3l0.61,0.17a0.19,0.19,0,0,1-.2.1c-0.06.21-.13,0.42-0.2,0.63h1.41l0.08,0,0.35,0.24-0.11.06a11.3,11.3,0,0,1-.69,1.4h1.32Zm-1.8,0a7.55,7.55,0,0,0,.59-1.25h-1.32a9.06,9.06,0,0,1-.6,1.25H413Zm-1.19,2.17V171c0,0.26,0,.54,0,0.83h1.08V170.5h-1.06Zm0-1.75v1.33h1.06v-1.33h-1.06Zm1.46,0v1.33h1.09v-1.33h-1.09Zm0,3.13h1.09V170.5h-1.09v1.38Zm6.39-5.58s0,0.11,0,.17c-0.1,1.72-.19,2.33-0.4,2.56a0.86,0.86,0,0,1-.73.2l-0.86,0a1.36,1.36,0,0,0-.13-0.43c0.46,0,.89,0,1,0a0.36,0.36,0,0,0,.3-0.08,4.71,4.71,0,0,0,.3-2h-1.9a3.53,3.53,0,0,1-2,2.86,1.36,1.36,0,0,0-.31-0.33,3.16,3.16,0,0,0,1.86-2.53h-1.53v-0.44h4.13Zm0.26,6.3V173H417.8V175h-0.47V173h-2.22V172.6h2.22v-1.46h-1.27a4.4,4.4,0,0,1-.54,1,3.35,3.35,0,0,0-.37-0.24,6.14,6.14,0,0,0,.89-2.34l0.59,0.16a0.16,0.16,0,0,1-.18.08c-0.06.28-.14,0.57-0.23,0.85h1.11v-1.28l0.64,0.05a0.17,0.17,0,0,1-.17.12v1.11h1.76v0.45H417.8v1.46H420Z"/><line class="g" x1="286.95" y1="145.37" x2="279.65" y2="157.26"/><path class="h" d="M277.28,161.12a22.67,22.67,0,0,0,.32-7.33l2.36,3,3.71,0.77A22.65,22.65,0,0,0,277.28,161.12Z"/><path class="h" d="M284.67,134.71h-1.58v3.61a0.78,0.78,0,0,0,.2.58,0.76,0.76,0,0,0,.56.2,1.7,1.7,0,0,0,.41-0.05,2.6,2.6,0,0,0,.4-0.14l0.06,0.65-0.47.13a2.14,2.14,0,0,1-.47.06,1.74,1.74,0,0,1-.66-0.11,1.16,1.16,0,0,1-.44-0.31,1.21,1.21,0,0,1-.25-0.45,1.93,1.93,0,0,1-.08-0.56v-3.61h-1.2v-0.65h1.2v-1.6h0.72v1.6h1.58v0.65Z"/><path class="h" d="M289,134.82h6.12v0.58H289v-0.58Zm0,1.73h6.12v0.58H289v-0.58Z"/><path class="h" d="M302.36,132.12h0l-1.54,1.26-0.44-.55,2.1-1.72h0.61v8.5h-0.72v-7.49Z"/><line class="i" x1="356.67" y1="128.33" x2="591.63" y2="128.33"/><path d="M597.67,128.33a30.22,30.22,0,0,0-8.55,4.76l1.72-4.76-1.72-4.75A30.2,30.2,0,0,0,597.67,128.33Z"/><line class="i" x1="356.67" y1="208.44" x2="356.67" y2="49.87"/><path d="M356.67,43.83a30.22,30.22,0,0,0,4.76,8.55l-4.76-1.72-4.75,1.72A30.2,30.2,0,0,0,356.67,43.83Z"/><path d="M577.19,143.42a0.93,0.93,0,0,1,0-.15l1.32-4.77h-1a0.6,0.6,0,0,1,0-.23,0.29,0.29,0,0,1,.14-0.1,5.62,5.62,0,0,0,1.08-.57,6.67,6.67,0,0,0,1-1.06l0.11-.13,0.05,0,0.06,0,0.1,0a0.31,0.31,0,0,1,0,.09,0.31,0.31,0,0,1,0,.08l-0.4,1.49h1.13l-0.08.47h-1.18l-1.26,4.59a0.32,0.32,0,0,0,0,.24,0.19,0.19,0,0,0,.18.11,0.87,0.87,0,0,0,.5-0.36q0.19-.19.62-0.76l0.18,0.1-0.1.14a5.28,5.28,0,0,1-1,1.23,1.42,1.42,0,0,1-.85.35,0.63,0.63,0,0,1-.51-0.18,0.62,0.62,0,0,1-.16-0.42S577.19,143.47,577.19,143.42Z"/><path d="M383.11,81.89a0.5,0.5,0,0,1-.42.19,0.52,0.52,0,0,1-.38-0.15,0.47,0.47,0,0,1-.15-0.35,1.58,1.58,0,0,1,.13-0.47A0.2,0.2,0,0,0,382.2,81,0.29,0.29,0,0,0,382,80.9a1.23,1.23,0,0,0-.86,1.1,18,18,0,0,0-.43,2.14h1.52l-0.1.46h-1.56l-1.31,4.47a9.24,9.24,0,0,1-1.11,2.86A2.07,2.07,0,0,1,376.39,93a1.23,1.23,0,0,1-.82-0.27,0.77,0.77,0,0,1-.32-0.59,0.62,0.62,0,0,1,.13-0.38,0.47,0.47,0,0,1,.4-0.18,0.55,0.55,0,0,1,.39.15,0.51,0.51,0,0,1,.16.38,0.49,0.49,0,0,1-.07.25,0.48,0.48,0,0,0-.07.17,0.12,0.12,0,0,0,.08.1,0.43,0.43,0,0,0,.2,0,1.21,1.21,0,0,0,1-.92,6.86,6.86,0,0,0,.39-1.32l1.63-5.87h-1.26l0.1-.46h1.32a8.49,8.49,0,0,1,.84-2.36,2,2,0,0,1,1.71-1.18,1.14,1.14,0,0,1,.77.27,0.79,0.79,0,0,1,.31.61A0.65,0.65,0,0,1,383.11,81.89Z"/><path d="M381.53,94.43a0.46,0.46,0,0,1,0-.08l0.77-2.78h-0.61a0.33,0.33,0,0,1,0-.13,0.16,0.16,0,0,1,.08-0.06,3.3,3.3,0,0,0,.63-0.33,3.85,3.85,0,0,0,.61-0.62l0.06-.08,0,0h0l0.06,0v0a0.25,0.25,0,0,1,0,0l-0.24.87h0.66l0,0.27h-0.69l-0.73,2.68a0.19,0.19,0,0,0,0,.14,0.11,0.11,0,0,0,.11.07,0.51,0.51,0,0,0,.29-0.21q0.11-.11.36-0.44l0.1,0.06-0.06.08a3.08,3.08,0,0,1-.6.72,0.83,0.83,0,0,1-.5.2,0.34,0.34,0,0,1-.39-0.35A0.71,0.71,0,0,1,381.53,94.43Z"/><path d="M387.6,82.41a7,7,0,0,1,2.06-1.77l0.13,0.23a6.24,6.24,0,0,0-1.57,1.7,7.7,7.7,0,0,0-.83,3.84,11.4,11.4,0,0,0,.31,2.93,5.06,5.06,0,0,0,2.08,3l-0.18.23A5.83,5.83,0,0,1,387.79,91a6.74,6.74,0,0,1-1.62-4.43A6.54,6.54,0,0,1,387.6,82.41Z"/><path d="M390.72,89.53a0.93,0.93,0,0,1,0-.15l1.32-4.77h-1a0.6,0.6,0,0,1,0-.23,0.29,0.29,0,0,1,.14-0.1,5.62,5.62,0,0,0,1.08-.57,6.67,6.67,0,0,0,1-1.06l0.11-.13,0.05,0,0.06,0,0.1,0a0.31,0.31,0,0,1,0,.09,0.31,0.31,0,0,1,0,.08l-0.4,1.49h1.13l-0.08.47h-1.18l-1.26,4.59a0.32,0.32,0,0,0,0,.24,0.19,0.19,0,0,0,.18.11,0.87,0.87,0,0,0,.5-0.36q0.19-.19.62-0.76l0.18,0.1-0.1.14a5.28,5.28,0,0,1-1,1.23,1.42,1.42,0,0,1-.85.35,0.63,0.63,0,0,1-.51-0.18,0.62,0.62,0,0,1-.16-0.42S390.72,89.57,390.72,89.53Z"/><path d="M397.8,88.59a6.65,6.65,0,0,1-2.22,3.32,5.46,5.46,0,0,1-1,.69l-0.13-.23A5.78,5.78,0,0,0,396,90.74a7.7,7.7,0,0,0,.86-3.9,10.77,10.77,0,0,0-.4-3.21,5.14,5.14,0,0,0-2-2.76l0.18-.23a6.65,6.65,0,0,1,2,1.82,6.75,6.75,0,0,1,1.43,4.2A6.82,6.82,0,0,1,397.8,88.59Z"/><path class="e" d="M356.67,75.33s62.67,98,113.33,98,112-98,112-98"/><circle class="j" cx="109.3" cy="104.18" r="3.29"/><circle class="k" cx="398.55" cy="128.33" r="3.29"/><circle class="l" cx="180.68" cy="130.66" r="3.29"/><circle class="l" cx="541.83" cy="128.33" r="3.29"/><path d="M442.38,93.06l0.05,0.54-2,.44v4.52h-0.62V94.18l-2,.43a0.22,0.22,0,0,1-.16.18L437.43,94l2.42-.45V90H438.4a11.59,11.59,0,0,1-.5,2.1c-0.13-.08-0.35-0.19-0.49-0.26a20.86,20.86,0,0,0,.76-4.56L439,87.48a0.22,0.22,0,0,1-.25.14c-0.05.58-.13,1.2-0.22,1.8h1.36V86.61l0.84,0.06a0.21,0.21,0,0,1-.22.16v2.59h1.8V90h-1.8v3.42Zm6.32-3.86,0.35,0,0,0.23c-0.26,6.14-.48,8.11-1,8.71a1.28,1.28,0,0,1-1.26.43c-0.3,0-.67,0-1,0a1.57,1.57,0,0,0-.18-0.63C446.19,98,446.76,98,447,98a0.52,0.52,0,0,0,.49-0.21c0.4-.47.66-2.45,0.91-8h-1.22c-0.41,3.26-1.35,7-2.79,8.78a3.34,3.34,0,0,0-.56-0.32c1.45-1.71,2.38-5.27,2.8-8.46h-1.35c-0.49,2.73-1.54,5.91-2.89,7.51a2,2,0,0,0-.57-0.32c1.33-1.5,2.38-4.51,2.89-7.19h-1.23a11.48,11.48,0,0,1-1.33,2.94,4.82,4.82,0,0,0-.49-0.36,15.08,15.08,0,0,0,2-5.82l0.82,0.18a0.2,0.2,0,0,1-.25.13,22.74,22.74,0,0,1-.53,2.33h5.05Z"/><path d="M452.17,90.84a16.12,16.12,0,0,1-1.72,2.41,3.72,3.72,0,0,0-.36-0.56,17.57,17.57,0,0,0,3.33-6l0.8,0.27a0.29,0.29,0,0,1-.27.12,23.24,23.24,0,0,1-1.21,2.73L453,89.9a0.2,0.2,0,0,1-.22.14v8.58h-0.62V90.84Zm10.12-.6H458.7a12.37,12.37,0,0,0,3.78,5.62,2.55,2.55,0,0,0-.48.5,13.87,13.87,0,0,1-3.83-6v5h2.23V96h-2.23v2.66h-0.62V96h-2.29v-0.6h2.29v-5a14.77,14.77,0,0,1-3.89,6,2,2,0,0,0-.47-0.48A13.22,13.22,0,0,0,457,90.24H453.6V89.63h4v-2.9l0.84,0.06a0.22,0.22,0,0,1-.22.16v2.68h4.12v0.61Z"/><path d="M469.94,88.72a0.28,0.28,0,0,1-.3.19c-0.44,3.9-1.81,7.73-3.92,7.73-1,0-2-1.06-2-3a5.66,5.66,0,0,1,5.8-5.7c3.77,0,5.29,2.45,5.29,4.87,0,3.1-1.85,4.55-4.94,5.23-0.08-.14-0.26-0.41-0.39-0.6,3-.57,4.64-2,4.64-4.61,0-2.15-1.33-4.27-4.6-4.27h-0.3Zm-1-.16a5,5,0,0,0-4.57,5c0,1.49.67,2.4,1.32,2.4C467.4,96,468.62,92.3,469,88.57Z"/><path d="M485.37,86.69a0.21,0.21,0,0,1-.22.16v5.79a11.94,11.94,0,0,0,3.15,2.22,2.18,2.18,0,0,0-.45.52,12.75,12.75,0,0,1-2.69-1.94v5.14h-0.65V92.8a14.72,14.72,0,0,1-2.23-2.91c-0.79,4.34-2.63,7.14-5,8.65a2.54,2.54,0,0,0-.51-0.47,9.5,9.5,0,0,0,3.51-4,12.56,12.56,0,0,0-2.4-1.74l0.36-.44a13.71,13.71,0,0,1,2.32,1.58,17.06,17.06,0,0,0,1.17-4.21h-3a11.86,11.86,0,0,1-2,3.67,2.92,2.92,0,0,0-.47-0.43,13.58,13.58,0,0,0,2.59-5.93l0.83,0.19a0.24,0.24,0,0,1-.26.14c-0.14.6-.3,1.18-0.48,1.75h3l0.13,0,0.4,0.18a0.16,0.16,0,0,1-.1.12c0,0.29-.08.56-0.13,0.83l0.45-.18A12.38,12.38,0,0,0,484.51,92V86.63Z"/><path d="M490.85,90.86a17.27,17.27,0,0,1-1.53,2.4,3.75,3.75,0,0,0-.34-0.58,18.31,18.31,0,0,0,2.94-6l0.79,0.26a0.24,0.24,0,0,1-.27.12,24.25,24.25,0,0,1-1,2.64l0.27,0.08a0.24,0.24,0,0,1-.23.13V98.6h-0.61V90.86Zm3.68,5.25a0.31,0.31,0,0,1-.25.12,7.68,7.68,0,0,1-1.63,2.25,3.68,3.68,0,0,0-.48-0.39,7,7,0,0,0,1.66-2.24Zm2.25-8.73v8.06H493V87.38h3.76Zm-0.6,2.5V87.95H493.6v1.93h2.59Zm0,2.49V90.42H493.6v1.94h2.59Zm0,2.51v-2H493.6v2h2.59Zm0.41,3.34a12.77,12.77,0,0,0-1.18-2.14l0.48-.26a15,15,0,0,1,1.22,2.09ZM498.84,88a0.22,0.22,0,0,1-.22.16v7.5H498V87.89Zm1.43-1.2,0.83,0.06a0.21,0.21,0,0,1-.22.16V97.73c0,0.85-.49.88-2.18,0.88a2.1,2.1,0,0,0-.22-0.62H500a0.21,0.21,0,0,0,.26-0.26v-11Z"/><path d="M442.38,193.73l0.05,0.54-2,.44v4.52h-0.62v-4.39l-2,.43a0.22,0.22,0,0,1-.16.18l-0.29-.76,2.42-.45V190.7H438.4a11.6,11.6,0,0,1-.5,2.1l-0.49-.26a20.85,20.85,0,0,0,.76-4.56l0.79,0.17a0.22,0.22,0,0,1-.25.14c-0.05.58-.13,1.21-0.22,1.8h1.36v-2.81l0.84,0.07a0.21,0.21,0,0,1-.22.16v2.59h1.8v0.61h-1.8v3.42Zm6.32-3.86,0.35,0,0,0.23c-0.26,6.14-.48,8.11-1,8.71a1.28,1.28,0,0,1-1.26.43c-0.3,0-.67,0-1,0a1.57,1.57,0,0,0-.18-0.63c0.63,0.05,1.21.06,1.44,0.06a0.52,0.52,0,0,0,.49-0.21c0.4-.47.66-2.45,0.91-8h-1.22c-0.41,3.26-1.35,7-2.79,8.78a3.37,3.37,0,0,0-.56-0.32c1.45-1.71,2.38-5.27,2.8-8.46h-1.35c-0.49,2.73-1.54,5.91-2.89,7.51a2.07,2.07,0,0,0-.57-0.32c1.33-1.5,2.38-4.51,2.89-7.19h-1.23a11.46,11.46,0,0,1-1.33,2.94,4.82,4.82,0,0,0-.49-0.36,15.09,15.09,0,0,0,2-5.82l0.82,0.18a0.2,0.2,0,0,1-.25.13,22.8,22.8,0,0,1-.53,2.33h5.05Z"/><path d="M452.17,191.5a16.12,16.12,0,0,1-1.72,2.41,3.71,3.71,0,0,0-.36-0.56,17.57,17.57,0,0,0,3.33-6l0.8,0.27a0.29,0.29,0,0,1-.27.12,23.24,23.24,0,0,1-1.21,2.73l0.27,0.08a0.2,0.2,0,0,1-.22.14v8.58h-0.62V191.5Zm10.12-.6H458.7a12.37,12.37,0,0,0,3.78,5.62,2.57,2.57,0,0,0-.48.5,13.86,13.86,0,0,1-3.83-6v5h2.23v0.6h-2.23v2.66h-0.62v-2.66h-2.29V196h2.29v-5a14.77,14.77,0,0,1-3.89,6,2,2,0,0,0-.47-0.48,13.21,13.21,0,0,0,3.85-5.69H453.6V190.3h4v-2.9l0.84,0.06a0.22,0.22,0,0,1-.22.16v2.68h4.12v0.61Z"/><path d="M469.94,189.39a0.28,0.28,0,0,1-.3.19c-0.44,3.9-1.81,7.73-3.92,7.73-1,0-2-1.06-2-3a5.66,5.66,0,0,1,5.8-5.7c3.77,0,5.29,2.45,5.29,4.87,0,3.1-1.85,4.55-4.94,5.23-0.08-.14-0.26-0.41-0.39-0.6,3-.57,4.64-2,4.64-4.61,0-2.15-1.33-4.27-4.6-4.27h-0.3Zm-1-.16a5,5,0,0,0-4.57,5c0,1.49.67,2.4,1.32,2.4C467.4,196.66,468.62,193,469,189.23Z"/><path d="M487.51,189.56v8.72a0.72,0.72,0,0,1-.52.87,11.79,11.79,0,0,1-2.4.12,2.73,2.73,0,0,0-.25-0.66h1.21c0.48,0,.85,0,1,0a0.26,0.26,0,0,0,.32-0.32v-8.1h-4.35a9,9,0,0,1-.25,1.79,42,42,0,0,1,4,3.9l-0.51.42a35.08,35.08,0,0,0-3.63-3.71,7.27,7.27,0,0,1-3.47,3.89,3,3,0,0,0-.44-0.47,6.38,6.38,0,0,0,3.69-5.82h-4.17v9.09h-0.63v-9.72h4.82v-2.29l0.87,0.05a0.21,0.21,0,0,1-.22.16v2.09h5Z"/><path d="M490.85,191.53a17.25,17.25,0,0,1-1.53,2.4,3.72,3.72,0,0,0-.34-0.58,18.32,18.32,0,0,0,2.94-6l0.79,0.26a0.24,0.24,0,0,1-.27.12,24.29,24.29,0,0,1-1,2.64l0.27,0.08a0.24,0.24,0,0,1-.23.13v8.68h-0.61v-7.73Zm3.68,5.25a0.31,0.31,0,0,1-.25.12,7.69,7.69,0,0,1-1.63,2.25,3.68,3.68,0,0,0-.48-0.39,7,7,0,0,0,1.66-2.24Zm2.25-8.73v8.06H493V188h3.76Zm-0.6,2.5v-1.93H493.6v1.93h2.59Zm0,2.49v-1.94H493.6V193h2.59Zm0,2.51v-2H493.6v2h2.59Zm0.41,3.34a12.77,12.77,0,0,0-1.18-2.14l0.48-.26a14.94,14.94,0,0,1,1.22,2.09Zm2.24-10.26a0.22,0.22,0,0,1-.22.16v7.5H498v-7.72Zm1.43-1.21,0.83,0.07a0.21,0.21,0,0,1-.22.16v10.75c0,0.86-.49.88-2.18,0.88a2.09,2.09,0,0,0-.22-0.62H500a0.21,0.21,0,0,0,.26-0.26v-11Z"/></svg>