<svg xmlns="http://www.w3.org/2000/svg" xmlns:xlink="http://www.w3.org/1999/xlink" viewBox="0 0 623.33 249.33"><defs><style>.a,.c,.d,.f,.j{fill:none;}.b{fill:#999;}.c,.d,.i,.j{stroke:#000;}.c{stroke-linecap:square;}.c,.d,.e,.f,.i,.j{stroke-miterlimit:10;}.e{fill:#fff;stroke:#c1272d;}.f{stroke:#666;stroke-width:0.75px;}.g{fill:#666;}.h{clip-path:url(#a);}.i{fill:#e6e6e6;}.j{stroke-width:0.5px;stroke-dasharray:4 1;}</style><clipPath id="a"><rect class="a" x="33.07" y="35.29" width="299.96" height="179.93"/></clipPath></defs><title>figures</title><path class="b" d="M66.8,100.18L35.18,82.92a3.82,3.82,0,0,1-1.7-5.09l9.86-18.39a3.75,3.75,0,0,1,5.15-1.35L80.11,75.35a3.82,3.82,0,0,1,1.7,5.09L71.94,98.83A3.75,3.75,0,0,1,66.8,100.18Z"/><path class="b" d="M66.41,57.81c2.47-4.61.5-10.51-4.39-13.18s-10.86-1.11-13.33,3.5-0.5,10.51,4.39,13.18S63.94,62.41,66.41,57.81Z"/><path class="b" d="M91.71,67.66c3.38-6.3.69-14.37-6-18s-14.86-1.51-18.24,4.78-0.69,14.37,6,18S88.33,74,91.71,67.66Z"/><polygon class="b" points="65.74 83.56 93.93 83.62 81.22 107.34 65.74 83.56"/><line class="c" x1="356.67" y1="160.23" x2="591.63" y2="160.23"/><path d="M597.67,160.23a30.22,30.22,0,0,0-8.55,4.76l1.72-4.76-1.72-4.75A30.2,30.2,0,0,0,597.67,160.23Z"/><line class="c" x1="356.67" y1="208.44" x2="356.67" y2="49.87"/><path d="M356.67,43.83a30.22,30.22,0,0,0,4.76,8.55l-4.76-1.72-4.75,1.72A30.2,30.2,0,0,0,356.67,43.83Z"/><path d="M577.19,175.32a0.93,0.93,0,0,1,0-.15l1.32-4.77h-1a0.6,0.6,0,0,1,0-.23,0.29,0.29,0,0,1,.14-0.1,5.62,5.62,0,0,0,1.08-.57,6.67,6.67,0,0,0,1-1.06l0.11-.13,0.05,0,0.06,0,0.1,0a0.31,0.31,0,0,1,0,.09,0.31,0.31,0,0,1,0,.08l-0.4,1.49h1.13l-0.08.47h-1.18L578.33,175a0.32,0.32,0,0,0,0,.24,0.19,0.19,0,0,0,.18.11A0.87,0.87,0,0,0,579,175q0.19-.19.62-0.76l0.18,0.1-0.1.14a5.28,5.28,0,0,1-1,1.23,1.42,1.42,0,0,1-.85.35,0.63,0.63,0,0,1-.51-0.18,0.62,0.62,0,0,1-.16-0.42S577.19,175.36,577.19,175.32Z"/><path d="M383.11,70.92a0.5,0.5,0,0,1-.42.19,0.52,0.52,0,0,1-.38-0.15,0.47,0.47,0,0,1-.15-0.35,1.58,1.58,0,0,1,.13-0.47A0.2,0.2,0,0,0,382.2,70a0.29,0.29,0,0,0-.19-0.06,1.23,1.23,0,0,0-.86,1.1,18,18,0,0,0-.43,2.14h1.52l-0.1.46h-1.56l-1.31,4.47A9.24,9.24,0,0,1,378.17,81a2.07,2.07,0,0,1-1.79,1.09,1.23,1.23,0,0,1-.82-0.27,0.77,0.77,0,0,1-.32-0.59,0.62,0.62,0,0,1,.13-0.38,0.47,0.47,0,0,1,.4-0.18,0.55,0.55,0,0,1,.39.15,0.51,0.51,0,0,1,.16.38,0.49,0.49,0,0,1-.07.25,0.48,0.48,0,0,0-.07.17,0.12,0.12,0,0,0,.08.1,0.43,0.43,0,0,0,.2,0,1.21,1.21,0,0,0,1-.92,6.86,6.86,0,0,0,.39-1.32l1.63-5.87h-1.26l0.1-.46h1.32a8.49,8.49,0,0,1,.84-2.36,2,2,0,0,1,1.71-1.18,1.14,1.14,0,0,1,.77.27,0.79,0.79,0,0,1,.31.61A0.65,0.65,0,0,1,383.11,70.92Z"/><path d="M381.53,83.46a0.46,0.46,0,0,1,0-.08l0.77-2.78h-0.61a0.33,0.33,0,0,1,0-.13,0.16,0.16,0,0,1,.08-0.06,3.3,3.3,0,0,0,.63-0.33,3.85,3.85,0,0,0,.61-0.62l0.06-.08,0,0h0l0.06,0v0a0.25,0.25,0,0,1,0,0l-0.24.87h0.66l0,0.27h-0.69l-0.73,2.68a0.19,0.19,0,0,0,0,.14,0.11,0.11,0,0,0,.11.07,0.51,0.51,0,0,0,.29-0.21q0.11-.11.36-0.44l0.1,0.06L383,83a3.08,3.08,0,0,1-.6.72,0.83,0.83,0,0,1-.5.2,0.34,0.34,0,0,1-.39-0.35A0.71,0.71,0,0,1,381.53,83.46Z"/><path d="M387.6,71.44a7,7,0,0,1,2.06-1.77l0.13,0.23a6.24,6.24,0,0,0-1.57,1.7,7.7,7.7,0,0,0-.83,3.84,11.4,11.4,0,0,0,.31,2.93,5.06,5.06,0,0,0,2.08,3l-0.18.23a5.83,5.83,0,0,1-1.82-1.58,6.74,6.74,0,0,1-1.62-4.43A6.54,6.54,0,0,1,387.6,71.44Z"/><path d="M390.72,78.56a0.93,0.93,0,0,1,0-.15l1.32-4.77h-1a0.6,0.6,0,0,1,0-.23,0.29,0.29,0,0,1,.14-0.1,5.62,5.62,0,0,0,1.08-.57,6.67,6.67,0,0,0,1-1.06l0.11-.13,0.05,0,0.06,0,0.1,0a0.31,0.31,0,0,1,0,.09,0.31,0.31,0,0,1,0,.08l-0.4,1.49h1.13l-0.08.47h-1.18l-1.26,4.59a0.32,0.32,0,0,0,0,.24,0.19,0.19,0,0,0,.18.11,0.87,0.87,0,0,0,.5-0.36q0.19-.19.62-0.76l0.18,0.1-0.1.14a5.28,5.28,0,0,1-1,1.23,1.42,1.42,0,0,1-.85.35,0.63,0.63,0,0,1-.51-0.18,0.62,0.62,0,0,1-.16-0.42S390.72,78.6,390.72,78.56Z"/><path d="M397.8,77.62a6.65,6.65,0,0,1-2.22,3.32,5.46,5.46,0,0,1-1,.69l-0.13-.23A5.78,5.78,0,0,0,396,79.77a7.7,7.7,0,0,0,.86-3.9,10.77,10.77,0,0,0-.4-3.21,5.14,5.14,0,0,0-2-2.76l0.18-.23a6.65,6.65,0,0,1,2,1.82,6.75,6.75,0,0,1,1.43,4.2A6.82,6.82,0,0,1,397.8,77.62Z"/><path class="d" d="M356.67,75.33s99.73,98,180.36,98c19.76,0,40.53-5.88,60.64-14.77"/><circle class="e" cx="480.45" cy="160.23" r="3.29"/><path d="M491.44,64.78a9.14,9.14,0,0,1-2-5.93,9.27,9.27,0,0,1,2-6h0.71a9.27,9.27,0,0,0-2,6,9.41,9.41,0,0,0,2,5.92h-0.71Z"/><path d="M495.2,62.5c3.45-1,6.13-2.53,7.81-5.49a3.43,3.43,0,0,0,.5.47c-1.77,3.06-4.6,4.74-8.54,5.79a0.52,0.52,0,0,1-.19.25l-0.43-.7,0.16-.22V52.9l1,0.05a0.33,0.33,0,0,1-.36.27V62.5Z"/><path d="M515.54,53.15a0.26,0.26,0,0,1-.22.1l-0.16,0a29.31,29.31,0,0,1-3.74,3.15l0.26,0.14a0.27,0.27,0,0,1-.23.16v7h-0.69V56.83a38.11,38.11,0,0,1-5.16,3.06,3.15,3.15,0,0,0-.4-0.52,34.18,34.18,0,0,0,9.59-6.78Z"/><path d="M528.47,54.5a0.25,0.25,0,0,1-.18.1,21.28,21.28,0,0,1-5.39,5.33,26.81,26.81,0,0,1,2.79,2.67l-0.57.49a28.34,28.34,0,0,0-6.24-5.14l0.45-.48a27.42,27.42,0,0,1,3,2.06,20.35,20.35,0,0,0,4.92-4.77h-9.9V54.11h10.38L527.9,54Z"/><path d="M530.3,57.51h10.82v0.67H530.77a0.5,0.5,0,0,1-.39.23Z"/><path d="M553.84,57.86H549.2a6.77,6.77,0,0,1-3.67,5.88,2.84,2.84,0,0,0-.5-0.45,6.35,6.35,0,0,0,3.51-5.43h-5.42V57.23h5.47c0.06-.91.08-1.88,0.09-3-1.39.32-3.17,0.62-4.64,0.8a5.15,5.15,0,0,0-.21-0.58,39,39,0,0,0,4.95-.87,24.14,24.14,0,0,0,3.12-1l0.53,0.6a0.24,0.24,0,0,1-.14,0h-0.14a30.46,30.46,0,0,1-2.93.88l0.39,0a0.25,0.25,0,0,1-.26.19c0,1,0,2-.09,2.89h4.57v0.63Z"/><path d="M556.13,53.58A15.19,15.19,0,0,1,560,55.36l-0.36.57a16.08,16.08,0,0,0-3.82-1.8Zm0.09,9.06c4.66-1.45,7.75-4,9.33-7.64a2.67,2.67,0,0,0,.6.38,14.78,14.78,0,0,1-9.22,7.76,0.56,0.56,0,0,1-.17.29Z"/><path d="M576.57,54.94a0.51,0.51,0,0,1-.17.17c-1.32,4.22-3.47,6.92-7.06,8.73a2.35,2.35,0,0,0-.45-0.51,12.58,12.58,0,0,0,6.7-8H570.7a13,13,0,0,1-2.93,3.28,3.17,3.17,0,0,0-.53-0.44,13.1,13.1,0,0,0,4.16-5.69l0.92,0.3a0.31,0.31,0,0,1-.35.14c-0.27.61-.57,1.23-0.88,1.77h4.83l0.13-.05Zm-1.49-2.88A9.45,9.45,0,0,1,576.82,54l-0.4.32a10.07,10.07,0,0,0-1.7-1.89Zm1.83-.39a9.76,9.76,0,0,1,1.72,1.89l-0.4.31A9.49,9.49,0,0,0,576.55,52Z"/><path d="M579.61,52.85a9.92,9.92,0,0,1,0,11.93H578.9a10,10,0,0,0,0-11.93h0.71Z"/><line class="f" x1="125.78" y1="191.57" x2="133.08" y2="179.69"/><path class="g" d="M135.45,175.83a22.67,22.67,0,0,0-.32,7.33l-2.36-3-3.71-.77A22.65,22.65,0,0,0,135.45,175.83Z"/><path class="g" d="M90.15,199.6v2.13l1.76-.43,0,0.42c-1.43.37-2.93,0.76-3.87,1a0.16,0.16,0,0,1-.12.14l-0.23-.56,0.57-.13v-3.55l0.61,0a0.16,0.16,0,0,1-.17.11v3.29l0.94-.22v-4.31H88.28v-3h3.27v3h-1.4v1.62h1.65v0.45H90.15ZM88.73,195v2.09h2.36V195H88.73ZM97,202.37v0.47H92.84v0.49H92.36v-8.81H96.9V195H92.84v1.94h3.59v3.46H92.84v2H97Zm-1-5H92.84v2.52H96v-2.52Z"/><path class="g" d="M102.62,195v0.43H97.8V195H100v-0.91l0.65,0a0.16,0.16,0,0,1-.17.12V195h2.18Zm-0.23,4.52v3.25c0,0.55-.28.55-1.47,0.55a1.7,1.7,0,0,0-.15-0.41h0.65c0.53,0,.53,0,0.53-0.15v-2.83h-1.83c-0.12.54-.25,1.1-0.37,1.55l1.26-.08a6.65,6.65,0,0,0-.44-0.88l0.34-.11a6.55,6.55,0,0,1,.76,1.74l-0.35.14c0-.16-0.1-0.35-0.17-0.56-0.81.08-1.58,0.14-2.09,0.18a0.17,0.17,0,0,1-.13.13l-0.18-.51,0.6,0c0.12-.43.25-1,0.35-1.57H98.44v3.4H98v-3.82h1.79c0-.28.09-0.54,0.13-0.79H98.3v-2.78l0.58,0a0.17,0.17,0,0,1-.17.12v2.21h3v-2.37l0.58,0a0.16,0.16,0,0,1-.17.12v2.62h-1.73c0,0.24-.09.51-0.15,0.79h2.19Zm-1.13-3.58a0.18,0.18,0,0,1-.19.09,5.07,5.07,0,0,1-.54.88,6,6,0,0,1,.88.74l-0.24.31a6.36,6.36,0,0,0-.87-0.75,5.17,5.17,0,0,1-1.08,1,2.43,2.43,0,0,0-.29-0.23,5,5,0,0,0,1.07-1,9.66,9.66,0,0,0-.95-0.59l0.24-.26a9,9,0,0,1,.93.56,5,5,0,0,0,.53-0.92ZM107,202.3v0.46H103.6v0.58h-0.46v-6.1a8.16,8.16,0,0,1-.61,1c-0.09-.08-0.25-0.21-0.35-0.28a12.64,12.64,0,0,0,1.65-3.91l0.6,0.18a0.16,0.16,0,0,1-.2.09,17.09,17.09,0,0,1-.57,1.7H105a13.89,13.89,0,0,0,.63-1.87l0.6,0.18a0.21,0.21,0,0,1-.2.1,14.76,14.76,0,0,1-.58,1.59h1.49v0.46h-1.48v1.61h1.4v0.45h-1.4v1.63h1.4v0.45h-1.4v1.65H107Zm-2-4.18v-1.61H103.6v1.61H105Zm0,2.08v-1.63H103.6v1.63H105Zm-1.39.45v1.65H105v-1.65H103.6Z"/><path class="g" d="M109.62,196.78V200l1.2-.56a4.17,4.17,0,0,1,.11.43l-2.84,1.39a0.18,0.18,0,0,1-.1.16l-0.28-.56c0.39-.16.9-0.39,1.45-0.64v-3.45h-1.29v-0.47h1.29V194.1l0.64,0a0.17,0.17,0,0,1-.18.12v2h1.21v0.47h-1.21Zm7.38,2h-4.28a6.31,6.31,0,0,1-.53.85h4.29l0.27,0,0,0.17c-0.17,2.21-.34,3-0.61,3.28a0.76,0.76,0,0,1-.54.22c-0.2,0-.6,0-1,0a1.38,1.38,0,0,0-.12-0.44c0.42,0,.8.05,0.95,0.05a0.34,0.34,0,0,0,.31-0.1c0.21-.2.37-0.92,0.52-2.76h-1.06a7.26,7.26,0,0,1-2,3.34,1.64,1.64,0,0,0-.38-0.3,6.44,6.44,0,0,0,2-3h-1.22a7.76,7.76,0,0,1-2.51,2.89,1.69,1.69,0,0,0-.33-0.32,7,7,0,0,0,2.39-2.57h-1.24a7,7,0,0,1-1.46,1.29A1.9,1.9,0,0,0,110,201a6.3,6.3,0,0,0,2.15-2.28h-1.6v-0.45H117v0.45Zm-0.74-4.35v3.21h-4.59v-3.21h4.59Zm-0.47,1.4v-1h-3.66v1h3.66Zm0,1.41v-1h-3.66v1h3.66Z"/><path class="g" d="M121.83,197.76h-3.1v5.58h-0.48v-8.79h3.58v3.21ZM121.36,195h-2.63v1h2.63v-1Zm-2.63,2.4h2.63v-1h-2.63v1Zm6.36,3.46h-2.31a3.15,3.15,0,0,0,2.27,1.61,1.19,1.19,0,0,0-.29.38A3.47,3.47,0,0,1,122.4,201c-0.22.66-.83,1.36-2.5,1.88a1.93,1.93,0,0,0-.3-0.35c1.62-.45,2.18-1.1,2.36-1.69h-2.31v-0.42H122a1.9,1.9,0,0,0,0-.23v-0.73h-2.23V199h1.29a3.36,3.36,0,0,0-.54-0.94l0.4-.14a3.56,3.56,0,0,1,.6,1l-0.08,0H123a7.42,7.42,0,0,0,.6-1.11l0.54,0.23a0.17,0.17,0,0,1-.18.07,8.1,8.1,0,0,1-.51.82h1.4v0.41h-2.37v0.74a1.67,1.67,0,0,1,0,.22h2.59v0.42Zm1.45-6.26v8.08c0,0.68-.34.68-1.62,0.68a2.09,2.09,0,0,0-.17-0.49h1.12a0.16,0.16,0,0,0,.19-0.2v-4.88h-3.19v-3.21h3.67Zm-0.48.4h-2.72v1h2.72v-1Zm-2.72,2.4h2.72v-1h-2.72v1Z"/><path class="g" d="M130,198.51V197a6.41,6.41,0,0,1-2,1.73,2.06,2.06,0,0,0-.28-0.39,5.28,5.28,0,0,0,2.09-1.82h-2v-0.44H130v-2l0.64,0a0.16,0.16,0,0,1-.17.12v1.8h2.19v0.44h-2.19v0.26c0.4,0.24,1.54,1,1.81,1.22l-0.3.37c-0.26-.25-1-0.82-1.51-1.18v1.34H130Zm1.77,1.49a4.48,4.48,0,0,1-.79,1.71,8.56,8.56,0,0,1,1.21.75l-0.33.36a9.34,9.34,0,0,0-1.2-.77,5.24,5.24,0,0,1-2.48,1.28,1.29,1.29,0,0,0-.26-0.42,4.8,4.8,0,0,0,2.31-1.09c-0.43-.21-0.88-0.42-1.34-0.61l-0.23.42-0.43-.17c0.22-.39.5-0.92,0.77-1.46h-1.21v-0.44h1.43c0.18-.36.35-0.71,0.49-1l0.6,0.14a0.15,0.15,0,0,1-.19.09c-0.11.24-.24,0.51-0.38,0.79h3V200h-0.93Zm-3.11-5.6a5.32,5.32,0,0,1,.71,1.34l-0.41.2a5.33,5.33,0,0,0-.69-1.37Zm0.86,5.6c-0.15.29-.29,0.58-0.44,0.85,0.5,0.19,1,.41,1.47.64a3.75,3.75,0,0,0,.72-1.49h-1.75Zm1.48-4.23a8.51,8.51,0,0,0,.84-1.38l0.55,0.25a0.17,0.17,0,0,1-.19.07,9.81,9.81,0,0,1-.85,1.25Zm6,0.69h-0.68a12.14,12.14,0,0,1-1.34,4.26,5.28,5.28,0,0,0,2.08,2.2,2,2,0,0,0-.35.41,5.65,5.65,0,0,1-2-2.15,6.46,6.46,0,0,1-2.54,2.15,2,2,0,0,0-.27-0.4,5.87,5.87,0,0,0,2.55-2.24,13.61,13.61,0,0,1-1-3.27,7.92,7.92,0,0,1-.73,1.43,4,4,0,0,0-.38-0.3,12.69,12.69,0,0,0,1.51-4.47l0.66,0.16a0.18,0.18,0,0,1-.2.1c-0.11.56-.24,1.12-0.39,1.66H137v0.46Zm-3.28,0,0,0.12a14.42,14.42,0,0,0,1,3.61,11.93,11.93,0,0,0,1.09-3.73h-2.09Z"/><path class="g" d="M140.33,198.12a2.75,2.75,0,0,1,1.68-.69,1.28,1.28,0,0,1,1.24,1.33c0.87-.39,2-0.82,2.8-1.15l0.26,0.6h0a0.28,0.28,0,0,1-.16-0.06c-0.77.26-1.91,0.7-2.77,1.09,0,0.24,0,.51,0,0.83s0,0.73,0,1.15l-0.55,0c0-.35.05-0.84,0.05-1.25,0-.2,0-0.39,0-0.54-1.24.6-2.29,1.33-2.29,2s0.74,0.95,2.22.95a22.51,22.51,0,0,0,2.52-.11v0.51c-0.62.06-1.53,0.08-2.52,0.08-1.93,0-2.74-.47-2.74-1.42s1.21-1.73,2.74-2.5a0.93,0.93,0,0,0-.83-1.06,3.5,3.5,0,0,0-2.47,1.46,14.88,14.88,0,0,1-1.12,1.09l-0.35-.36a7.17,7.17,0,0,0,2.58-3.85h-2.32v-0.49h2.46c0.11-.47.21-0.91,0.29-1.47l0.78,0.11a0.22,0.22,0,0,1-.24.17,11.64,11.64,0,0,1-.27,1.18,13.67,13.67,0,0,0,3.58-.6l0.1,0.51a15,15,0,0,1-3.82.57,7.17,7.17,0,0,1-.79,1.87h0Z"/><path class="g" d="M152,194.44a0.14,0.14,0,0,1-.11,0h-0.07a8.62,8.62,0,0,1-1.7.62v2.07h2.06v0.47h-2.06v0.83c0.44,0.34,1.67,1.39,2,1.68l-0.3.39c-0.31-.33-1.14-1.09-1.68-1.55v4.33h-0.48v-4.91a11.51,11.51,0,0,1-2,3.41,3.1,3.1,0,0,0-.29-0.44,10.85,10.85,0,0,0,2.21-3.74h-2.07v-0.47h2.2v-1.95c-0.69.17-1.42,0.31-2.1,0.42a1.16,1.16,0,0,0-.17-0.38,14.7,14.7,0,0,0,4.13-1.18Zm1,6.43V195.3l0.65,0a0.15,0.15,0,0,1-.17.11v5.41H153Zm2.56-6.6,0.65,0a0.15,0.15,0,0,1-.17.11v8.16a0.58,0.58,0,0,1-.4.66,7.68,7.68,0,0,1-1.73.08,2.29,2.29,0,0,0-.19-0.48h0.86c0.94,0,1,0,1-.26v-8.33Z"/><path class="g" d="M165.82,194.82v7.7a0.57,0.57,0,0,1-.42.67,8.29,8.29,0,0,1-1.86.08,1.85,1.85,0,0,0-.18-0.48h1.7a0.22,0.22,0,0,0,.27-0.27v-2.4h-3.11v3.13h-0.48v-3.13h-2.82a6,6,0,0,1-1.28,3.26,1.32,1.32,0,0,0-.37-0.34,6.67,6.67,0,0,0,1.24-4.52v-3.7h7.31Zm-6.82,3.7c0,0.35,0,.74,0,1.13h2.78v-1.93H159v0.8Zm2.74-3.23H159v2h2.74v-2Zm3.59,2v-2h-3.11v2h3.11Zm-3.11,2.4h3.11v-1.93h-3.11v1.93Z"/><path class="g" d="M60.17,215.87a7.06,7.06,0,0,1-1.55-4.58,7.15,7.15,0,0,1,1.55-4.63h0.55a7.15,7.15,0,0,0-1.52,4.64,7.26,7.26,0,0,0,1.52,4.57H60.17Z"/><path class="g" d="M70.37,212.59H66.51a5.24,5.24,0,0,0,4,2.31,1.8,1.8,0,0,0-.32.44A5.56,5.56,0,0,1,66,212.59h-0.3c-0.51,1-1.62,2-4,2.74a2.18,2.18,0,0,0-.29-0.4c2.19-.65,3.25-1.48,3.77-2.34H61.41v-0.45h3.95a4.05,4.05,0,0,0,.23-1.06h-3v-0.44h3v-1H62.37v-0.44H65.6v-1.09l0.66,0a0.15,0.15,0,0,1-.17.12v0.93h3.35v0.44H66.09v1h3.16v0.44H66.07a4.44,4.44,0,0,1-.21,1.06h4.51v0.45ZM62.2,207.8v1.39H61.72v-1.85H65.6v-1.27l0.67,0.05a0.17,0.17,0,0,1-.18.12v1.1H70v1.85H69.54V207.8H62.2Z"/><path class="g" d="M73.72,206.5L74,206.7a0.11,0.11,0,0,1-.08.07c-0.21.75-.53,1.77-0.84,2.62a3.77,3.77,0,0,1,.9,2.27c0,1.34-.67,1.33-1.35,1.29a1.22,1.22,0,0,0-.13-0.44l0.42,0c0.3,0,.61,0,0.61-0.89a3.75,3.75,0,0,0-.89-2.2c0.29-.81.56-1.75,0.75-2.46H72.11v8.34H71.65v-8.8h2Zm1.61,1.31a6.63,6.63,0,0,1,.85.6,6.57,6.57,0,0,0,.37-1H75.18A5.6,5.6,0,0,1,74,209a3.3,3.3,0,0,0-.34-0.25,6.3,6.3,0,0,0,1.57-2.68l0.57,0.16a0.17,0.17,0,0,1-.19.1,5.69,5.69,0,0,1-.25.63h1.38l0.09,0a1,1,0,0,1,.29.14,0.3,0.3,0,0,1-.07.09,6.77,6.77,0,0,1-2.75,4.13,2,2,0,0,0-.31-0.35,5,5,0,0,0,1.38-1.24,6.91,6.91,0,0,0-.9-0.77l0.26-.24a5.58,5.58,0,0,1,.86.71,5.64,5.64,0,0,0,.39-0.65,5.56,5.56,0,0,0-.91-0.69Zm0.35,5.28A6.8,6.8,0,0,1,74.19,215a2.35,2.35,0,0,0-.33-0.3,5.51,5.51,0,0,0,1.44-1.87L75.87,213A0.17,0.17,0,0,1,75.68,213.09Zm4.26-.77H77.47v2.44a0.41,0.41,0,0,1-.29.49,5.22,5.22,0,0,1-1.34.08,1.64,1.64,0,0,0-.16-0.43h1.15c0.14,0,.17,0,0.17-0.16v-2.43H74.65v-0.44h5.29v0.44Zm-4.34-1.54v-0.43h3.32v0.43H75.6Zm4.5-3.84,0.33,0.21a0.15,0.15,0,0,1-.1.07A9,9,0,0,1,79,209.58a4.48,4.48,0,0,0,1.59,1.27,1.71,1.71,0,0,0-.32.38c-1.61-.84-2.64-2.61-3.14-4.84l0.4-.09a8.21,8.21,0,0,0,1.22,2.94,7.81,7.81,0,0,0,1-1.86H78.15V207H80Zm-0.16,7.94a7.93,7.93,0,0,0-1.46-1.77l0.36-.24a8,8,0,0,1,1.48,1.74Z"/><path class="g" d="M86.34,207.72a0.22,0.22,0,0,1-.23.15c-0.34,3-1.4,6-3,6-0.75,0-1.51-.82-1.51-2.35a4.36,4.36,0,0,1,4.48-4.4c2.91,0,4.08,1.89,4.08,3.76,0,2.39-1.43,3.51-3.81,4-0.06-.11-0.2-0.32-0.3-0.46,2.31-.44,3.58-1.56,3.58-3.56a3.2,3.2,0,0,0-3.55-3.3H85.82Zm-0.74-.12a3.87,3.87,0,0,0-3.53,3.88c0,1.15.52,1.85,1,1.85C84.38,213.33,85.32,210.48,85.6,207.6Z"/><path class="g" d="M93.64,211.6v2.13l1.76-.43,0.05,0.42c-1.43.37-2.93,0.76-3.87,1a0.16,0.16,0,0,1-.12.14l-0.23-.56,0.57-.13v-3.55l0.61,0a0.16,0.16,0,0,1-.17.11v3.29l0.94-.22v-4.31H91.78v-3H95v3h-1.4v1.62h1.65v0.45H93.64ZM92.23,207v2.09h2.36V207H92.23Zm8.27,7.37v0.47H96.34v0.49H95.86v-8.81h4.54V207H96.34v1.94h3.59v3.46H96.34v2h4.15Zm-1-5H96.34v2.52h3.11v-2.52Z"/><path class="g" d="M106.12,207v0.43H101.3V207h2.17v-0.91l0.65,0a0.16,0.16,0,0,1-.17.12V207h2.18Zm-0.23,4.52v3.25c0,0.55-.28.55-1.47,0.55a1.69,1.69,0,0,0-.15-0.41h0.65c0.53,0,.53,0,0.53-0.15v-2.83h-1.83c-0.12.54-.25,1.1-0.37,1.55l1.26-.08a6.54,6.54,0,0,0-.44-0.88l0.34-.11a6.52,6.52,0,0,1,.76,1.74l-0.35.14c0-.16-0.1-0.35-0.17-0.56-0.81.08-1.58,0.14-2.09,0.18a0.17,0.17,0,0,1-.13.13l-0.18-.51,0.6,0c0.12-.43.25-1,0.35-1.57h-1.27v3.4H101.5v-3.82h1.79c0-.28.09-0.54,0.13-0.79H101.8v-2.78l0.58,0a0.17,0.17,0,0,1-.17.12v2.21h3v-2.37l0.58,0a0.16,0.16,0,0,1-.17.12v2.62h-1.73c0,0.24-.09.51-0.15,0.79h2.19Zm-1.13-3.58a0.18,0.18,0,0,1-.19.09,5.08,5.08,0,0,1-.54.88,6,6,0,0,1,.88.74l-0.24.31a6.4,6.4,0,0,0-.87-0.75,5.19,5.19,0,0,1-1.08,1,2.51,2.51,0,0,0-.29-0.23,5.06,5.06,0,0,0,1.07-1,9.66,9.66,0,0,0-.95-0.59l0.24-.26a9,9,0,0,1,.93.56,5,5,0,0,0,.53-0.92Zm5.75,6.37v0.46H107.1v0.58h-0.46v-6.1a8.16,8.16,0,0,1-.61,1l-0.35-.28a12.67,12.67,0,0,0,1.65-3.91l0.6,0.18a0.16,0.16,0,0,1-.2.09,17.09,17.09,0,0,1-.57,1.7h1.31a13.62,13.62,0,0,0,.63-1.87l0.6,0.18a0.21,0.21,0,0,1-.2.1,15.2,15.2,0,0,1-.58,1.59h1.49v0.46h-1.48v1.61h1.4v0.45h-1.4v1.63h1.4v0.45h-1.4v1.65h1.58Zm-2-4.18v-1.61H107.1v1.61h1.39Zm0,2.08v-1.63H107.1v1.63h1.39Zm-1.39.45v1.65h1.39v-1.65H107.1Z"/><path class="g" d="M118.71,214.38a10.29,10.29,0,0,0-3.2-1.71,7.66,7.66,0,0,1-.06,1.12c0,0.88-.76,1.29-1.77,1.29-1.26,0-2.23-.6-2.25-1.58s1-1.56,2.26-1.58A6.17,6.17,0,0,1,115,212c0-.31,0-0.58-0.07-0.84-0.08-1.29-.16-3.31-0.16-4.85l0.84,0a0.26,0.26,0,0,1-.27.22v1.95a25.06,25.06,0,0,0,3.41-.31l0.06,0.52a29,29,0,0,1-3.47.29c0,0.76.06,1.39,0.1,2.13,0,0.28.07,0.63,0.09,0.94a11.35,11.35,0,0,1,3.54,1.79Zm-4.91-2c-1.24,0-1.89.51-1.89,1.09,0,0.76.84,1.13,1.71,1.13a1.15,1.15,0,0,0,1.39-1c0-.25,0-0.72,0-1A4.35,4.35,0,0,0,113.8,212.38Z"/><path class="g" d="M121.2,212a5.56,5.56,0,0,1-.29-1.78,18.46,18.46,0,0,1,.35-3.4l0.8,0.16a0.29,0.29,0,0,1-.3.17,15.87,15.87,0,0,0-.34,3,3.59,3.59,0,0,0,0,.63c0.22-.51.6-1.24,0.8-1.62,0.07,0.09.24,0.24,0.32,0.32a5.41,5.41,0,0,0-.91,2.11,1.21,1.21,0,0,0,0,.27Zm5.23-5.44a0.26,0.26,0,0,1-.27.22c0.07,0.9.17,2.39,0.17,3.49,0,1.94-.73,3.66-3.69,4.88a4.83,4.83,0,0,0-.35-0.43c2.72-1,3.5-2.69,3.5-4.44,0-1.17-.12-2.64-0.23-3.76Z"/><path class="g" d="M130.32,210.8a5.9,5.9,0,0,1-.13.91c0.39,0.43,1.43,1.71,1.68,2l-0.34.41c-0.27-.42-1-1.39-1.45-1.95a5.63,5.63,0,0,1-1.83,2.92,1.75,1.75,0,0,0-.34-0.34,5.63,5.63,0,0,0,1.95-4H128v-0.47h1.91c0-.21,0-0.41,0-0.6v-1.79h-0.83a7.6,7.6,0,0,1-.71,1.84,2.4,2.4,0,0,0-.37-0.25,10.27,10.27,0,0,0,1-3.46l0.62,0.15a0.16,0.16,0,0,1-.19.09c-0.06.39-.14,0.78-0.22,1.17h2.64v0.46h-1.46v1.81c0,0.19,0,.38,0,0.58H132v0.47h-1.64Zm1.2,3.79h5.69V215h-5.69v-0.46Zm5.6-8V207H132v-0.47h5.15Zm-0.54,1.86v3h-4.16v-3h4.16Zm-3.4,3.49a12,12,0,0,1,.59,2.28l-0.46.12a12.55,12.55,0,0,0-.56-2.3Zm2.92-.91v-2.13h-3.21V211h3.21Zm0.33,1a0.21,0.21,0,0,1-.21.11,16.74,16.74,0,0,1-.83,2.29l-0.39-.13a16.92,16.92,0,0,0,.78-2.43Z"/><path class="g" d="M143.49,215.24a32.07,32.07,0,0,0-3.94-3.78,1.33,1.33,0,0,1-.66-1,1.29,1.29,0,0,1,.55-0.88c0.88-.82,2.56-2.38,3.58-3.43l0.66,0.44a0.24,0.24,0,0,1-.2.09,0.33,0.33,0,0,1-.13,0c-1,1-2.64,2.41-3.46,3.18a1.13,1.13,0,0,0-.43.59,1,1,0,0,0,.52.65,32.72,32.72,0,0,1,4,3.77Z"/><path class="g" d="M145.51,207.47l0.94,0c0.79-.07,6.11-0.45,7.26-0.44v0.55l-0.42,0a2.93,2.93,0,0,0-1.63.47c-1.63,1-3.11,2.65-3.11,4,0,1.49,1,2.38,3.54,2.74l-0.22.5C149,214.8,148,213.78,148,212c0-1.48,1.48-3.24,3.43-4.42-1,.06-4.22.3-5.65,0.43a0.32,0.32,0,0,1-.21.15Z"/><path class="g" d="M160.19,211.43c-0.65.07-1.61,0.13-2.49,0.13-0.05.49-.07,0.84-0.07,1,0,1.67,1,1.89,2.13,1.89,1.49,0,2.48-.4,2.48-1.45a3.26,3.26,0,0,0-.85-1.9,2.46,2.46,0,0,0,.46-0.21,3.61,3.61,0,0,1,.93,2.17c0,1.63-1.8,1.89-3,1.89-0.85,0-2.65,0-2.65-2.4l0.07-1a8.17,8.17,0,0,1-1.34-.13,1,1,0,0,1-.88-0.91,1.6,1.6,0,0,1,.87-1.25l0.37,0.26a1.33,1.33,0,0,0-.73.92c0,0.59.93,0.61,1.75,0.63,0.08-.72.18-1.58,0.28-2.41a7.2,7.2,0,0,1-2.16-.56l0.16-.48a6.59,6.59,0,0,0,2.06.56c0.08-.65.16-1.32,0.23-1.85l0.82,0.1a0.29,0.29,0,0,1-.31.18c-0.07.45-.15,1-0.22,1.62,0.33,0,.67,0,1,0s0.76,0,1.12,0l0,0.49c-0.32,0-.68,0-1,0s-0.79,0-1.16,0c-0.1.8-.2,1.64-0.28,2.37a19.92,19.92,0,0,0,2.43-.14Z"/><path class="g" d="M172.93,209.6h-4c0.67,2.51,2,4.45,4.16,5.26a1.84,1.84,0,0,0-.37.46c-2.16-.91-3.5-2.85-4.22-5.45a7,7,0,0,1-4.23,5.45,1.83,1.83,0,0,0-.35-0.39A6.62,6.62,0,0,0,168,209.6h-4v-0.49h4a20.64,20.64,0,0,0,.16-3l0.71,0c0,0.09-.07.13-0.2,0.15a23,23,0,0,1-.15,2.83h4.31v0.49Z"/><path class="g" d="M182.88,208.63H179a8.69,8.69,0,0,1-.93,4.2,8.4,8.4,0,0,0,5,2,2.82,2.82,0,0,0-.3.46,8.68,8.68,0,0,1-5-2.09,6.29,6.29,0,0,1-3.68,2.08,1.34,1.34,0,0,0-.3-0.42,5.9,5.9,0,0,0,3.61-2,8.42,8.42,0,0,1-1.73-3.55l0.46-.12a7.77,7.77,0,0,0,1.54,3.24,8.23,8.23,0,0,0,.78-3.8h-4.4v-0.48h4.42c0-.6,0-1.23,0-1.9l0.73,0a0.18,0.18,0,0,1-.2.15c0,0.6,0,1.17,0,1.71h3.86v0.48Z"/><path class="g" d="M193,211.09h-4.12a5.21,5.21,0,0,0,4.26,3.77,2.3,2.3,0,0,0-.34.47,5.59,5.59,0,0,1-4.32-3.92c-0.39,1.55-1.45,2.95-4.25,3.92a2.07,2.07,0,0,0-.31-0.43c2.8-.95,3.78-2.32,4.11-3.81h-4V210.6h4.12a9.9,9.9,0,0,0,.07-1.22v-1.15h-3.5v-0.49h3.5v-1.66l0.68,0a0.18,0.18,0,0,1-.18.12v1.49h3.71v0.49h-3.71v1.15a9.72,9.72,0,0,1-.06,1.22H193v0.49Z"/><path class="g" d="M194.19,206.66a7.65,7.65,0,0,1,0,9.21h-0.55a7.73,7.73,0,0,0,0-9.21h0.55Z"/><g class="h"><circle class="i" cx="328.61" cy="72.88" r="158.77"/><circle class="j" cx="87.59" cy="95.45" r="83.21"/></g><line class="d" x1="87.59" y1="95.45" x2="226.79" y2="194.7"/><circle class="e" cx="223.96" cy="192.45" r="3.29"/><circle cx="87.59" cy="95.45" r="2.03"/><circle cx="155.68" cy="144" r="2.03"/><circle cx="178.28" cy="159.94" r="2.03"/><circle cx="190.61" cy="168.9" r="2.03"/><circle cx="197.96" cy="174.11" r="2.03"/><circle cx="203.29" cy="177.74" r="2.03"/><circle cx="207.09" cy="180.66" r="2.03"/><circle class="j" cx="155.68" cy="144" r="28.08"/><circle class="j" cx="178.28" cy="159.94" r="14.94"/><circle class="j" cx="190.61" cy="168.9" r="9.38"/><circle class="j" cx="197.92" cy="174.11" r="6.54"/><circle class="j" cx="203.29" cy="177.74" r="4.58"/><circle class="j" cx="207.09" cy="180.66" r="3.63"/><circle cx="356.67" cy="75.53" r="2.03"/><circle cx="419.34" cy="126.14" r="2.03"/><circle cx="439.03" cy="139" r="2.03"/><circle cx="450.26" cy="145.69" r="2.03"/><circle cx="456.98" cy="149.09" r="2.03"/><circle cx="461.64" cy="151.66" r="2.03"/><circle cx="465.17" cy="153.41" r="2.03"/></svg>