<svg xmlns="http://www.w3.org/2000/svg" viewBox="0 0 623.33 249.33"><defs><style>.a,.b,.c,.e,.f,.g{fill:none;stroke-miterlimit:10;}.a{stroke:#3fa9f5;}.b{stroke:#ff931e;}.c{stroke:#666;stroke-width:0.75px;}.d{fill:#666;}.e,.f{stroke:#000;}.e{stroke-linecap:square;}.g{stroke:#c1272d;stroke-linecap:round;stroke-width:2px;}</style></defs><title>figures</title><line class="a" x1="65.67" y1="128.33" x2="65.67" y2="76.02"/><line class="a" x1="74.53" y1="128.33" x2="74.53" y2="76.62"/><line class="a" x1="83.39" y1="128.33" x2="83.39" y2="77.77"/><line class="a" x1="92.25" y1="128.33" x2="92.25" y2="79.77"/><line class="a" x1="101.12" y1="128.33" x2="101.12" y2="82.95"/><line class="a" x1="109.98" y1="128.33" x2="109.98" y2="87.86"/><line class="a" x1="118.84" y1="128.33" x2="118.84" y2="95.36"/><line class="a" x1="127.7" y1="128.33" x2="127.7" y2="109.53"/><line class="b" x1="136.56" y1="128.33" x2="136.56" y2="146.76"/><path d="M421.64,64.78a9.14,9.14,0,0,1-2-5.93,9.27,9.27,0,0,1,2-6h0.71a9.27,9.27,0,0,0-2,6,9.41,9.41,0,0,0,2,5.92h-0.71Z"/><path d="M431.89,53.74a0.21,0.21,0,0,1-.16.12,20.23,20.23,0,0,1-2.66,4.52A47.87,47.87,0,0,1,434,62.9l-0.57.48a43.13,43.13,0,0,0-4.75-4.48,19.78,19.78,0,0,1-5.13,4.5,3.46,3.46,0,0,0-.48-0.52,19.21,19.21,0,0,0,7.79-8.76h-6.54V53.47h6.89l0.13-.05Z"/><path d="M446,57.37h-4.48l0.21,0.05a0.25,0.25,0,0,1-.25.14c-0.34,2.51-1.24,4.69-4,6.05a4.5,4.5,0,0,0-.49-0.49c2.73-1.29,3.52-3.21,3.85-5.76h-5.18V56.74H446v0.63Zm-1.27-3.65h-8V53.07h8v0.65Z"/><path d="M448.83,55.93a15.19,15.19,0,0,1,1,2.81l-0.54.14a14.2,14.2,0,0,0-1-2.76Zm7.79,0a0.22,0.22,0,0,1-.25.12c-1,3.77-2.85,6.1-6.06,7.4a3.88,3.88,0,0,0-.36-0.45c3.2-1.27,4.91-3.43,5.89-7.29ZM452,55.3a18.48,18.48,0,0,1,.6,3l-0.56.09a16.67,16.67,0,0,0-.61-2.93Z"/><path d="M458.83,54h8.36l0.69,0.54a0.21,0.21,0,0,1-.13.1c-1,4.86-3.28,7.47-7.25,9a5.64,5.64,0,0,0-.41-0.56c3.85-1.41,6-3.86,6.92-8.37h-8.16V54Zm9.85-2.36a1.42,1.42,0,1,1-1.42,1.42A1.41,1.41,0,0,1,468.67,51.69Zm1,1.42a1,1,0,1,0-1,1A1,1,0,0,0,469.68,53.11Z"/><path d="M475.48,52.71a0.35,0.35,0,0,1-.43.23c-0.16.76-.39,2.06-0.56,2.84,1.22-.12,1.35-0.13,1.63-0.13,1.87,0,2.53,1.24,2.53,3.12a10,10,0,0,1-.48,3,2.31,2.31,0,0,1-2.23,1.83,3.82,3.82,0,0,1-2.36-1.17,2.53,2.53,0,0,0,.27-0.56,3.59,3.59,0,0,0,2.08,1,1.65,1.65,0,0,0,1.59-1.33,10.23,10.23,0,0,0,.45-2.84c0-1.52-.52-2.47-1.89-2.47a14.66,14.66,0,0,0-1.75.13,24,24,0,0,1-2.76,7.09l-0.62-.3a21,21,0,0,0,2.7-6.71c-0.73.09-1.68,0.19-2.42,0.31l-0.06-.66c0.66-.09,1.74-0.21,2.63-0.3,0.21-.95.43-2.15,0.58-3.32Zm3.16-.38a8.91,8.91,0,0,1,1.81,1.81l-0.4.31a9.06,9.06,0,0,0-1.77-1.81Zm3.07,7.54a8.29,8.29,0,0,0-2.81-4.47l0.53-.38a8.48,8.48,0,0,1,3,4.59Zm-1.13-8.06a9.3,9.3,0,0,1,1.81,1.83l-0.4.3a9.75,9.75,0,0,0-1.77-1.81Z"/><path d="M495.35,56.66h-5.19c0.87,3.25,2.6,5.76,5.39,6.81a2.4,2.4,0,0,0-.48.6c-2.8-1.18-4.53-3.69-5.47-7.06a9.1,9.1,0,0,1-5.48,7.06,2.35,2.35,0,0,0-.45-0.51,8.58,8.58,0,0,0,5.32-6.9h-5.14V56h5.25a26.83,26.83,0,0,0,.21-3.91l0.92,0.05c0,0.12-.09.17-0.26,0.19a29.67,29.67,0,0,1-.19,3.67h5.58v0.63Z"/><path d="M507.35,56.57a21.22,21.22,0,0,1-4,.83,4.81,4.81,0,0,0,2.2,2.19l-0.36.54a6.52,6.52,0,0,1-.75-0.36,5.83,5.83,0,0,0-1.68-.22H502.3L502.21,59a10.12,10.12,0,0,1,1.55.05,6.32,6.32,0,0,1-1.14-1.61c-1,.09-2,0.13-3.5.13h-2V57c0.8,0,2,0,2.77,0s1.68,0,2.5-.12c-0.16-.43-0.37-1.23-0.54-1.87-0.78.05-1.23,0.09-2.63,0.09l-1.31,0V54.48c0.52,0,1.06,0,1.54,0a19.52,19.52,0,0,0,2.28-.09c-0.13-.61-0.27-1.32-0.38-2.1h1.08a0.32,0.32,0,0,1-.34.27c0.08,0.61.18,1.22,0.3,1.76a13.57,13.57,0,0,0,3.54-.79l0.21,0.6a15.06,15.06,0,0,1-3.61.78,15.27,15.27,0,0,0,.54,1.87,18.76,18.76,0,0,0,4.11-.87Zm-2.29,6.94c-0.63,0-1.33.08-2.31,0.08s-4.15,0-4.15-2.07a2.76,2.76,0,0,1,1.58-2.06l0.4,0.45a2.07,2.07,0,0,0-1.31,1.59c0,1.46,2.46,1.46,3.32,1.46s1.67,0,2.47-.09v0.63Z"/><path d="M509.16,54.5c1.68-.05,4.59-0.13,6.15-0.19,0-.32-0.06-1.9-0.08-2.09l1.06,0a0.34,0.34,0,0,1-.35.26c0,0.4,0,1.13.05,1.77,1.55-.05,3.2-0.09,4.26-0.1v0.66c-1.15,0-2.72,0-4.25.07,0,0.57,0,1.11,0,1.48s0,0.87.05,1.31a3.93,3.93,0,0,1,.16,1.33c0,1.87-.7,3.72-3.85,5a6.07,6.07,0,0,0-.47-0.53c2.19-.8,3.26-2,3.52-3.39h0a1.78,1.78,0,0,1-1.55.83,2.16,2.16,0,0,1-2.12-2.23,2.36,2.36,0,0,1,2.28-2.38,1.91,1.91,0,0,1,1.33.47c0-.06,0-0.13,0-0.18,0-.27,0-1,0-1.66-2,0-5,.14-6.17.21V54.5Zm6.39,4.24c0-1.32-.51-1.83-1.44-1.83a1.7,1.7,0,0,0-1.7,1.8A1.57,1.57,0,0,0,514,60.34,1.55,1.55,0,0,0,515.55,58.73Z"/><path d="M532.23,56.61a20.24,20.24,0,0,1-4,.84,4.66,4.66,0,0,0,2.16,2.16l-0.36.57c-0.17-.08-0.48-0.23-0.73-0.38a4.86,4.86,0,0,0-1.59-.23l-0.52,0-0.12-.53h0.49a7.41,7.41,0,0,1,1,.06,5.89,5.89,0,0,1-1.06-1.59,50.28,50.28,0,0,1-5.43.13V57l1.67,0c2,0,2.76-.05,3.54-0.12a16.39,16.39,0,0,1-.54-1.85c-0.78.05-1.23,0.09-2.63,0.09l-1.29,0V54.55c0.53,0,1.08,0,1.55,0,1.27,0,1.85-.05,2.24-0.08-0.12-.62-0.26-1.32-0.36-2.09h1.09a0.32,0.32,0,0,1-.35.27,17.11,17.11,0,0,0,.31,1.76,13.66,13.66,0,0,0,3.47-.79l0.17,0.58a14.34,14.34,0,0,1-3.52.78,15,15,0,0,0,.54,1.85,18.84,18.84,0,0,0,4.11-.87Zm-2.2,7c-0.73,0-1.55.08-2.77,0.08-2,0-3.71-.65-3.68-2.07a2.7,2.7,0,0,1,1.31-1.9l0.44,0.41a2.24,2.24,0,0,0-1.09,1.46c0,1,1.24,1.46,3,1.48,1,0,1.89-.05,2.79-0.1v0.65Zm0.66-11.22a9.1,9.1,0,0,1,1.58,1.87l-0.44.32a9.19,9.19,0,0,0-1.54-1.88Zm1.39-.7a9.08,9.08,0,0,1,1.58,1.87l-0.44.31A8.72,8.72,0,0,0,531.67,52Z"/><path d="M537.29,57.88a8.4,8.4,0,0,1,3.47-.83c2.1,0,3.37,1.19,3.37,3.06,0,2.34-2.07,3.64-4.59,3.64-1.7,0-2.84-.65-2.84-1.74a1.89,1.89,0,0,1,2.07-1.67,2.78,2.78,0,0,1,2.63,2.45,2.79,2.79,0,0,0,2-2.67c0-1.5-1.06-2.46-2.81-2.46a7.69,7.69,0,0,0-4.85,1.74,17.72,17.72,0,0,0-1.26,1.36L534,60.26c1.24-1.32,5.1-5,6.87-6.68-0.78.12-3.5,0.21-5.13,0.27a0.38,0.38,0,0,1-.25.19l-0.1-.87c1.79,0,5-.13,6-0.27l0.18-.09,0.58,0.66a0.7,0.7,0,0,1-.3.13c-1,.83-3.6,3.3-4.6,4.26h0Zm2.19,5.26a5.31,5.31,0,0,0,1.3-.17,2.2,2.2,0,0,0-2-2A1.27,1.27,0,0,0,537.29,62C537.29,62.85,538.48,63.14,539.47,63.14Z"/><path d="M548.08,55.6v4.18l1.55-.73a5.57,5.57,0,0,1,.14.56l-3.68,1.8a0.23,0.23,0,0,1-.13.21l-0.36-.73c0.5-.21,1.17-0.5,1.88-0.83V55.6h-1.67V55h1.67V52.13l0.83,0.06a0.23,0.23,0,0,1-.23.16V55h1.57V55.6h-1.57Zm9.56,2.56H552.1a8.19,8.19,0,0,1-.69,1.1H557l0.35,0.06,0,0.22c-0.22,2.86-.44,3.89-0.79,4.25a1,1,0,0,1-.7.29c-0.26,0-.78,0-1.28,0a1.77,1.77,0,0,0-.16-0.57c0.54,0.05,1,.07,1.23.07a0.44,0.44,0,0,0,.4-0.13c0.27-.26.48-1.19,0.67-3.58h-1.37a9.39,9.39,0,0,1-2.66,4.33,2.15,2.15,0,0,0-.49-0.39,8.35,8.35,0,0,0,2.59-3.94h-1.58a10.06,10.06,0,0,1-3.25,3.74,2.19,2.19,0,0,0-.43-0.41,9.05,9.05,0,0,0,3.1-3.33H551a9.1,9.1,0,0,1-1.89,1.67,2.52,2.52,0,0,0-.43-0.39,8.16,8.16,0,0,0,2.79-3h-2.07V57.58h8.29v0.58Zm-1-5.63v4.16h-5.95V52.53h5.95Zm-0.61,1.81V53.06h-4.74v1.28h4.74Zm0,1.83V54.86h-4.74v1.31h4.74Z"/><path d="M565.26,52.16a0.27,0.27,0,0,1-.23.16A17.19,17.19,0,0,0,570.77,57a2.54,2.54,0,0,0-.42.54,18.05,18.05,0,0,1-5.75-4.75A17.37,17.37,0,0,1,559,57.63a4,4,0,0,0-.39-0.49,15.28,15.28,0,0,0,5.69-5.05ZM560.7,64.1V58.89h7.88V64.1h-0.63V63.5h-6.61v0.6H560.7Zm0.6-7.66H568V57h-6.67v-0.6Zm6.65,3h-6.61v3.43h6.61V59.48Z"/><path d="M572,52.85a9.92,9.92,0,0,1,0,11.93h-0.71a10,10,0,0,0,0-11.93H572Z"/><line class="c" x1="124.82" y1="164.58" x2="132.12" y2="152.69"/><path class="d" d="M134.49,148.83a22.67,22.67,0,0,0-.32,7.33l-2.36-3-3.71-.77A22.65,22.65,0,0,0,134.49,148.83Z"/><path class="d" d="M94.16,172.3a10.62,10.62,0,0,1-1.29,1.58,3.84,3.84,0,0,0-.34-0.36,11.07,11.07,0,0,0,2.34-3.46l0.61,0.22a0.2,0.2,0,0,1-.22.09,15.13,15.13,0,0,1-.73,1.36l0.29,0.09a0.2,0.2,0,0,1-.18.12v4.39H94.16v-4Zm1-2.26a6.38,6.38,0,0,0-.53-1.48H94a7.35,7.35,0,0,1-1,1.52,2.08,2.08,0,0,0-.38-0.26,8,8,0,0,0,1.47-2.76l0.61,0.18a0.17,0.17,0,0,1-.2.09c-0.09.26-.2,0.53-0.31,0.79h2.93v0.44H95.18a6.69,6.69,0,0,1,.49,1.34Zm6.66,1.41v0.46H100.1v3.72a0.5,0.5,0,0,1-.38.61,7.33,7.33,0,0,1-1.69.09,1.88,1.88,0,0,0-.18-0.48H98.7c0.88,0,.92,0,0.92-0.22v-3.73H95.47v-0.46h4.15v-1.34l0.65,0a0.15,0.15,0,0,1-.17.12v1.18h1.77ZM97.48,175a8.35,8.35,0,0,0-1.24-2l0.39-.22a8,8,0,0,1,1.26,2Zm2.16-5a6.16,6.16,0,0,0-.87-1.43H97.83A6,6,0,0,1,96.64,170a2.79,2.79,0,0,0-.38-0.28A6.08,6.08,0,0,0,98,167.07l0.61,0.18a0.17,0.17,0,0,1-.19.09,8,8,0,0,1-.35.79h3.77v0.44H99.32a5.82,5.82,0,0,1,.75,1.25Z"/><path class="d" d="M111.84,171.79H105.6l-0.37,1.1h4.84l0.12,0,0.3,0.11a0.39,0.39,0,0,1,0,.14c-0.29,1.89-.54,2.69-0.93,3a1.32,1.32,0,0,1-1,.23c-0.36,0-.88,0-1.41-0.06a1,1,0,0,0-.16-0.47c0.74,0.07,1.48.08,1.74,0.08a0.79,0.79,0,0,0,.49-0.09c0.31-.25.54-0.93,0.78-2.46h-4.84c-0.11.29-.22,0.57-0.32,0.8a3.68,3.68,0,0,0-.51-0.1c0.26-.59.59-1.5,0.84-2.26h-2.41v-0.46h9.18v0.46Zm-1.42-4.16v2.8h-6.23v-2.8h6.23Zm-0.5,2.35v-1.9h-5.25V170h5.25Z"/><path class="d" d="M116.38,167.56a0.27,0.27,0,0,1-.33.18c-0.12.59-.3,1.59-0.43,2.19,0.94-.09,1-0.1,1.26-0.1,1.44,0,1.95,1,1.95,2.41a7.71,7.71,0,0,1-.37,2.34,1.78,1.78,0,0,1-1.72,1.41,2.94,2.94,0,0,1-1.82-.9,1.91,1.91,0,0,0,.21-0.43,2.77,2.77,0,0,0,1.61.8,1.27,1.27,0,0,0,1.23-1,7.89,7.89,0,0,0,.35-2.19c0-1.17-.4-1.91-1.46-1.91a11.23,11.23,0,0,0-1.35.1,18.51,18.51,0,0,1-2.13,5.47l-0.48-.23a16.22,16.22,0,0,0,2.08-5.18c-0.56.07-1.3,0.15-1.87,0.24l0-.51c0.51-.07,1.34-0.16,2-0.23,0.16-.73.33-1.66,0.45-2.56Zm2.44-.29a6.86,6.86,0,0,1,1.4,1.4l-0.31.24a7,7,0,0,0-1.37-1.4Zm2.37,5.82a6.4,6.4,0,0,0-2.17-3.45l0.41-.29a6.54,6.54,0,0,1,2.28,3.54Zm-0.87-6.22a7.13,7.13,0,0,1,1.4,1.41l-0.31.23a7.55,7.55,0,0,0-1.37-1.4Z"/><path class="d" d="M125.12,169.48a0.17,0.17,0,0,1-.18.09,6.74,6.74,0,0,1-1.92,1.87,3.3,3.3,0,0,0-.34-0.31,5.27,5.27,0,0,0,1.84-1.83Zm4.68,2.94,0.36,0.24a0.2,0.2,0,0,1-.12.07,6.27,6.27,0,0,1-2.26,2.1,12.15,12.15,0,0,0,4.07,1.09,1.65,1.65,0,0,0-.29.45,11.69,11.69,0,0,1-4.26-1.28,15.27,15.27,0,0,1-4.3,1.28,1.41,1.41,0,0,0-.26-0.44,15.08,15.08,0,0,0,4.1-1.11,6.27,6.27,0,0,1-1.65-1.55,10.38,10.38,0,0,1-1.9,1.12A1.26,1.26,0,0,0,123,174a7.93,7.93,0,0,0,3.27-2.38l0.66,0.11a0.17,0.17,0,0,1-.2.11,6.72,6.72,0,0,1-.53.58h3.54Zm-3.13-3.76a3.56,3.56,0,0,1-1.83,3.47,1.61,1.61,0,0,0-.35-0.34,3.14,3.14,0,0,0,1.71-3v-0.09h-3.36V168.2H127v-1.11l0.66,0a0.15,0.15,0,0,1-.17.12v0.94h4.2v0.46h-2.84v2.49a0.43,0.43,0,0,1-.3.51,6,6,0,0,1-1.43.08,1.54,1.54,0,0,0-.14-0.45l0.88,0c0.46,0,.51,0,0.51-0.17v-2.48h-1.7Zm-1,4.22-0.16.13a5.57,5.57,0,0,0,1.78,1.57,5.68,5.68,0,0,0,2-1.7h-3.65Zm5.74-1.35a13.05,13.05,0,0,0-1.91-2.06l0.39-.23a12.8,12.8,0,0,1,1.93,2Z"/><path class="d" d="M134.22,176.33v-6a13.12,13.12,0,0,1-1.47,1.92,4.2,4.2,0,0,0-.29-0.44,13.74,13.74,0,0,0,2.81-4.64l0.62,0.21a0.17,0.17,0,0,1-.21.09,16.9,16.9,0,0,1-1,2.18l0.25,0.07a0.15,0.15,0,0,1-.17.11v6.51h-0.49Zm3.42-1.33c0,0.54.13,0.68,0.74,0.68h2.3c0.61,0,.69-0.39.77-1.9a1.45,1.45,0,0,0,.47.22c-0.1,1.61-.25,2.15-1.24,2.15h-2.3c-0.94,0-1.23-.24-1.23-1.17v-7.67l0.66,0a0.15,0.15,0,0,1-.17.12v3.86A18.08,18.08,0,0,0,141,169l0.41,0.48-0.09,0h-0.08a21.79,21.79,0,0,1-3.58,2.31V175Z"/><path class="d" d="M144.71,167.51a0.29,0.29,0,0,1-.31.21c-0.08,1.11-.18,3.86-0.18,5.34s0.77,2.33,2.1,2.33a4.91,4.91,0,0,0,3.73-2,2,2,0,0,0,.35.4,5.38,5.38,0,0,1-4.09,2.11c-1.69,0-2.63-1-2.63-2.86,0-1.23.09-4.4,0.17-5.64Z"/><path class="d" d="M154.73,167.35a0.32,0.32,0,0,1-.3.19c-0.07.47-.16,1-0.26,1.67a11.53,11.53,0,0,0,3-.58l0.14,0.5a12.62,12.62,0,0,1-3.2.6,24.74,24.74,0,0,1-1.86,6.32l-0.51-.2a22.1,22.1,0,0,0,1.83-6.1h-1.91v-0.51h2c0.1-.66.2-1.37,0.28-2Zm5.2,8.54-0.86,0a10,10,0,0,1-2.48-.24,1.34,1.34,0,0,1-1-1.32,2.31,2.31,0,0,1,.62-1.45l0.42,0.22a2,2,0,0,0-.54,1.19c0,0.82.77,1.1,2.78,1.1,0.36,0,.72,0,1.09,0v0.52Zm-0.28-4.76a11,11,0,0,0-3.52.47l-0.14-.45a12.2,12.2,0,0,1,3.66-.52v0.5Z"/><path class="d" d="M166.22,168.73a0.22,0.22,0,0,1-.23.15c-0.34,3-1.4,6-3,6-0.75,0-1.51-.82-1.51-2.35a4.37,4.37,0,0,1,4.48-4.4c2.91,0,4.08,1.89,4.08,3.76,0,2.39-1.43,3.51-3.81,4-0.06-.11-0.2-0.32-0.3-0.46,2.31-.44,3.58-1.56,3.58-3.56a3.2,3.2,0,0,0-3.55-3.3H165.7Zm-0.74-.12a3.87,3.87,0,0,0-3.53,3.88c0,1.15.52,1.85,1,1.85C164.26,174.33,165.2,171.48,165.48,168.6Z"/><path class="d" d="M171.28,168.48l0.94,0c0.79-.07,6.11-0.45,7.26-0.44v0.55l-0.42,0a2.93,2.93,0,0,0-1.63.47c-1.63,1-3.11,2.65-3.11,4,0,1.49,1,2.38,3.54,2.74l-0.22.5c-2.85-.42-3.88-1.44-3.88-3.23,0-1.48,1.48-3.24,3.43-4.42-1,.07-4.22.3-5.65,0.43a0.32,0.32,0,0,1-.21.15Zm6.41,1.83a7.74,7.74,0,0,1,1.4,1.4l-0.3.25a7.25,7.25,0,0,0-1.37-1.4Zm1-.87a6.81,6.81,0,0,1,1.4,1.39l-0.3.25a7.14,7.14,0,0,0-1.37-1.39Z"/><path class="d" d="M99.86,187.26a17.93,17.93,0,0,1-3.07.24,9.82,9.82,0,0,1-1.9-.13,1.86,1.86,0,0,1-1.69-1.86,3.23,3.23,0,0,1,1-2.14l0.42,0.24a2.89,2.89,0,0,0-.93,1.9,1.45,1.45,0,0,0,1.33,1.38,8.45,8.45,0,0,0,1.66.12,17,17,0,0,0,3.11-.27Zm-4.36-5A12.9,12.9,0,0,1,97.45,181h0c-0.85.1-2.71,0.13-3.9,0.13v-0.51c1.1,0,3.08,0,4-.1a11,11,0,0,0,1.66-.23l0.09,0.53a8.82,8.82,0,0,0-3.4,1.75Z"/><path class="d" d="M106.12,180.73a0.22,0.22,0,0,1-.23.15c-0.34,3-1.4,6-3,6-0.75,0-1.51-.82-1.51-2.35a4.37,4.37,0,0,1,4.48-4.4c2.91,0,4.08,1.89,4.08,3.76,0,2.39-1.43,3.51-3.81,4-0.06-.11-0.2-0.32-0.3-0.46,2.31-.44,3.58-1.56,3.58-3.56a3.2,3.2,0,0,0-3.55-3.3H105.6Zm-0.74-.12a3.87,3.87,0,0,0-3.53,3.88c0,1.15.52,1.85,1,1.85C104.16,186.33,105.1,183.48,105.38,180.6Z"/><path class="d" d="M120.19,187.23v0.47h-8.1v0.65h-0.48v-8.58H120v0.47h-7.88v7h8.1Zm-6.55-5.69a29.84,29.84,0,0,1,2.57,1.74,16.42,16.42,0,0,0,1.72-2.57l0.62,0.25a0.22,0.22,0,0,1-.24.08,17.65,17.65,0,0,1-1.72,2.53,17.59,17.59,0,0,1,2.46,2.25l-0.39.35a17.07,17.07,0,0,0-2.38-2.23,15.75,15.75,0,0,1-3,2.69,4.55,4.55,0,0,0-.39-0.34,14.6,14.6,0,0,0,3-2.65,29.22,29.22,0,0,0-2.6-1.79Z"/><path class="d" d="M125.11,182.92H122v5.42h-0.48v-8.79h3.56v3.37Zm-0.47-3H122v1h2.61v-1ZM122,182.51h2.61v-1.1H122v1.1Zm5.46,1.27v3.6h-3.26v0.52h-0.47v-4.12h3.73Zm-0.47.42h-2.79v1.13H127V184.2ZM124.23,187H127v-1.21h-2.79V187Zm5.58-7.41v8c0,0.75-.3.75-2,0.75a2.25,2.25,0,0,0-.18-0.51h1.48a0.2,0.2,0,0,0,.24-0.24v-4.64h-3.16v-3.38h3.65Zm-0.49.41h-2.69v1h2.69v-1Zm-2.69,2.55h2.69v-1.1h-2.69v1.1Z"/><path class="d" d="M133.11,179.81c0,0.1-.11.17-0.34,0.15a24.87,24.87,0,0,0-.52,4.55,12,12,0,0,0,.15,2.17c0.21-.56.65-1.67,0.8-2l0.36,0.28c-0.43,1.11-.72,1.69-0.86,2.12a1.65,1.65,0,0,0-.08.46,1,1,0,0,0,.05.31l-0.51.11a10.41,10.41,0,0,1-.43-3.4,27,27,0,0,1,.55-4.86Zm6.51,7.26-1,0a13.44,13.44,0,0,1-2-.12,1.73,1.73,0,0,1-1.75-1.62,3,3,0,0,1,1-1.9l0.47,0.23a2.46,2.46,0,0,0-.9,1.63,1.33,1.33,0,0,0,1.35,1.18,11.48,11.48,0,0,0,1.61.1c0.41,0,.84,0,1.25,0v0.52Zm-4.66-6a31.32,31.32,0,0,0,4.4-.38l0.06,0.52a37,37,0,0,1-4.44.38Z"/><path class="d" d="M145.07,181.66v6.06a0.47,0.47,0,0,1-.3.53,5.47,5.47,0,0,1-1.38.08,1.56,1.56,0,0,0-.17-0.43h1.21c0.16,0,.2-0.05.2-0.2v-2.08H142a6.09,6.09,0,0,1-.78,2.73,1.79,1.79,0,0,0-.37-0.23,7.25,7.25,0,0,0,.76-3.76v-2.24a4.65,4.65,0,0,1-.41.53,3.61,3.61,0,0,0-.37-0.28,8.57,8.57,0,0,0,1.64-3.3l0.61,0.17a0.19,0.19,0,0,1-.2.1c-0.06.21-.13,0.42-0.2,0.63h1.41l0.08,0,0.35,0.24-0.11.06a11.3,11.3,0,0,1-.69,1.4h1.32Zm-1.8,0a7.63,7.63,0,0,0,.59-1.25h-1.32a9.06,9.06,0,0,1-.6,1.25h1.33Zm-1.19,2.17v0.55c0,0.26,0,.54,0,0.83h1.08v-1.38h-1.06Zm0-1.75v1.33h1.06v-1.33h-1.06Zm1.46,0v1.33h1.09v-1.33h-1.09Zm0,3.13h1.09v-1.38h-1.09v1.38Zm6.39-5.58s0,0.11,0,.17c-0.1,1.72-.19,2.33-0.4,2.56a0.86,0.86,0,0,1-.73.2l-0.86,0a1.33,1.33,0,0,0-.13-0.43c0.46,0,.89,0,1,0a0.36,0.36,0,0,0,.3-0.08,4.71,4.71,0,0,0,.3-2h-1.9a3.53,3.53,0,0,1-2,2.86,1.37,1.37,0,0,0-.31-0.33,3.16,3.16,0,0,0,1.86-2.53h-1.53v-0.44h4.13Zm0.26,6.3v0.45H148v1.95h-0.47v-1.95h-2.22v-0.45h2.22v-1.46H146.3a4.4,4.4,0,0,1-.54,1,3.39,3.39,0,0,0-.37-0.24,6.16,6.16,0,0,0,.89-2.34l0.59,0.16a0.16,0.16,0,0,1-.18.08c-0.06.28-.14,0.57-0.23,0.85h1.11v-1.28l0.64,0.05a0.17,0.17,0,0,1-.17.12V184h1.76v0.45H148v1.46h2.15Z"/><path class="d" d="M154.68,179.56a0.27,0.27,0,0,1-.33.18c-0.12.59-.3,1.59-0.43,2.19,0.94-.09,1-0.1,1.26-0.1,1.44,0,1.95,1,1.95,2.41a7.71,7.71,0,0,1-.37,2.34A1.78,1.78,0,0,1,155,188a2.94,2.94,0,0,1-1.82-.9,1.91,1.91,0,0,0,.21-0.43,2.77,2.77,0,0,0,1.61.8,1.27,1.27,0,0,0,1.23-1,7.89,7.89,0,0,0,.35-2.19c0-1.17-.4-1.91-1.46-1.91a11.23,11.23,0,0,0-1.35.1,18.51,18.51,0,0,1-2.13,5.47l-0.48-.23a16.22,16.22,0,0,0,2.08-5.18c-0.56.07-1.3,0.15-1.87,0.24l0-.51c0.51-.07,1.34-0.16,2-0.23,0.16-.73.33-1.66,0.45-2.56Zm2.44-.29a6.86,6.86,0,0,1,1.4,1.4l-0.31.24a7,7,0,0,0-1.37-1.4Zm2.37,5.82a6.4,6.4,0,0,0-2.17-3.45l0.41-.29a6.54,6.54,0,0,1,2.28,3.54Zm-0.87-6.22a7.13,7.13,0,0,1,1.4,1.41l-0.31.23a7.55,7.55,0,0,0-1.37-1.4Z"/><path class="d" d="M166.91,182.73a2.55,2.55,0,0,1,2.52,2.59c0,1.6-1.42,2.52-3.9,2.79a2.43,2.43,0,0,0-.19-0.45c2.17-.21,3.56-1,3.56-2.31a2.15,2.15,0,0,0-2.16-2.15,8,8,0,0,1-2,3,2.17,2.17,0,0,0,.29.61l-0.44.27a3.21,3.21,0,0,1-.27-0.56,3.22,3.22,0,0,1-2,.86,1.14,1.14,0,0,1-1.13-1.3c0-1.36,1.18-2.47,2.63-3,0-.28,0-0.57,0-0.87s0-.61,0-0.93c-0.94,0-1.77,0-2.29,0v-0.49c0.53,0,1.42,0,2.31,0,0-.47,0-1,0-1.54l0.8,0.06a0.27,0.27,0,0,1-.26.2c0,0.39,0,.88-0.07,1.26a21.91,21.91,0,0,0,4.17-.42l0.07,0.51a22.23,22.23,0,0,1-4.26.39c0,0.59,0,1.14,0,1.67a5.07,5.07,0,0,1,1.63-.27h0.42a2.72,2.72,0,0,0,.1-0.48l0.54,0.14Zm-2.75,3.37a12.23,12.23,0,0,1-.31-2.52,3.07,3.07,0,0,0-2.16,2.52,0.73,0.73,0,0,0,.75.83A3.1,3.1,0,0,0,164.16,186.1Zm2.06-3a5.11,5.11,0,0,0-1.9.27,10.92,10.92,0,0,0,.27,2.31A7.1,7.1,0,0,0,166.22,183.14Z"/><path class="d" d="M173.16,183.54a6.49,6.49,0,0,1,2.68-.64,2.31,2.31,0,0,1,2.6,2.36c0,1.81-1.6,2.81-3.54,2.81-1.31,0-2.19-.5-2.19-1.34a1.45,1.45,0,0,1,1.6-1.29,2.14,2.14,0,0,1,2,1.89,2.15,2.15,0,0,0,1.57-2.06,1.9,1.9,0,0,0-2.17-1.9,5.93,5.93,0,0,0-3.74,1.34,13.62,13.62,0,0,0-1,1l-0.38-.38c1-1,3.94-3.88,5.3-5.16-0.6.09-2.7,0.16-4,.21a0.3,0.3,0,0,1-.19.15l-0.08-.67c1.38,0,3.88-.1,4.63-0.21l0.14-.07,0.45,0.51a0.55,0.55,0,0,1-.23.1c-0.77.64-2.78,2.55-3.55,3.29h0Zm1.69,4.06a4.08,4.08,0,0,0,1-.13,1.7,1.7,0,0,0-1.58-1.58,1,1,0,0,0-1.11.83C173.16,187.38,174.08,187.6,174.85,187.6Z"/><line class="e" x1="55" y1="128.33" x2="289.96" y2="128.33"/><path d="M296,128.33a30.22,30.22,0,0,0-8.55,4.76l1.72-4.76-1.72-4.75A30.2,30.2,0,0,0,296,128.33Z"/><line class="e" x1="55" y1="208.44" x2="55" y2="49.87"/><path d="M55,43.83a30.22,30.22,0,0,0,4.76,8.55L55,50.66l-4.75,1.72A30.2,30.2,0,0,0,55,43.83Z"/><path d="M275.53,143.42a0.93,0.93,0,0,1,0-.15l1.32-4.77h-1a0.6,0.6,0,0,1,0-.23,0.29,0.29,0,0,1,.14-0.1,5.62,5.62,0,0,0,1.08-.57,6.67,6.67,0,0,0,1-1.06l0.11-.13,0.05,0,0.06,0,0.1,0a0.31,0.31,0,0,1,0,.09,0.31,0.31,0,0,1,0,.08l-0.4,1.49h1.13l-0.08.47h-1.18l-1.26,4.59a0.32,0.32,0,0,0,0,.24,0.19,0.19,0,0,0,.18.11,0.87,0.87,0,0,0,.5-0.36q0.19-.19.62-0.76l0.18,0.1-0.1.14a5.28,5.28,0,0,1-1,1.23,1.42,1.42,0,0,1-.85.35,0.63,0.63,0,0,1-.51-0.18,0.62,0.62,0,0,1-.16-0.42S275.52,143.47,275.53,143.42Z"/><path d="M76.94,52.39a0.5,0.5,0,0,1-.42.19,0.52,0.52,0,0,1-.38-0.15A0.47,0.47,0,0,1,76,52.09a1.58,1.58,0,0,1,.13-0.47A0.2,0.2,0,0,0,76,51.46a0.29,0.29,0,0,0-.19-0.06A1.23,1.23,0,0,0,75,52.5a18,18,0,0,0-.43,2.14h1.52L76,55.1H74.43l-1.31,4.47A9.24,9.24,0,0,1,72,62.43a2.07,2.07,0,0,1-1.79,1.09,1.23,1.23,0,0,1-.82-0.27,0.77,0.77,0,0,1-.32-0.59,0.62,0.62,0,0,1,.13-0.38,0.47,0.47,0,0,1,.4-0.18,0.55,0.55,0,0,1,.39.15,0.51,0.51,0,0,1,.16.38,0.49,0.49,0,0,1-.07.25,0.48,0.48,0,0,0-.07.17,0.12,0.12,0,0,0,.08.1,0.43,0.43,0,0,0,.2,0,1.21,1.21,0,0,0,1-.92A6.86,6.86,0,0,0,71.68,61l1.63-5.87H72l0.1-.46h1.32a8.49,8.49,0,0,1,.84-2.36A2,2,0,0,1,76,51.11a1.14,1.14,0,0,1,.77.27,0.79,0.79,0,0,1,.31.61A0.65,0.65,0,0,1,76.94,52.39Z"/><path d="M75.37,64.93a0.46,0.46,0,0,1,0-.08l0.77-2.78H75.54a0.33,0.33,0,0,1,0-.13,0.16,0.16,0,0,1,.08-0.06,3.3,3.3,0,0,0,.63-0.33,3.85,3.85,0,0,0,.61-0.62l0.06-.08,0,0h0l0.06,0v0a0.25,0.25,0,0,1,0,0l-0.24.87H77.5l0,0.27H76.76L76,64.74a0.19,0.19,0,0,0,0,.14,0.11,0.11,0,0,0,.11.07,0.51,0.51,0,0,0,.29-0.21q0.11-.11.36-0.44l0.1,0.06-0.06.08a3.08,3.08,0,0,1-.6.72,0.83,0.83,0,0,1-.5.2A0.34,0.34,0,0,1,75.36,65,0.71,0.71,0,0,1,75.37,64.93Z"/><path d="M81.43,52.91a7,7,0,0,1,2.06-1.77l0.13,0.23a6.24,6.24,0,0,0-1.57,1.7,7.7,7.7,0,0,0-.83,3.84,11.4,11.4,0,0,0,.31,2.93,5.06,5.06,0,0,0,2.08,3l-0.18.23a5.83,5.83,0,0,1-1.82-1.58A6.74,6.74,0,0,1,80,57.09,6.54,6.54,0,0,1,81.43,52.91Z"/><path d="M84.56,60a0.93,0.93,0,0,1,0-.15l1.32-4.77h-1a0.6,0.6,0,0,1,0-.23,0.29,0.29,0,0,1,.14-0.1,5.62,5.62,0,0,0,1.08-.57,6.67,6.67,0,0,0,1-1.06L87.26,53l0.05,0,0.06,0,0.1,0a0.31,0.31,0,0,1,0,.09,0.31,0.31,0,0,1,0,.08l-0.4,1.49h1.13l-0.08.47H87L85.69,59.7a0.32,0.32,0,0,0,0,.24,0.19,0.19,0,0,0,.18.11,0.87,0.87,0,0,0,.5-0.36q0.19-.19.62-0.76L87.2,59l-0.1.14a5.28,5.28,0,0,1-1,1.23,1.42,1.42,0,0,1-.85.35,0.63,0.63,0,0,1-.51-0.18,0.62,0.62,0,0,1-.16-0.42S84.55,60.07,84.56,60Z"/><path d="M91.64,59.09a6.65,6.65,0,0,1-2.22,3.32,5.46,5.46,0,0,1-1,.69l-0.13-.23a5.78,5.78,0,0,0,1.54-1.63,7.7,7.7,0,0,0,.86-3.9,10.77,10.77,0,0,0-.4-3.21,5.14,5.14,0,0,0-2-2.76l0.18-.23a6.65,6.65,0,0,1,2,1.82,6.75,6.75,0,0,1,1.43,4.2A6.82,6.82,0,0,1,91.64,59.09Z"/><path class="f" d="M55,76c19.83,0,71.18-1.57,77.33,52.3,4.67,40.86,10,5.2,17-16.47,8.47-26.2,58.5,66.17,90,66.17h32"/><path class="f" d="M149.33,111.86c8.47-26.2,58.5,66.17,90,66.17h32"/><path class="g" d="M128,110.38a68.76,68.76,0,0,1,4.37,18c1.31,11.49,2.68,16.93,4.12,18.33"/><line class="a" x1="351.67" y1="128.33" x2="351.67" y2="76.02"/><line class="a" x1="367.9" y1="128.33" x2="367.9" y2="77.62"/><line class="a" x1="384.14" y1="128.33" x2="384.14" y2="81.73"/><line class="a" x1="400.38" y1="128.33" x2="400.38" y2="91.53"/><line class="a" x1="416.62" y1="128.33" x2="416.62" y2="118.93"/><line class="a" x1="432.85" y1="128.33" x2="432.85" y2="121.36"/><line class="a" x1="449.09" y1="128.33" x2="449.09" y2="111.85"/><line class="a" x1="461.08" y1="128.33" x2="461.08" y2="123.27"/><line class="b" x1="481.56" y1="128.33" x2="481.56" y2="146.76"/><line class="c" x1="410.82" y1="164.58" x2="418.12" y2="152.69"/><path class="d" d="M420.49,148.83a22.67,22.67,0,0,0-.32,7.33l-2.36-3-3.71-.77A22.65,22.65,0,0,0,420.49,148.83Z"/><path class="d" d="M382.77,169.66v6.06a0.47,0.47,0,0,1-.3.53,5.46,5.46,0,0,1-1.38.08,1.59,1.59,0,0,0-.17-0.43h1.21c0.16,0,.2-0.05.2-0.2v-2.08h-2.6a6.11,6.11,0,0,1-.78,2.73,1.8,1.8,0,0,0-.37-0.23,7.25,7.25,0,0,0,.76-3.76v-2.24a4.65,4.65,0,0,1-.41.53,3.66,3.66,0,0,0-.37-0.28,8.58,8.58,0,0,0,1.64-3.3l0.61,0.17a0.19,0.19,0,0,1-.2.1c-0.06.21-.13,0.42-0.2,0.63h1.41l0.08,0,0.35,0.24-0.11.06a11.3,11.3,0,0,1-.69,1.4h1.32Zm-1.8,0a7.63,7.63,0,0,0,.59-1.25h-1.32a9.06,9.06,0,0,1-.6,1.25H381Zm-1.19,2.17v0.55c0,0.26,0,.54,0,0.83h1.08v-1.38h-1.06Zm0-1.75v1.33h1.06v-1.33h-1.06Zm1.46,0v1.33h1.09v-1.33h-1.09Zm0,3.13h1.09v-1.38h-1.09v1.38Zm6.39-5.58s0,0.11,0,.17c-0.1,1.72-.19,2.33-0.4,2.56a0.86,0.86,0,0,1-.73.2l-0.86,0a1.31,1.31,0,0,0-.13-0.43c0.46,0,.89,0,1,0a0.37,0.37,0,0,0,.3-0.08,4.71,4.71,0,0,0,.3-2h-1.9a3.53,3.53,0,0,1-2,2.86,1.39,1.39,0,0,0-.31-0.33,3.16,3.16,0,0,0,1.86-2.53h-1.53v-0.44h4.13Zm0.26,6.3v0.45h-2.15v1.95h-0.47v-1.95h-2.22v-0.45h2.22v-1.46H384a4.36,4.36,0,0,1-.54,1,3.34,3.34,0,0,0-.37-0.24,6.18,6.18,0,0,0,.89-2.34l0.59,0.16a0.16,0.16,0,0,1-.18.08c-0.06.28-.14,0.57-0.23,0.85h1.11v-1.28l0.64,0.05a0.17,0.17,0,0,1-.17.12V172h1.76v0.45h-1.76v1.46h2.15Z"/><path class="d" d="M391.2,171.12a2.75,2.75,0,0,1,1.68-.69,1.28,1.28,0,0,1,1.24,1.33c0.87-.39,2-0.82,2.8-1.15l0.26,0.6h0a0.28,0.28,0,0,1-.16-0.06c-0.77.26-1.91,0.7-2.77,1.09,0,0.24,0,.51,0,0.83s0,0.73,0,1.15l-0.55,0c0-.35,0-0.84,0-1.25,0-.2,0-0.39,0-0.54-1.24.6-2.29,1.33-2.29,2s0.74,0.95,2.22.95a22.5,22.5,0,0,0,2.52-.11v0.51c-0.62.06-1.53,0.08-2.52,0.08-1.93,0-2.74-.47-2.74-1.42s1.21-1.73,2.74-2.5a0.93,0.93,0,0,0-.83-1.06,3.5,3.5,0,0,0-2.47,1.46,14.91,14.91,0,0,1-1.12,1.09l-0.35-.36a7.17,7.17,0,0,0,2.58-3.85H389.1v-0.49h2.46c0.11-.47.21-0.91,0.29-1.47l0.78,0.11a0.22,0.22,0,0,1-.24.17,11.39,11.39,0,0,1-.27,1.18,13.67,13.67,0,0,0,3.58-.6l0.1,0.51a15,15,0,0,1-3.82.57,7.17,7.17,0,0,1-.79,1.87h0Z"/><path class="d" d="M401.87,173.36a0.2,0.2,0,0,1-.19.12c-0.27,1.44-.9,2.39-3.17,2.87a1.44,1.44,0,0,0-.28-0.43c2.12-.4,2.75-1.22,3-2.63Zm2.23,2.09c0,0.27.1,0.34,0.59,0.34h1.77c0.45,0,.53-0.2.57-1.49a1.13,1.13,0,0,0,.46.21c-0.07,1.41-.22,1.75-1,1.75h-1.82c-0.83,0-1.06-.15-1.06-0.81V173h-3.9v-5.53H406V173h-1.9v2.45Zm-3.92-7.54v1.25h5.33v-1.25h-5.33Zm0,1.68v1.26h5.33v-1.26h-5.33Zm0,1.68v1.29h5.33v-1.29h-5.33Z"/><path class="d" d="M410.14,171.12v3.31c0.84,1.25,2.47,1.25,4.27,1.25,1.08,0,2.33,0,3.07-.07a1.49,1.49,0,0,0-.16.49c-0.66,0-1.75,0-2.74,0-2.12,0-3.63,0-4.65-1.27-0.47.46-1,.93-1.36,1.28a0.14,0.14,0,0,1-.07.15l-0.31-.52a18.8,18.8,0,0,0,1.48-1.31v-2.88h-1.4v-0.47h1.87Zm-1.35-3.78a7.22,7.22,0,0,1,1.68,1.69l-0.4.31a7,7,0,0,0-1.65-1.74Zm4.07-.25,0.62,0a0.16,0.16,0,0,1-.17.12v3.19c0,1.79-.24,3.34-2.18,4.47a1.6,1.6,0,0,0-.33-0.35,3.66,3.66,0,0,0,2-2.86c-0.68.44-1.36,0.86-1.82,1.13a0.2,0.2,0,0,1-.08.17l-0.32-.49c0.57-.3,1.43-0.8,2.28-1.3,0-.25,0-0.51,0-0.77V167.1Zm-1.61,1a6.13,6.13,0,0,1,1.08,2l-0.42.18a6.38,6.38,0,0,0-1.07-2Zm5.38,6.1c0.26,0,.3-0.16.33-0.89a1.29,1.29,0,0,0,.43.19c0,0.87-.18,1.15-0.74,1.15h-1.39c-0.66,0-.84-0.16-0.84-0.84V167.1l0.62,0a0.15,0.15,0,0,1-.17.12v6.53c0,0.32.07,0.38,0.42,0.38h1.34Zm-1.4-3.13a8.86,8.86,0,0,1,2,1.46l-0.33.33a9.1,9.1,0,0,0-2-1.5Zm1.85-2.76a0.17,0.17,0,0,1-.19.07,17.55,17.55,0,0,1-1.29,2l-0.36-.19a13.17,13.17,0,0,0,1.27-2.15Z"/><path class="d" d="M420.31,167.51a0.29,0.29,0,0,1-.31.21c-0.08,1.11-.18,3.86-0.18,5.34s0.77,2.33,2.1,2.33a4.91,4.91,0,0,0,3.73-2,2,2,0,0,0,.35.4,5.38,5.38,0,0,1-4.09,2.11c-1.69,0-2.63-1-2.63-2.86,0-1.23.09-4.4,0.17-5.64Z"/><path class="d" d="M426.58,168.48l0.94,0c0.79-.07,6.11-0.45,7.26-0.44v0.55l-0.42,0a2.93,2.93,0,0,0-1.63.47c-1.63,1-3.11,2.65-3.11,4,0,1.49,1,2.38,3.54,2.74l-0.22.5c-2.85-.42-3.88-1.44-3.88-3.23,0-1.48,1.48-3.24,3.43-4.42-1,.06-4.22.3-5.65,0.43a0.32,0.32,0,0,1-.21.15Z"/><path class="d" d="M437.81,167.51a0.29,0.29,0,0,1-.31.21c-0.08,1.11-.18,3.86-0.18,5.34s0.77,2.33,2.1,2.33a4.91,4.91,0,0,0,3.73-2,2,2,0,0,0,.35.4,5.38,5.38,0,0,1-4.09,2.11c-1.69,0-2.63-1-2.63-2.86,0-1.23.09-4.4,0.17-5.64Z"/><path class="d" d="M444.61,168.69c0.62,0,1.41,0,2.07,0,0.5,0,1.07,0,1.53,0,0-.49,0-1.08,0-1.44l0.81,0c0,0.12-.09.17-0.27,0.2,0,0.32,0,.8,0,1.17a18.64,18.64,0,0,0,3.42-.41l0.08,0.49a19.55,19.55,0,0,1-3.51.4c0,0.66,0,1.33,0,2a17.38,17.38,0,0,0,2.92-.4l0.07,0.48a18.19,18.19,0,0,1-3,.37l0.08,1.81a11.34,11.34,0,0,1,3,1.61l-0.32.45a10.27,10.27,0,0,0-2.68-1.55c0,0.19,0,.39,0,0.54a1.44,1.44,0,0,1-1.68,1.55c-1.26,0-2.19-.49-2.19-1.42s1.09-1.44,2.17-1.44a4.4,4.4,0,0,1,1.16.13c0-.47,0-1,0-1.65h-1c-1.45,0-2.19-.13-2.19-0.8a1.46,1.46,0,0,1,.89-1.06l0.36,0.27a1.14,1.14,0,0,0-.73.73c0,0.33.56,0.4,1.67,0.41l1,0-0.06-2c-0.81,0-1.19,0-2.22,0-0.48,0-1,0-1.4,0v-0.49Zm3.79,5.07a4.4,4.4,0,0,0-1.2-.16c-0.8,0-1.68.33-1.68,1s0.77,1,1.71,1a1,1,0,0,0,1.18-1.17v-0.64Z"/><path class="d" d="M453.29,171.07l0.86-.24a14.21,14.21,0,0,1,3.6-.74,2.28,2.28,0,0,1,2.56,2.34c0,2.16-2.23,3-4.81,3.18,0-.11-0.1-0.35-0.14-0.45,2.33-.17,4.44-0.87,4.44-2.71a1.85,1.85,0,0,0-2.07-1.91,13.26,13.26,0,0,0-3.44.75c-0.25.07-.5,0.17-0.65,0.22a0.24,0.24,0,0,1-.14.16Z"/><path class="d" d="M465.33,167.35a0.32,0.32,0,0,1-.3.19c-0.07.47-.16,1-0.26,1.67a11.53,11.53,0,0,0,3-.58l0.14,0.5a12.61,12.61,0,0,1-3.2.6,24.76,24.76,0,0,1-1.86,6.32l-0.51-.2a22.12,22.12,0,0,0,1.83-6.1h-1.91v-0.51h2c0.1-.66.2-1.37,0.28-2Zm5.2,8.54-0.86,0a10,10,0,0,1-2.48-.24,1.34,1.34,0,0,1-1-1.32,2.31,2.31,0,0,1,.62-1.45l0.42,0.22a2,2,0,0,0-.54,1.19c0,0.82.77,1.1,2.78,1.1,0.36,0,.72,0,1.09,0v0.52Zm-0.28-4.76a11,11,0,0,0-3.52.47l-0.14-.45a12.2,12.2,0,0,1,3.66-.52v0.5Z"/><line class="e" x1="341" y1="128.33" x2="575.96" y2="128.33"/><path d="M582,128.33a30.22,30.22,0,0,0-8.55,4.76l1.72-4.76-1.72-4.75A30.2,30.2,0,0,0,582,128.33Z"/><line class="e" x1="341" y1="208.44" x2="341" y2="49.87"/><path d="M341,43.83a30.22,30.22,0,0,0,4.76,8.55L341,50.66l-4.75,1.72A30.2,30.2,0,0,0,341,43.83Z"/><path d="M561.53,143.42a0.93,0.93,0,0,1,0-.15l1.32-4.77h-1a0.6,0.6,0,0,1,0-.23,0.29,0.29,0,0,1,.14-0.1,5.62,5.62,0,0,0,1.08-.57,6.67,6.67,0,0,0,1-1.06l0.11-.13,0.05,0,0.06,0,0.1,0a0.31,0.31,0,0,1,0,.09,0.31,0.31,0,0,1,0,.08l-0.4,1.49h1.13l-0.08.47h-1.18l-1.26,4.59a0.32,0.32,0,0,0,0,.24,0.19,0.19,0,0,0,.18.11,0.87,0.87,0,0,0,.5-0.36q0.19-.19.62-0.76l0.18,0.1-0.1.14a5.28,5.28,0,0,1-1,1.23,1.42,1.42,0,0,1-.85.35,0.63,0.63,0,0,1-.51-0.18,0.62,0.62,0,0,1-.16-0.42S561.52,143.47,561.53,143.42Z"/><path d="M362.94,52.39a0.5,0.5,0,0,1-.42.19,0.52,0.52,0,0,1-.38-0.15,0.47,0.47,0,0,1-.15-0.35,1.58,1.58,0,0,1,.13-0.47,0.2,0.2,0,0,0-.09-0.16,0.29,0.29,0,0,0-.19-0.06,1.23,1.23,0,0,0-.86,1.1,18,18,0,0,0-.43,2.14h1.52l-0.1.46h-1.56l-1.31,4.47A9.24,9.24,0,0,1,358,62.43a2.07,2.07,0,0,1-1.79,1.09,1.23,1.23,0,0,1-.82-0.27,0.77,0.77,0,0,1-.32-0.59,0.62,0.62,0,0,1,.13-0.38,0.47,0.47,0,0,1,.4-0.18,0.55,0.55,0,0,1,.39.15,0.51,0.51,0,0,1,.16.38,0.49,0.49,0,0,1-.07.25,0.48,0.48,0,0,0-.07.17,0.12,0.12,0,0,0,.08.1,0.43,0.43,0,0,0,.2,0,1.21,1.21,0,0,0,1-.92,6.86,6.86,0,0,0,.39-1.32l1.63-5.87H358l0.1-.46h1.32a8.49,8.49,0,0,1,.84-2.36A2,2,0,0,1,362,51.11a1.14,1.14,0,0,1,.77.27,0.79,0.79,0,0,1,.31.61A0.65,0.65,0,0,1,362.94,52.39Z"/><path d="M361.36,64.93a0.46,0.46,0,0,1,0-.08l0.77-2.78h-0.61a0.33,0.33,0,0,1,0-.13,0.16,0.16,0,0,1,.08-0.06,3.3,3.3,0,0,0,.63-0.33,3.85,3.85,0,0,0,.61-0.62l0.06-.08,0,0h0l0.06,0v0a0.25,0.25,0,0,1,0,0l-0.24.87h0.66l0,0.27h-0.69L362,64.74a0.19,0.19,0,0,0,0,.14,0.11,0.11,0,0,0,.11.07,0.51,0.51,0,0,0,.29-0.21q0.11-.11.36-0.44l0.1,0.06-0.06.08a3.08,3.08,0,0,1-.6.72,0.83,0.83,0,0,1-.5.2,0.34,0.34,0,0,1-.39-0.35A0.71,0.71,0,0,1,361.36,64.93Z"/><path d="M367.43,52.91a7,7,0,0,1,2.06-1.77l0.13,0.23a6.24,6.24,0,0,0-1.57,1.7,7.7,7.7,0,0,0-.83,3.84,11.4,11.4,0,0,0,.31,2.93,5.06,5.06,0,0,0,2.08,3l-0.18.23a5.83,5.83,0,0,1-1.82-1.58A6.74,6.74,0,0,1,366,57.09,6.54,6.54,0,0,1,367.43,52.91Z"/><path d="M370.56,60a0.93,0.93,0,0,1,0-.15l1.32-4.77h-1a0.6,0.6,0,0,1,0-.23,0.29,0.29,0,0,1,.14-0.1,5.62,5.62,0,0,0,1.08-.57,6.67,6.67,0,0,0,1-1.06l0.11-.13,0.05,0,0.06,0,0.1,0a0.31,0.31,0,0,1,0,.09,0.31,0.31,0,0,1,0,.08l-0.4,1.49h1.13l-0.08.47H373l-1.26,4.59a0.32,0.32,0,0,0,0,.24,0.19,0.19,0,0,0,.18.11,0.87,0.87,0,0,0,.5-0.36q0.19-.19.62-0.76L373.2,59l-0.1.14a5.28,5.28,0,0,1-1,1.23,1.42,1.42,0,0,1-.85.35,0.63,0.63,0,0,1-.51-0.18,0.62,0.62,0,0,1-.16-0.42S370.55,60.07,370.56,60Z"/><path d="M377.64,59.09a6.65,6.65,0,0,1-2.22,3.32,5.46,5.46,0,0,1-1,.69l-0.13-.23a5.78,5.78,0,0,0,1.54-1.63,7.7,7.7,0,0,0,.86-3.9,10.77,10.77,0,0,0-.4-3.21,5.14,5.14,0,0,0-2-2.76l0.18-.23a6.65,6.65,0,0,1,2,1.82,6.75,6.75,0,0,1,1.43,4.2A6.82,6.82,0,0,1,377.64,59.09Z"/><path class="f" d="M341,76c19.83,0,71.18-1.57,77.33,52.3,4.67,40.86,10,5.2,17-16.47,8.47-26.2,58.5,66.17,90,66.17h32"/><path class="f" d="M525.33,178h32"/><path class="g" d="M461.08,123.27c5.67,6.27,14.43,16.27,20.77,23.22"/></svg>