<svg xmlns="http://www.w3.org/2000/svg" xmlns:xlink="http://www.w3.org/1999/xlink" viewBox="0 0 80.02 97.21"><defs><radialGradient id="a" cx="44.77" cy="59.61" r="19.25" gradientTransform="translate(-53.04 13.75) scale(2.08 0.73)" gradientUnits="userSpaceOnUse"><stop offset="0" stop-opacity="0.1"/><stop offset="1" stop-opacity="0"/></radialGradient></defs><title>YLog</title><ellipse cx="40.01" cy="57.4" rx="40.01" ry="14.1" style="fill:url(#a)"/><path d="M31.57,85.57V95a4.34,4.34,0,0,1-4.33,4.33,4.27,4.27,0,0,1-2.15-.58,4.05,4.05,0,0,1-1.6-1.57,0.82,0.82,0,0,1-.11-0.37,0.69,0.69,0,0,1,.23-0.51A0.73,0.73,0,0,1,24.14,96a0.77,0.77,0,0,1,.61.38,3.09,3.09,0,0,0,2.49,1.44A2.89,2.89,0,0,0,30.13,95V93.85a4.33,4.33,0,0,1-7.22-3.22V85.57a0.72,0.72,0,1,1,1.44,0v5.06a2.89,2.89,0,0,0,5.78,0V85.57A0.72,0.72,0,1,1,31.57,85.57Z" transform="translate(-5.01 -2.33)" style="fill:#ff120a;stroke:#fff;stroke-miterlimit:10;stroke-width:0.5px"/><path d="M43,92.78a0.84,0.84,0,0,1-.15.44,3.68,3.68,0,0,1-1.52,1.28,4.44,4.44,0,0,1-1.95.46A4.34,4.34,0,0,1,35,90.63v-9.4a0.72,0.72,0,1,1,1.44,0v9.4a2.89,2.89,0,0,0,2.89,2.89,2.74,2.74,0,0,0,1.87-.73,3.21,3.21,0,0,1,1-.73,0.74,0.74,0,0,1,.52.22A0.67,0.67,0,0,1,43,92.78Z" transform="translate(-5.01 -2.33)" style="fill:#ff120a;stroke:#fff;stroke-miterlimit:10;stroke-width:0.5px"/><path d="M54.22,89.9a5.07,5.07,0,1,1-1.48-3.58A4.88,4.88,0,0,1,54.22,89.9Zm-1.44,0a3.62,3.62,0,1,0-1.06,2.56A3.48,3.48,0,0,0,52.77,89.9Z" transform="translate(-5.01 -2.33)" style="fill:#ff120a;stroke:#fff;stroke-miterlimit:10;stroke-width:0.5px"/><path d="M65.23,85.57a0.66,0.66,0,0,1-.62.7,7.31,7.31,0,0,1-1.08,0,3.19,3.19,0,0,1,.83,2.17,3.26,3.26,0,0,1-1.55,2.8A4,4,0,0,1,65.23,95a3.86,3.86,0,0,1-1.62,3.17,5.65,5.65,0,0,1-6.88,0A3.86,3.86,0,0,1,55.12,95a0.72,0.72,0,1,1,1.44,0,2.5,2.5,0,0,0,1.19,2.13,4.22,4.22,0,0,0,4.83,0,2.49,2.49,0,0,0,0-4.26,4.06,4.06,0,0,0-2.42-.76,4.44,4.44,0,0,1-2.85-1,3.27,3.27,0,0,1,0-5.28,4.47,4.47,0,0,1,2.85-1h4.33A0.64,0.64,0,0,1,65.23,85.57Zm-2.31,2.89A1.92,1.92,0,0,0,62,86.84a3.32,3.32,0,0,0-3.66,0,1.89,1.89,0,0,0,0,3.24,3.32,3.32,0,0,0,3.66,0A1.92,1.92,0,0,0,62.92,88.46Z" transform="translate(-5.01 -2.33)" style="fill:#ff120a;stroke:#fff;stroke-miterlimit:10;stroke-width:0.5px"/><path d="M74.06,59.05" transform="translate(-5.01 -2.33)" style="fill:#ccc"/><polygon points="38.26 0 4.8 58.76 53.44 69.19 38.26 0" style="fill:#f2f2f2"/><polyline points="71.17 52.91 38.81 44.81 53.44 69.19" style="fill:#ccc"/><polygon points="38.26 0 71.17 52.91 53.44 69.19 38.26 0" style="fill:#f16463"/><polygon points="4.8 58.76 38.81 44.81 53.44 69.19 4.8 58.76" style="fill:#ccc"/><polygon points="71.17 52.91 48.81 48.1 53.44 69.19 71.17 52.91" style="fill:#d64143"/><polygon points="38.26 0 38.81 44.81 53.44 69.19 38.26 0" style="fill:#f16463;opacity:0.41000000000000003"/></svg>